<svg width="96" height="96" viewBox="0 0 96 96" fill="none" xmlns="http://www.w3.org/2000/svg">
<path d="M27.0333 28.0032V25.1767C27.0333 24.5292 26.4645 24 25.7685 24H7.26481C6.56883 24 6 24.5292 6 25.1767V49.115C6 49.7625 6.56883 50.2917 7.26481 50.2917H11.6348C12.3307 50.2917 12.8996 49.7625 12.8996 49.115V42.36C12.8996 41.7125 13.4684 41.1833 14.1644 41.1833H25.7685C26.4645 41.1833 27.0333 40.6541 27.0333 40.0066V37.1801C27.0333 36.5326 26.4645 36.0034 25.7685 36.0034H14.1644C13.4684 36.0034 12.8996 35.4742 12.8996 34.8267V30.3441C12.8996 29.6966 13.4684 29.1674 14.1644 29.1674H25.7685C26.4645 29.1674 27.0333 28.6382 27.0333 27.9908V28.0032Z" fill="#98A2B3"/>
<path d="M66.6878 50.1236L54.9461 36.7537C54.2881 36.0006 52.9586 36.43 52.9586 37.3948V49.2647C52.9586 49.8311 52.4566 50.2917 51.8393 50.2917H47.8712C47.2539 50.2917 46.752 49.8311 46.752 49.2647V25.027C46.752 24.4606 47.2539 24 47.8712 24H52.9586L64.836 37.9737C65.4871 38.7455 66.837 38.316 66.837 37.345V25.027C66.837 24.4606 67.339 24 67.9562 24H71.9244C72.5417 24 73.0436 24.4606 73.0436 25.027V49.2647C73.0436 49.8311 72.5417 50.2917 71.9244 50.2917H66.9862L66.6878 50.1236Z" fill="#98A2B3"/>
<path d="M37.0445 32.9262C35.7492 32.9262 34.5572 32.5345 33.6133 31.8876C33.6133 31.9113 33.6064 31.9291 33.6064 31.9529V49.0217C33.6064 49.722 34.2679 50.2917 35.0809 50.2917H38.7049C39.5179 50.2917 40.1794 49.722 40.1794 49.0217V32.0775C39.2906 32.6116 38.2089 32.9262 37.0514 32.9262H37.0445Z" fill="#98A2B3"/>
<path d="M36.8929 30.5729C38.708 30.5729 40.1794 29.1015 40.1794 27.2865C40.1794 25.4714 38.708 24 36.8929 24C35.0778 24 33.6064 25.4714 33.6064 27.2865C33.6064 29.1015 35.0778 30.5729 36.8929 30.5729Z" fill="#98A2B3"/>
<path d="M17.8313 57.072V54.2354H6V54.5482V57.072V68.4952V69.5729V71.3249H17.8313V68.4952H9.49322V64.1985H16.6951V61.3618H9.49322V57.072H17.8313Z" fill="#98A2B3"/>
<path d="M46.0802 65.1807H42.43V71.3249H38.8643V54.2354H46.3465C48.0741 54.2354 49.4446 54.6762 50.4708 55.5579C51.497 56.4396 52.0101 57.8034 52.0101 59.6495C52.0101 61.6677 51.497 63.0936 50.4708 63.927C49.4446 64.7605 47.9832 65.1807 46.0802 65.1807ZM47.7624 61.6195C48.23 61.2131 48.4638 60.5587 48.4638 59.6701C48.4638 58.7816 48.23 58.1478 47.7559 57.769C47.2882 57.3901 46.6258 57.2042 45.7814 57.2042H42.4365V62.2325H45.7814C46.6258 62.2325 47.2882 62.0259 47.7624 61.6195Z" fill="#98A2B3"/>
<path d="M58.8938 70.225C57.5864 69.4895 56.551 68.479 55.7878 67.1797C55.0246 65.8805 54.6396 64.4094 54.6396 62.7664C54.6396 61.1234 55.0246 59.6798 55.7878 58.3806C56.551 57.0813 57.5864 56.0639 58.8938 55.3352C60.2012 54.5997 61.6348 54.2354 63.1944 54.2354C64.754 54.2354 66.2075 54.5997 67.5083 55.3352C68.8091 56.0708 69.8378 57.0813 70.5944 58.3806C71.3509 59.6798 71.7292 61.1441 71.7292 62.7664C71.7292 64.3887 71.3509 65.8805 70.5944 67.1797C69.8378 68.479 68.8024 69.4964 67.5016 70.225C66.1942 70.9606 64.7607 71.3249 63.201 71.3249C61.6414 71.3249 60.2079 70.9606 58.9004 70.225H58.8938ZM65.8425 67.6609C66.6057 67.2072 67.203 66.5542 67.6344 65.7086C68.0658 64.8631 68.2781 63.8869 68.2781 62.7664C68.2781 61.6459 68.0658 60.6766 67.6344 59.8379C67.203 58.9993 66.6057 58.36 65.8425 57.9131C65.0792 57.4663 64.1965 57.2463 63.1878 57.2463C62.179 57.2463 61.2963 57.4732 60.5198 57.9131C59.7499 58.36 59.146 58.9993 58.7146 59.8379C58.2832 60.6766 58.0708 61.6528 58.0708 62.7664C58.0708 63.88 58.2832 64.8631 58.7146 65.7086C59.146 66.5542 59.7433 67.2003 60.5198 67.6609C61.2897 68.1146 62.179 68.3415 63.1878 68.3415C64.1965 68.3415 65.0726 68.1146 65.8425 67.6609Z" fill="#98A2B3"/>
<path d="M84.4932 53.5586C84.3433 53.4245 84.1577 53.3173 83.9435 53.2502C83.7293 53.1832 83.4866 53.1429 83.2154 53.1429C82.9441 53.1429 82.7014 53.1765 82.4801 53.2502C82.2659 53.324 82.0803 53.4312 81.9233 53.5653C81.7734 53.6994 81.652 53.867 81.5735 54.0614C81.495 54.2558 81.4521 54.4771 81.4521 54.7251C81.4521 54.9732 81.495 55.1944 81.5735 55.3889C81.6592 55.5833 81.7734 55.7442 81.9233 55.8783C82.0732 56.0123 82.2588 56.1129 82.4801 56.1867C82.6943 56.2537 82.937 56.2872 83.2082 56.2872C83.4795 56.2872 83.7222 56.2537 83.9435 56.1867C84.1577 56.1196 84.3433 56.019 84.5003 55.885C84.6502 55.7509 84.7716 55.59 84.8501 55.3956C84.9286 55.2011 84.9715 54.9799 84.9715 54.7318C84.9715 54.4838 84.9286 54.2625 84.8501 54.0681C84.7716 53.8737 84.6502 53.7061 84.5003 53.5653L84.4932 53.5586Z" fill="#98A2B3"/>
<path d="M87.9915 24H78.9755C77.7905 24 76.834 24.8984 76.834 26.0113V69.3137C76.834 70.4266 77.7905 71.325 78.9755 71.325H87.9915C89.1765 71.325 90.1331 70.4266 90.1331 69.3137V26.0113C90.1331 24.8984 89.1765 24 87.9915 24ZM88.5697 48.6313V48.7586C88.5697 48.8257 88.5697 48.8994 88.5697 48.9799C88.5697 49.0603 88.5697 49.1341 88.5697 49.2011C88.5697 49.2682 88.5697 49.3151 88.5626 49.3285H87.2562C87.2562 49.3285 87.2562 49.2816 87.2634 49.2481C87.2634 49.2078 87.2634 49.1676 87.2634 49.1274V48.9195C87.2634 48.5776 87.2134 48.3028 87.1063 48.1083C86.9993 47.9072 86.8351 47.7731 86.5995 47.6994L86.3782 47.639L80.1962 50.0727V48.0547L84.8506 46.5932V46.4792L80.1962 45.0177V43.0802L86.4353 45.4669C86.8351 45.6144 87.1634 45.782 87.4347 45.9697C87.706 46.1574 87.9273 46.3719 88.0915 46.6267C88.2628 46.8815 88.3841 47.1697 88.4555 47.4983C88.5269 47.8268 88.5697 48.2089 88.5697 48.638V48.6313ZM88.377 39.9761V41.8064H80.1962V40.0298H81.2028V39.9158C81.0314 39.8219 80.8744 39.708 80.7388 39.5605C80.6031 39.413 80.4818 39.2521 80.389 39.0711C80.2962 38.89 80.2176 38.6956 80.1677 38.4744C80.1177 38.2531 80.0892 38.0319 80.0892 37.7906C80.0892 37.3481 80.1605 36.9592 80.3033 36.6106C80.4461 36.262 80.6531 35.967 80.9244 35.719C81.1956 35.4709 81.5311 35.2832 81.9238 35.1558C82.3164 35.0284 82.759 34.9614 83.2587 34.9614C83.7584 34.9614 84.2009 35.0284 84.5936 35.1558C84.9862 35.2832 85.3146 35.4709 85.5858 35.7123C85.8571 35.9536 86.0641 36.2486 86.2069 36.5972C86.3496 36.9458 86.421 37.3347 86.421 37.7637C86.421 38.2599 86.3282 38.6956 86.1498 39.0577C85.9713 39.4197 85.7143 39.6878 85.3859 39.8622V39.9761H88.3627H88.377ZM78.7328 31.1266H80.2533V29.6852H81.5311V31.1266H84.2938C84.5579 31.1266 84.7578 31.0528 84.8863 30.912C85.0147 30.7713 85.0719 30.5433 85.0719 30.2282C85.0719 30.1075 85.0719 30.007 85.0719 29.9332C85.0719 29.8595 85.0647 29.779 85.0576 29.6852H86.2925C86.314 29.7991 86.3282 29.9332 86.3425 30.0941C86.3568 30.255 86.3639 30.4226 86.3639 30.5969C86.3639 31.0193 86.3354 31.3813 86.2711 31.6763C86.2069 31.9713 86.1069 32.2194 85.9713 32.4071C85.8357 32.5948 85.6644 32.7356 85.4502 32.816C85.236 32.9032 84.9791 32.9434 84.6792 32.9434H81.5311V34.0228H80.2533V32.9434H78.7328V31.1132V31.1266ZM86.3354 65.6398H78.2974V59.6262H79.7322V63.7359H81.6097V59.8541H82.9446V63.7359H84.9005V59.6262H86.3354V65.6398ZM88.5412 56.0126C88.4555 56.388 88.3342 56.7165 88.1771 56.9914C88.0201 57.2663 87.8273 57.4875 87.606 57.6484C87.3847 57.8093 87.142 57.9032 86.8708 57.9367V56.1266C87.0635 56.0796 87.2134 55.9321 87.3205 55.6908C87.4347 55.4427 87.4847 55.1209 87.4847 54.7254C87.4847 54.2293 87.3919 53.8471 87.1991 53.579C87.0135 53.3108 86.7423 53.1767 86.3925 53.1767H85.2575V53.2907C85.5858 53.4851 85.8285 53.76 85.9999 54.1086C86.164 54.4639 86.2497 54.8863 86.2497 55.3757C86.2497 55.8048 86.1783 56.1936 86.0356 56.5422C85.8928 56.8909 85.6858 57.1858 85.4288 57.4272C85.1647 57.6685 84.8434 57.8563 84.4722 57.9836C84.101 58.111 83.6798 58.1781 83.2158 58.1781C82.7518 58.1781 82.3092 58.111 81.9238 57.9836C81.5383 57.8563 81.2099 57.6685 80.9386 57.4205C80.6674 57.1724 80.4604 56.8774 80.3104 56.5221C80.1605 56.1668 80.0892 55.7712 80.0892 55.3355C80.0892 55.1008 80.1177 54.8729 80.1677 54.6651C80.2176 54.4505 80.289 54.2561 80.3818 54.0684C80.4746 53.8874 80.5889 53.7265 80.7245 53.579C80.8601 53.4382 81.01 53.3175 81.1813 53.2236V53.1097H80.1962V51.3331H86.3211C86.678 51.3331 87.0064 51.4135 87.2991 51.5744C87.5918 51.7353 87.8345 51.9633 88.0415 52.2582C88.2485 52.5532 88.4055 52.9153 88.5126 53.3376C88.6197 53.76 88.6768 54.2293 88.6768 54.7589C88.6768 55.2215 88.634 55.6372 88.5483 56.0193L88.5412 56.0126Z" fill="#98A2B3"/>
<path d="M84.6009 37.2605C84.4439 37.1264 84.2511 37.0259 84.0298 36.9521C83.8085 36.8784 83.5516 36.8448 83.266 36.8448C82.9805 36.8448 82.7306 36.8784 82.5093 36.9521C82.288 37.0259 82.0953 37.1264 81.9382 37.2605C81.7812 37.3946 81.6598 37.5622 81.5813 37.7566C81.5028 37.951 81.46 38.1656 81.46 38.4136C81.46 38.6617 81.5028 38.8762 81.5813 39.0706C81.667 39.2651 81.7883 39.4327 81.9382 39.5668C82.0953 39.7008 82.2809 39.8081 82.5093 39.8819C82.7306 39.9556 82.9876 39.9891 83.266 39.9891C83.5444 39.9891 83.8014 39.9556 84.0227 39.8819C84.244 39.8081 84.4367 39.7008 84.5938 39.5668C84.7508 39.4327 84.8722 39.2651 84.9507 39.0706C85.0364 38.8762 85.0792 38.6617 85.0792 38.4136C85.0792 38.1656 85.0364 37.9443 84.9578 37.7499C84.8793 37.5555 84.758 37.3879 84.6009 37.2538V37.2605Z" fill="#98A2B3"/>
<path d="M32.363 54.2354L28.369 58.9031L24.3534 54.2354H20.46L28.369 63.4374L36.235 54.2354H32.363Z" fill="#98A2B3"/>
<path d="M24.1482 71.325L28.3267 66.1546L32.5329 71.325H36.1314L36.235 71.2751L29.8946 63.4732L28.3682 65.363L26.8004 63.4375L20.46 71.2751L20.5567 71.325H24.1482Z" fill="#98A2B3"/>
</svg>
