<svg width="96" height="96" viewBox="0 0 96 96" fill="none" xmlns="http://www.w3.org/2000/svg">
<path d="M69.7704 74.8335H69.7604C69.6903 75.1237 69.6103 75.494 69.5402 75.7742L69.25 76.8149H70.3308L70.0306 75.7742C69.9505 75.484 69.8604 75.1137 69.7804 74.8335H69.7704Z" fill="#98A2B3"/>
<path d="M65.057 76.7349H64.6768V78.1158C64.7868 78.1359 64.9169 78.1358 65.0971 78.1358C65.5974 78.1358 66.0377 77.9457 66.0377 77.4253C66.0377 76.905 65.5974 76.7349 65.047 76.7349H65.057Z" fill="#98A2B3"/>
<path d="M45.8631 67.6283C46.8438 67.6283 47.4042 66.6977 47.4042 65.4468C47.4042 64.286 46.8538 63.2953 45.8531 63.2953C44.8524 63.2953 44.292 64.2259 44.292 65.4768C44.292 66.7277 44.8824 67.6283 45.8531 67.6283H45.8631Z" fill="#98A2B3"/>
<path d="M31.003 54.5892C30.6528 54.5892 30.4526 54.6092 30.3525 54.6393V56.4105H30.9229C31.6435 56.4105 32.0738 56.0403 32.0738 55.4799C32.0738 54.8894 31.6735 54.5892 31.003 54.5892Z" fill="#98A2B3"/>
<path d="M62.3145 65.1066H62.8849C63.6054 65.1066 64.0357 64.7363 64.0357 64.1759C64.0357 63.5855 63.6354 63.2853 62.9649 63.2853C62.6147 63.2853 62.4145 63.3053 62.3145 63.3353V65.1066Z" fill="#98A2B3"/>
<path d="M54.9797 56.1002H55.4501C56.2206 56.1002 56.6209 55.7799 56.6209 55.2996C56.6209 54.8193 56.2506 54.5491 55.5902 54.5491C55.2699 54.5491 55.0898 54.5691 54.9697 54.5991V56.1002H54.9797Z" fill="#98A2B3"/>
<path d="M47.314 45.9031C46.3233 45.9031 45.7529 46.8337 45.7529 48.0846C45.7529 49.3355 46.3433 50.2361 47.314 50.2361C48.2847 50.2361 48.8551 49.3055 48.8551 48.0546C48.8551 46.8938 48.3047 45.9031 47.304 45.9031H47.314Z" fill="#98A2B3"/>
<path d="M49.6758 54.6393H49.6558C49.5658 55.0195 49.4657 55.5099 49.3656 55.8802L48.9854 57.2411H50.4064L50.0061 55.8701C49.896 55.4899 49.7859 55.0095 49.6858 54.6293L49.6758 54.6393Z" fill="#98A2B3"/>
<path d="M65.9276 75.3338C65.9276 74.9636 65.6474 74.7634 65.1471 74.7634C64.9069 74.7634 64.7668 74.7834 64.6768 74.7934V75.9342H65.037C65.6274 75.9342 65.9276 75.6941 65.9276 75.3238V75.3338Z" fill="#98A2B3"/>
<path d="M55.4798 57.141H54.9795V58.9523C55.1196 58.9723 55.2897 58.9823 55.5399 58.9823C56.2004 58.9823 56.7808 58.7221 56.7808 58.0516C56.7808 57.3812 56.2004 57.151 55.4798 57.151V57.141Z" fill="#98A2B3"/>
<path d="M70.9106 37.3569C72.0014 37.447 72.902 36.8966 73.2623 35.9059C73.4224 35.4556 73.4724 34.9953 73.3923 34.5149C73.2422 33.6043 72.7719 32.9438 71.8813 32.6636C70.9506 32.3834 70.12 32.5836 69.4696 33.3341C69.0693 33.7944 68.9192 34.3448 68.9092 35.0353C68.9192 35.1354 68.9392 35.3355 68.9692 35.5357C69.1494 36.5264 69.9399 37.2569 70.9106 37.3369V37.3569Z" fill="#98A2B3"/>
<path d="M33.1038 64.7965H33.5741C34.3446 64.7965 34.7449 64.4762 34.7449 63.9959C34.7449 63.5156 34.3747 63.2454 33.7142 63.2454C33.394 63.2454 33.2138 63.2654 33.0938 63.2954V64.7965H33.1038Z" fill="#98A2B3"/>
<path d="M63.6658 26.8495C64.1962 26.8495 64.4964 26.179 64.4964 24.8481C64.4964 23.5172 64.2162 22.8667 63.6658 22.8667C63.1654 22.8667 62.8252 23.4971 62.8252 24.8581C62.8252 26.2091 63.1454 26.8395 63.6758 26.8395L63.6658 26.8495Z" fill="#98A2B3"/>
<path d="M74.3134 13.2H22.887C17.5433 13.2 13.2002 17.543 13.2002 22.8868V74.3031C13.2002 79.6569 17.5433 83.9899 22.887 83.9899H74.3034C79.6571 83.9899 83.9902 79.6469 83.9902 74.3031V22.8868C83.9902 17.533 79.6471 13.2 74.3034 13.2H74.3134ZM73.0325 25.1784H72.4721V24.1977H73.0024C73.4628 24.1977 74.0432 24.0176 74.0432 23.5272C74.0432 23.177 73.763 22.9168 73.1826 22.9168C72.7022 22.9168 72.2019 23.127 71.9617 23.2671L71.6815 22.2764C72.0317 22.0462 72.7322 21.8361 73.4928 21.8361C74.7437 21.8361 75.4342 22.4965 75.4342 23.2971C75.4342 23.9075 75.0839 24.4079 74.3634 24.658V24.6781C75.0639 24.8082 75.6343 25.3385 75.6343 26.1091C75.6343 27.1398 74.7236 27.9003 73.2426 27.9003C72.4821 27.9003 71.8416 27.7002 71.5014 27.49L71.7816 26.4593C72.0217 26.5894 72.5821 26.8196 73.1425 26.8196C73.853 26.8196 74.2133 26.4793 74.2133 26.039C74.2133 25.4586 73.6329 25.1984 73.0325 25.1984V25.1784ZM75.5242 34.9453C75.5742 36.9267 74.0632 39.3084 71.1211 39.3184C68.6293 39.3284 66.8081 37.2169 66.8081 34.9453C66.8081 32.3535 69.0296 30.5522 71.1311 30.5722C73.4427 30.6022 75.5542 32.4235 75.5242 34.9453ZM66.5379 26.9597L67.2884 26.2792C68.5693 25.1284 69.1897 24.4779 69.1997 23.7874C69.1997 23.3071 68.9195 22.9368 68.2391 22.9368C67.7387 22.9368 67.2984 23.187 66.9882 23.4172L66.6079 22.4365C67.0482 22.1062 67.7287 21.8361 68.5193 21.8361C69.8502 21.8361 70.5707 22.6066 70.5707 23.6673C70.5707 24.648 69.8702 25.4386 69.0096 26.1891L68.4692 26.6394V26.6595H70.6808V27.7903H66.5279V26.9597H66.5379ZM63.6758 21.826C65.2369 21.826 65.8574 23.227 65.8574 24.8282C65.8574 26.6294 65.1269 27.8803 63.6358 27.8803C62.1448 27.8803 61.4543 26.5194 61.4443 24.8682C61.4443 23.167 62.1548 21.826 63.6758 21.826ZM64.6165 31.1126C65.1469 31.3828 65.5972 31.7531 65.9675 32.2234C66.0275 32.2934 66.0775 32.3735 66.1576 32.4936C65.5572 32.8238 64.9968 33.134 64.4264 33.4442C64.3163 33.3442 64.2062 33.2641 64.1061 33.1641C63.1455 32.2634 61.2942 32.3635 60.4536 33.2241C59.703 33.9846 59.5429 34.8953 59.8732 35.856C60.2034 36.8266 60.9739 37.297 61.9746 37.377C62.8653 37.4471 63.6758 37.2269 64.3063 36.5464C64.3363 36.5164 64.3663 36.4964 64.4264 36.4464C64.9668 36.8166 65.4971 37.1769 66.0475 37.5672C65.9775 37.6672 65.9174 37.7473 65.8574 37.8173C65.0968 38.688 64.1262 39.1483 62.9854 39.2784C62.1648 39.3784 61.3642 39.3184 60.5737 39.0882C58.9925 38.6079 57.8117 37.1469 57.6316 35.5057C57.3714 33.1741 58.9125 31.0626 61.3942 30.6623C62.505 30.4822 63.5858 30.5822 64.6065 31.1126H64.6165ZM56.5408 26.9597L57.2913 26.2792C58.5722 25.1284 59.1927 24.4779 59.2027 23.7874C59.2027 23.3071 58.9225 22.9368 58.242 22.9368C57.7417 22.9368 57.3013 23.187 56.9911 23.4172L56.6109 22.4365C57.0512 22.1062 57.7316 21.8361 58.5222 21.8361C59.8531 21.8361 60.5737 22.6066 60.5737 23.6673C60.5737 24.648 59.8732 25.4386 59.0126 26.1891L58.4722 26.6394V26.6595H60.6837V27.7903H56.5308V26.9597H56.5408ZM55.5901 36.9167C56.2706 36.9367 56.781 37.4571 56.781 38.1276C56.781 38.788 56.2306 39.3484 55.5801 39.3284C54.7595 39.3084 54.3493 38.6279 54.3693 38.0875C54.3893 37.4271 54.9297 36.8867 55.5901 36.9067V36.9167ZM50.8068 35.4857C50.8068 35.7159 50.8268 35.956 50.8668 36.1862C50.9469 36.5865 51.197 36.8066 51.5973 36.8266C51.9576 36.8567 52.3278 36.8366 52.6881 36.8467C52.7982 36.8467 52.9182 36.8467 53.0483 36.8467V39.2083H43.4716C43.4516 38.4378 43.4716 37.6772 43.4716 36.8767C43.5817 36.8667 43.6717 36.8467 43.7618 36.8467C44.132 36.8467 44.5123 36.8467 44.8826 36.8467C45.513 36.8266 45.7632 36.6065 45.8533 35.976C45.8733 35.8359 45.8833 35.6958 45.8833 35.5657C45.8833 33.5243 45.8833 31.4829 45.8833 29.4314C45.8833 29.2513 45.8633 29.0712 45.8332 28.891C45.7532 28.3907 45.483 28.1405 44.9626 28.1205C44.5924 28.1005 44.2121 28.1205 43.8418 28.1205C43.7318 28.1205 43.6117 28.1205 43.4816 28.1205V25.7888C43.7218 25.7188 50.0662 25.6888 50.7667 25.7588C50.7667 25.8789 50.7867 25.999 50.7867 26.1191C50.7867 28.4407 50.7867 30.7624 50.7867 33.084C50.7867 33.8846 50.7867 34.6851 50.7867 35.4957L50.8068 35.4857ZM48.2449 19.4644C49.706 19.4744 50.8068 20.5952 50.7967 22.0662C50.7967 23.5072 49.676 24.608 48.2149 24.598C46.7539 24.598 45.6531 23.4772 45.6531 21.9962C45.6531 20.5551 46.7939 19.4444 48.2449 19.4544V19.4644ZM34.9656 34.0547C34.9856 31.0926 34.9656 28.1305 34.9656 25.1684C34.9656 24.3879 35.0056 23.6073 35.1757 22.8368C35.2057 22.7167 35.2358 22.5866 35.2658 22.4665C35.7661 20.6552 36.947 19.5845 38.7883 19.2342C40.1192 18.984 41.4501 19.0041 42.7611 19.3743C43.2914 19.5244 43.7918 19.7346 44.2421 20.0648C45.0827 20.6652 45.473 21.4858 45.4129 22.5265C45.3529 23.4472 44.6824 24.3278 43.8318 24.548C42.5609 24.8682 41.1199 23.9475 41.3401 22.3864C41.4201 21.8461 41.7103 21.4658 42.2507 21.2957C42.3007 21.2757 42.3508 21.2656 42.4008 21.2456C42.4008 21.2456 42.4208 21.2356 42.4509 21.2056C41.9605 21.0755 41.4802 21.0055 40.9898 21.0955C40.5495 21.1856 40.2393 21.4658 40.0992 21.8861C39.9991 22.1963 39.9191 22.5265 39.9091 22.8568C39.879 23.7774 39.889 24.6981 39.889 25.6187C39.889 25.6487 39.8991 25.6788 39.9191 25.7588H42.2607V28.1105C42.1907 28.1105 42.1006 28.1405 42.0205 28.1405C41.6503 28.1405 41.27 28.1405 40.8998 28.1405C40.2193 28.1505 39.889 28.4707 39.889 29.1512C39.889 30.192 39.889 31.2227 39.889 32.2634C39.889 33.3742 39.889 34.485 39.889 35.6058C39.889 35.8159 39.9091 36.0361 39.9591 36.2362C40.0492 36.6165 40.2793 36.8266 40.6796 36.8567C41.0699 36.8867 41.4702 36.8767 41.8704 36.8767C42.0005 36.8767 42.1206 36.8767 42.2707 36.8767V39.2283H32.9642C32.9642 39.2283 32.9241 39.1683 32.9041 39.1483C32.9541 39.1283 33.0142 39.1183 33.0542 39.0882C34.0549 38.2476 34.5953 37.1569 34.8155 35.896C34.9255 35.2956 34.9756 34.6851 34.9856 34.0847L34.9656 34.0547ZM21.0257 30.0719C21.5961 27.8903 22.9571 26.3592 25.0686 25.5387C27.08 24.7581 29.1214 24.7781 31.1429 25.5387C31.8634 25.8089 32.5038 26.2091 33.0342 26.7795C34.0649 27.9003 34.4152 29.2313 34.0449 30.7023C33.7147 32.0633 32.5739 32.8138 31.1729 32.6437C30.8326 32.6037 30.4924 32.5436 30.1822 32.4235C29.4217 32.1333 29.0114 31.5529 28.9613 30.7423C28.9513 30.5022 28.9513 30.242 28.9913 30.0118C29.1615 29.1012 29.862 28.4908 30.8126 28.3807C30.9127 28.3707 31.0128 28.3607 31.1729 28.3406C31.0828 28.2406 31.0228 28.1605 30.9527 28.1005C30.2022 27.5001 29.3516 27.2499 28.4009 27.42C27.8005 27.5301 27.3502 27.8803 26.9899 28.3507C26.5796 28.891 26.3295 29.5015 26.1994 30.1519C25.8591 31.7931 25.8892 33.4242 26.2894 35.0454C26.3795 35.3956 26.5396 35.7359 26.7197 36.0461C27.09 36.6765 27.6604 37.0168 28.3909 37.1168C28.7412 37.1669 29.0914 37.1669 29.4417 37.0768C30.0921 36.9067 30.5424 36.4764 30.8427 35.896C31.0628 35.4657 31.1829 34.9953 31.2529 34.525C31.4831 34.455 33.6046 34.4349 34.155 34.495C34.155 34.535 34.185 34.5851 34.185 34.6351C34.125 35.8159 33.8148 36.9067 33.0442 37.8374C32.4138 38.5879 31.6032 39.0782 30.6625 39.3384C28.6811 39.8988 26.7097 39.8488 24.7784 39.1283C22.9871 38.4478 21.7963 37.1669 21.2058 35.3456C20.6455 33.6144 20.5854 31.8531 21.0457 30.0919L21.0257 30.0719ZM26.3495 78.8964H25.1486L24.7283 76.7849C24.6283 76.2945 24.5582 75.8342 24.4882 75.2738H24.4782C24.3981 75.8242 24.318 76.2945 24.198 76.7849L23.7276 78.8863H22.5168L21.356 73.9829H22.5468L22.9171 76.0043C23.0171 76.5847 23.1272 77.2252 23.1973 77.7155H23.2173C23.2973 77.1851 23.4174 76.5947 23.5375 75.9843L23.9578 73.9829H25.1386L25.5289 76.0543C25.629 76.6247 25.719 77.1451 25.7891 77.6955H25.8091C25.8892 77.1451 25.9892 76.5847 26.0993 75.9943L26.4996 73.9929H27.6204L26.3595 78.8964H26.3495ZM29.3016 78.8964H28.1908V73.9929H29.3016V78.8964ZM34.3251 78.8964H33.1643L32.1136 77.005C31.8233 76.4746 31.5031 75.8442 31.263 75.2738H31.2429C31.273 75.9243 31.293 76.6147 31.293 77.4153V78.8863H30.2723V73.9829H31.5632L32.5839 75.7842C32.8741 76.2945 33.1643 76.915 33.3845 77.4653H33.4045C33.3344 76.8149 33.3144 76.1544 33.3144 75.4139V73.9829H34.3351V78.8863L34.3251 78.8964ZM39.3387 78.8964H38.1778L37.1271 77.005C36.8369 76.4746 36.5167 75.8442 36.2765 75.2738H36.2565C36.2865 75.9243 36.3065 76.6147 36.3065 77.4153V78.8863H35.2858V73.9829H36.5767L37.5974 75.7842C37.8876 76.2945 38.1778 76.915 38.398 77.4653H38.418C38.348 76.8149 38.3279 76.1544 38.3279 75.4139V73.9829H39.3487V78.8863L39.3387 78.8964ZM43.4215 78.8964H40.2993V73.9929H43.3215V74.9035H41.4101V75.9243H43.2114V76.8249H41.4101V77.9857H43.4215V78.8964ZM46.7439 78.8964C46.6638 78.7563 46.5437 78.356 46.4036 77.7555C46.2635 77.1451 46.0634 76.975 45.6031 76.975H45.2728V78.8964H44.1721V74.0629C44.5323 74.0029 45.0527 73.9529 45.6431 73.9529C46.3736 73.9529 46.874 74.0629 47.2242 74.3431C47.5144 74.5733 47.6745 74.9235 47.6745 75.3739C47.6745 75.9943 47.2342 76.4246 46.8139 76.5747V76.5947C47.1542 76.7348 47.3443 77.0551 47.4644 77.5054C47.6145 78.0558 47.7646 78.6962 47.8547 78.8863H46.7239L46.7439 78.8964ZM54.0591 78.6762C53.7188 78.7963 53.0684 78.9564 52.4279 78.9564C51.5373 78.9564 50.8868 78.7362 50.4365 78.2959C49.9862 77.8756 49.736 77.2352 49.746 76.5147C49.746 74.8835 50.9368 73.9629 52.548 73.9629C53.1784 73.9629 53.6688 74.083 53.9089 74.193L53.6788 75.0837C53.4086 74.9636 53.0784 74.8735 52.538 74.8735C51.6173 74.8735 50.9168 75.3939 50.9168 76.4546C50.9168 77.5154 51.5573 78.0558 52.4579 78.0558C52.7081 78.0558 52.9082 78.0257 52.9983 77.9857V76.955H52.2378V76.0944H54.0691V78.6762H54.0591ZM57.9818 78.8964H54.9297V73.9929H56.0405V77.9657H57.9918V78.8964H57.9818ZM60.4436 78.9764C58.9925 78.9764 58.1319 77.8756 58.1319 76.4746C58.1319 75.0737 59.0726 73.9128 60.5136 73.9128C61.9546 73.9128 62.8353 75.0336 62.8353 76.3946C62.8353 78.0057 61.8646 78.9764 60.4336 78.9764H60.4436ZM66.698 78.5061C66.3377 78.7963 65.7473 78.9564 64.7766 78.9564C64.2362 78.9564 63.826 78.9164 63.5758 78.8863V74.0729C63.866 74.0129 64.4464 73.9629 65.0068 73.9629C65.6773 73.9629 66.0976 74.0329 66.4578 74.2331C66.7981 74.4132 67.0382 74.7534 67.0382 75.1937C67.0382 75.634 66.788 76.0343 66.2377 76.2345V76.2545C66.798 76.4046 67.2083 76.8249 67.2083 77.4553C67.2083 77.9057 66.9982 78.2559 66.698 78.4961V78.5061ZM70.8609 78.8964L70.4807 77.6355H69.0697L68.7194 78.8964H67.5786L69.0697 73.9929H70.5207L72.0418 78.8964H70.8509H70.8609ZM75.7644 78.8964H72.7122V73.9929H73.823V77.9657H75.7744V78.8964H75.7644ZM48.1049 71.8714L21.426 71.2109L48.1049 70.5505L75.7844 71.2109L48.1049 71.8714ZM33.2444 58.1717C33.4445 58.9022 33.6346 59.7428 33.7647 59.983H32.2737C32.1736 59.7929 32.0135 59.2825 31.8334 58.4819C31.6532 57.6814 31.383 57.4612 30.7826 57.4512H30.3523V59.973H28.9113V53.6285C29.3816 53.5485 30.0721 53.4884 30.8427 53.4884C31.7933 53.4884 32.4638 53.6385 32.9241 53.9988C33.3044 54.299 33.5245 54.7593 33.5245 55.3497C33.5245 56.1603 32.9441 56.7307 32.3837 56.9308V56.9609C32.8341 57.141 33.0842 57.5713 33.2444 58.1617V58.1717ZM52.9783 48.5849C51.9075 48.2047 51.207 47.6243 51.207 46.6836C51.207 45.5828 52.1277 44.7522 53.6388 44.7522C54.3693 44.7522 54.8996 44.9023 55.2799 45.0725L54.9597 46.2433C54.6995 46.1232 54.2392 45.9331 53.6187 45.9331C52.9983 45.9331 52.6781 46.2233 52.6781 46.5535C52.6781 46.9638 53.0383 47.1439 53.8689 47.4541C55.0097 47.8844 55.5401 48.4749 55.5401 49.3855C55.5401 50.4563 54.7195 51.3769 52.9483 51.3769C52.2178 51.3769 51.4872 51.1768 51.127 50.9766L51.4172 49.7758C51.7975 49.9859 52.4079 50.1761 53.0283 50.1761C53.6988 50.1761 54.049 49.8959 54.049 49.4756C54.049 49.0853 53.7388 48.8451 52.9683 48.5749L52.9783 48.5849ZM68.0189 56.0802V57.2611H65.6472V58.7922H68.2991V59.983H64.1962V53.5485H68.159V54.7393H65.6472V56.0802H68.0189ZM64.8867 62.7049C65.267 63.0051 65.4871 63.4655 65.4871 64.0559C65.4871 64.8664 64.9067 65.4368 64.3463 65.637V65.667C64.7966 65.8471 65.0468 66.2774 65.2069 66.8679C65.4071 67.5984 65.5972 68.439 65.7273 68.6791H64.2362C64.1362 68.489 63.9761 67.9786 63.7959 67.1781C63.6158 66.3775 63.3456 66.1574 62.7452 66.1473H62.3149V68.6691H60.8739V62.3246C61.3442 62.2446 62.0347 62.1846 62.8052 62.1846C63.7559 62.1846 64.4264 62.3347 64.8867 62.6949V62.7049ZM63.3256 59.983H59.3128V53.5485H60.7638V58.7621H63.3256V59.983ZM59.593 64.7864V65.9672H57.2213V67.4983H59.8732V68.6891H55.7703V62.2546H59.7331V63.4454H57.2213V64.7864H59.593ZM60.9839 46.0732H59.2227V51.2869H57.7717V46.0732H56.0405V44.8523H60.9939V46.0732H60.9839ZM57.3214 53.8587C57.7717 54.0988 58.0919 54.5392 58.0919 55.1296C58.0919 55.72 57.7617 56.2303 57.0312 56.5005V56.5205C57.7617 56.7107 58.3121 57.2711 58.3121 58.1017C58.3121 58.6921 58.0419 59.1524 57.6416 59.4726C57.1713 59.8529 56.3907 60.0631 55.1098 60.0631C54.3893 60.0631 53.8589 60.013 53.5387 59.973V53.6585C53.919 53.5885 54.6895 53.5184 55.42 53.5184C56.3106 53.5184 56.851 53.6085 57.3214 53.8787V53.8587ZM51.3772 65.0966C51.5173 64.8564 51.6674 64.6163 51.8175 64.3961L53.2785 62.2546H55.0698L52.9383 64.9965L55.1798 68.6891H53.4886L51.9075 65.9172L51.3571 66.5877V68.6891H49.9161V62.2546H51.3571V65.0966H51.3772ZM52.6781 59.983H51.107L50.6166 58.3318H48.7653L48.315 59.983H46.8139L48.7753 53.5485H50.6767L52.6781 59.983ZM47.2442 51.3969C45.3329 51.3969 44.2121 49.9559 44.2121 48.1146C44.2121 46.2733 45.453 44.7522 47.3443 44.7522C49.2356 44.7522 50.3965 46.2333 50.3965 48.0145C50.3965 50.126 49.1256 51.3969 47.2442 51.3969ZM46.0034 53.5485V59.983H44.5523V53.5485H46.0034ZM45.8933 62.1445C47.8647 62.1445 48.9454 63.6256 48.9454 65.4068C48.9454 67.5183 47.6745 68.7892 45.7932 68.7892C43.9119 68.7892 42.7611 67.3482 42.7611 65.5069C42.7611 63.6656 44.0019 62.1445 45.8933 62.1445ZM43.6817 59.983H39.6689V53.5485H41.1199V58.7621H43.6817V59.983ZM41.7704 66.8679C41.9705 67.5984 42.1607 68.439 42.2907 68.6791H40.7997C40.6996 68.489 40.5395 67.9786 40.3594 67.1781C40.1793 66.3775 39.9091 66.1574 39.3086 66.1473H38.8783V68.6691H37.4373V62.3246C37.9076 62.2446 38.5981 62.1846 39.3687 62.1846C40.3193 62.1846 40.9898 62.3347 41.4501 62.6949C41.8304 62.9951 42.0506 63.4554 42.0506 64.0459C42.0506 64.8564 41.4702 65.4268 40.9098 65.627V65.657C41.3601 65.8371 41.6103 66.2674 41.7704 66.8578V66.8679ZM41.9805 51.2869L41.8805 48.8251C41.8504 48.0446 41.8204 47.1139 41.8204 46.1732H41.7904C41.5902 46.9938 41.31 47.9145 41.0699 48.675L40.2793 51.1868H39.1485L38.458 48.705C38.2479 47.9445 38.0377 47.0338 37.8776 46.1832H37.8576C37.8276 47.0539 37.7876 48.0546 37.7475 48.8551L37.6274 51.2969H36.2765L36.6868 44.8623H38.6282L39.2586 47.0138C39.4587 47.7544 39.6589 48.5649 39.799 49.3155H39.829C40.0091 48.5749 40.2193 47.7243 40.4394 47.0038L41.1199 44.8623H43.0213L43.3615 51.2969H41.9505L41.9805 51.2869ZM38.5381 53.5485V54.7393H36.0263V56.0802H38.398V57.2611H36.0263V58.7922H38.6782V59.983H34.5753V53.5485H38.5381ZM35.4459 62.5648C35.8962 62.805 36.2165 63.2453 36.2165 63.8357C36.2165 64.4261 35.8862 64.9365 35.1557 65.2067V65.2267C35.8862 65.4168 36.4366 65.9772 36.4366 66.8078C36.4366 67.3982 36.1664 67.8586 35.7661 68.1788C35.2958 68.559 34.5153 68.7692 33.2343 68.7692C32.5138 68.7692 31.9835 68.7192 31.6632 68.6791V62.3647C32.0435 62.2946 32.814 62.2246 33.5446 62.2246C34.4352 62.2246 34.9756 62.3146 35.4459 62.5848V62.5648ZM48.1049 42.7108L21.426 42.0503L48.1049 41.3899L75.7844 42.0503L48.1049 42.7108Z" fill="#98A2B3"/>
<path d="M33.6048 65.8372H33.1045V67.6484C33.2446 67.6685 33.4147 67.6785 33.6649 67.6785C34.3254 67.6785 34.9058 67.4183 34.9058 66.7478C34.9058 66.0773 34.3254 65.8472 33.6048 65.8472V65.8372Z" fill="#98A2B3"/>
<path d="M60.4936 74.8035C59.743 74.8035 59.3027 75.514 59.3027 76.4646C59.3027 77.4153 59.7531 78.0958 60.4936 78.0958C61.2341 78.0958 61.6744 77.3853 61.6744 76.4346C61.6744 75.554 61.2541 74.7935 60.4936 74.7935V74.8035Z" fill="#98A2B3"/>
<path d="M45.7826 74.7935C45.5124 74.7935 45.3623 74.8135 45.2822 74.8335V76.1844H45.7125C46.2629 76.1844 46.5932 75.9042 46.5932 75.4739C46.5932 75.0236 46.2829 74.7935 45.7826 74.7935Z" fill="#98A2B3"/>
<path d="M39.5284 63.2853C39.1781 63.2853 38.978 63.3053 38.8779 63.3353V65.1066H39.4483C40.1688 65.1066 40.5991 64.7363 40.5991 64.1759C40.5991 63.5855 40.1989 63.2853 39.5284 63.2853Z" fill="#98A2B3"/>
</svg>
