<svg width="96" height="96" viewBox="0 0 96 96" fill="none" xmlns="http://www.w3.org/2000/svg">
<path d="M60.919 27.067C60.9739 27.3143 61.1571 27.4334 61.4136 27.4517C61.6609 27.47 61.8624 27.3509 61.9631 27.0945C62.0089 26.9754 62.0547 26.8563 62.073 26.7281C62.1097 26.3801 62.1371 26.032 62.1646 25.684C62.1555 25.684 62.1371 25.684 62.128 25.684C62.128 25.4459 62.1463 25.2169 62.128 24.9787C62.1005 24.7315 62.0547 24.475 61.9906 24.2369C61.9265 23.9896 61.7525 23.8705 61.496 23.8522C61.2487 23.8339 61.0564 23.9621 60.9465 24.2094C60.9098 24.301 60.8732 24.3926 60.8549 24.4842C60.7541 25.0154 60.7266 25.5466 60.7724 26.087C60.7999 26.4167 60.8549 26.7464 60.919 27.067Z" fill="#98A2B3"/>
<path d="M46.0163 71.3875C45.8056 71.3325 45.5766 71.2959 45.3477 71.3692V72.3217C45.6774 72.3767 45.8789 72.3583 46.0346 72.2851C46.2361 72.1843 46.3094 72.0195 46.3094 71.8088C46.3094 71.5981 46.1994 71.4241 46.0163 71.3783V71.3875Z" fill="#98A2B3"/>
<path d="M59.8281 71.3875C59.2419 71.1311 58.6191 71.415 58.4543 72.0287C58.3993 72.2576 58.381 72.4866 58.3535 72.7247C58.3535 72.7247 58.3627 72.7247 58.3718 72.7247C58.3718 72.8621 58.381 72.9995 58.3993 73.1369C58.4085 73.2376 58.4268 73.3292 58.4543 73.4208C58.5642 73.8513 58.8206 74.0803 59.2236 74.1078C59.7274 74.1535 60.0846 73.9704 60.2403 73.5399C60.4509 72.972 60.4326 72.3859 60.2403 71.8088C60.1762 71.6073 60.0296 71.4608 59.8281 71.3692V71.3875Z" fill="#98A2B3"/>
<path d="M63.9405 73.1002C63.7206 73.0727 63.5008 73.1002 63.2627 73.1002V74.0894C63.4825 74.0894 63.7023 74.1077 63.9038 74.0894C64.2061 74.0619 64.3526 73.8879 64.3618 73.6223C64.3618 73.3475 64.2244 73.1552 63.9405 73.1094V73.1002Z" fill="#98A2B3"/>
<path d="M63.7939 72.2209C64.0229 72.1843 64.142 72.0103 64.142 71.7538C64.142 71.5157 64.0412 71.3966 63.7939 71.36C63.6199 71.3325 63.4459 71.3417 63.2627 71.3325V72.2301C63.4642 72.2301 63.6291 72.2484 63.7939 72.2301V72.2209Z" fill="#98A2B3"/>
<path d="M67.7514 71.8088C67.614 72.221 67.4858 72.6331 67.3301 73.0911C67.669 73.0911 67.9437 73.1186 68.2368 73.0728C68.0903 72.624 67.9529 72.2118 67.8155 71.8088C67.7972 71.8088 67.7789 71.8088 67.7514 71.8088Z" fill="#98A2B3"/>
<path d="M69.7388 33.4142C68.887 33.1578 68.1268 33.341 67.5315 34.0279C67.1651 34.4492 67.0277 34.953 67.0186 35.5849C67.0277 35.6765 67.046 35.8597 67.0735 36.0429C67.2384 36.9496 67.9619 37.6182 68.8504 37.6915C69.8487 37.7739 70.673 37.2702 71.0027 36.3634C71.1493 35.9513 71.1951 35.53 71.1218 35.0903C70.9844 34.2569 70.5539 33.6524 69.7388 33.3959V33.4142Z" fill="#98A2B3"/>
<path d="M40.4843 45.6782C40.6033 45.6324 40.7041 45.5683 40.7774 45.4858C40.8598 45.4034 40.9148 45.3118 40.9514 45.2019C40.988 45.092 41.0063 44.9729 41.0063 44.8539C41.0063 44.7165 40.988 44.5974 40.9422 44.4875C40.8964 44.3776 40.8415 44.286 40.7499 44.2219C40.6675 44.1486 40.5575 44.0937 40.4385 44.057C40.3103 44.0204 40.1454 44.0021 39.9256 44.0021H39.2295V45.7514H39.9988C40.2003 45.7514 40.3561 45.724 40.4751 45.6782H40.4843Z" fill="#98A2B3"/>
<path d="M41.0527 47.0062C40.952 46.9238 40.8238 46.8597 40.6681 46.8139C40.5124 46.7681 40.3109 46.7498 40.0544 46.7498H39.2393V48.6732H40.2284C40.4208 48.6732 40.5765 48.6548 40.7139 48.609C40.8421 48.5724 40.9612 48.5083 41.0527 48.435C41.1443 48.3526 41.2268 48.261 41.2817 48.1419C41.3367 48.0229 41.3641 47.8946 41.3641 47.7389C41.3641 47.5832 41.3367 47.4458 41.2817 47.3176C41.2268 47.1986 41.1535 47.0886 41.0527 47.0062Z" fill="#98A2B3"/>
<path d="M52.5838 64.6098C52.712 64.8205 52.8952 64.9762 53.115 65.0861C53.3348 65.196 53.6187 65.251 53.9576 65.251C54.2965 65.251 54.5804 65.1868 54.8002 65.0586C55.0292 64.9304 55.2124 64.7655 55.3498 64.5457C55.4872 64.3259 55.5879 64.0786 55.6429 63.7947C55.6978 63.5107 55.7253 63.1993 55.7253 62.8788C55.7253 62.5216 55.6978 62.201 55.6429 61.9079C55.5879 61.6148 55.4963 61.3675 55.3589 61.1569C55.2216 60.9462 55.0475 60.7905 54.8277 60.6806C54.6079 60.5707 54.324 60.5066 53.9942 60.5066C53.6645 60.5066 53.3714 60.5707 53.1516 60.6989C52.9226 60.8272 52.7395 60.992 52.6021 61.2118C52.4647 61.4225 52.3639 61.6698 52.309 61.9537C52.254 62.2376 52.2266 62.5399 52.2266 62.8513C52.2266 63.2177 52.254 63.5474 52.309 63.8405C52.3639 64.1336 52.4555 64.39 52.5929 64.5915L52.5838 64.6098Z" fill="#98A2B3"/>
<path d="M47.9497 62.7688C48.0962 62.7047 48.2153 62.6223 48.3161 62.5216C48.4076 62.4116 48.4809 62.2926 48.5267 62.1369C48.5725 61.9903 48.6 61.8255 48.6 61.6514C48.6 61.4133 48.5542 61.221 48.4718 61.0653C48.3893 60.9096 48.2886 60.7997 48.1604 60.7264C48.0413 60.6531 47.9131 60.6073 47.7757 60.589C47.6383 60.5707 47.5009 60.5615 47.3635 60.5615H46.7773V62.8513H47.391C47.6108 62.8513 47.794 62.8238 47.9405 62.7597L47.9497 62.7688Z" fill="#98A2B3"/>
<path d="M50.7972 55.5242C50.8521 55.2402 50.8796 54.9288 50.8796 54.6083C50.8796 54.2511 50.8521 53.9305 50.7972 53.6374C50.7422 53.3443 50.6506 53.097 50.5132 52.8864C50.3759 52.6757 50.2018 52.52 49.982 52.4101C49.7622 52.3002 49.4783 52.2361 49.1485 52.2361C48.8188 52.2361 48.5257 52.3002 48.3059 52.4284C48.0769 52.5566 47.8938 52.7215 47.7564 52.9413C47.619 53.152 47.5182 53.3993 47.4633 53.6832C47.4083 53.9671 47.3809 54.2694 47.3809 54.5808C47.3809 54.9472 47.4083 55.2769 47.4633 55.57C47.5182 55.8631 47.6098 56.1195 47.7472 56.321C47.8754 56.5317 48.0586 56.6874 48.2784 56.7973C48.4983 56.9072 48.7822 56.9621 49.1211 56.9621C49.46 56.9621 49.7439 56.898 49.9637 56.7698C50.1927 56.6416 50.3759 56.4767 50.5132 56.2569C50.6506 56.0371 50.7514 55.7898 50.8063 55.5059L50.7972 55.5242Z" fill="#98A2B3"/>
<path d="M42.2612 62.7688C42.4078 62.7047 42.5268 62.6223 42.6276 62.5216C42.7192 62.4116 42.7924 62.2926 42.8382 62.1369C42.884 61.9903 42.9115 61.8255 42.9115 61.6514C42.9115 61.4133 42.8657 61.221 42.7833 61.0653C42.7009 60.9096 42.6001 60.7997 42.4719 60.7264C42.3528 60.6531 42.2246 60.6073 42.0872 60.589C41.9498 60.5707 41.8124 60.5615 41.675 60.5615H41.0889V62.8513H41.7025C41.9223 62.8513 42.1055 62.8238 42.2521 62.7597L42.2612 62.7688Z" fill="#98A2B3"/>
<path d="M60.9088 62.4026C61.0554 62.3568 61.1744 62.2927 61.2752 62.2011C61.3759 62.1187 61.4492 62.0179 61.495 61.8989C61.5408 61.7798 61.5683 61.6516 61.5683 61.505C61.5683 61.2852 61.5225 61.0929 61.4217 60.9372C61.321 60.7815 61.1561 60.6807 60.9271 60.6166C60.8539 60.5983 60.7806 60.5891 60.689 60.5708C60.5974 60.5616 60.4783 60.5525 60.3226 60.5525H59.709V62.4667H60.4051C60.5974 62.4667 60.7714 62.4392 60.918 62.3935L60.9088 62.4026Z" fill="#98A2B3"/>
<path d="M70.6273 52.3459C70.5541 52.3275 70.4808 52.3184 70.3892 52.3001C70.2976 52.2909 70.1785 52.2817 70.0228 52.2817H69.4092V54.196H70.1053C70.2976 54.196 70.4716 54.1685 70.6182 54.1227C70.7647 54.0769 70.8838 54.0128 70.9845 53.9212C71.0853 53.8388 71.1585 53.738 71.2043 53.619C71.2501 53.4999 71.2776 53.3717 71.2776 53.2251C71.2776 53.0053 71.2318 52.813 71.1311 52.6573C71.0303 52.5016 70.8655 52.4008 70.6365 52.3367L70.6273 52.3459Z" fill="#98A2B3"/>
<path d="M71.2406 15.6H24.7586C19.7212 15.6 15.5996 19.7215 15.5996 24.759V71.241C15.5996 76.2784 19.7212 80.4 24.7586 80.4H71.2406C76.2781 80.4 80.3996 76.2784 80.3996 71.241V24.759C80.3996 19.7215 76.2781 15.6 71.2406 15.6ZM68.5937 27.3785C68.6211 27.3235 68.6578 27.296 68.7036 27.296C68.731 27.296 68.786 27.3144 68.8593 27.3601C68.9325 27.3968 69.0241 27.4426 69.134 27.4884C69.2439 27.5342 69.3813 27.58 69.5279 27.6166C69.6744 27.6532 69.8484 27.6807 70.0499 27.6807C70.2148 27.6807 70.3613 27.6624 70.4804 27.6258C70.6086 27.5891 70.7094 27.5342 70.801 27.4609C70.8926 27.3876 70.9567 27.3052 70.9933 27.2044C71.0391 27.1037 71.0574 26.9938 71.0574 26.8747C71.0574 26.7373 71.0299 26.6183 70.975 26.5084C70.92 26.3984 70.8468 26.3069 70.746 26.2336C70.6453 26.1603 70.517 26.0962 70.3613 26.0596C70.2056 26.0138 70.0225 25.9955 69.8118 25.9955H69.3081C69.3081 25.9955 69.2348 25.9955 69.2073 25.9771C69.1798 25.9588 69.1615 25.9405 69.1432 25.913C69.1249 25.8855 69.1157 25.8306 69.1066 25.7756C69.1066 25.7207 69.0974 25.6383 69.0974 25.5467C69.0974 25.4642 69.0974 25.391 69.1066 25.336C69.1066 25.2811 69.1249 25.2353 69.1432 25.2078C69.1615 25.1803 69.1798 25.1528 69.2073 25.1437C69.2348 25.1345 69.2623 25.1253 69.2989 25.1253H69.8026C69.9767 25.1253 70.1324 25.107 70.2606 25.0612C70.3888 25.0154 70.5079 24.9605 70.5995 24.8872C70.6911 24.8139 70.7643 24.7224 70.8101 24.6124C70.8559 24.5025 70.8834 24.3926 70.8834 24.2644C70.8834 24.1637 70.8651 24.0721 70.8376 23.9805C70.8101 23.8889 70.7552 23.8156 70.6911 23.7515C70.6269 23.6874 70.5445 23.6324 70.4438 23.5958C70.343 23.5592 70.224 23.5408 70.0866 23.5408C69.9309 23.5408 69.7843 23.5683 69.6469 23.6141C69.5095 23.6599 69.3905 23.7149 69.2806 23.7698C69.1707 23.8248 69.0791 23.8797 69.0058 23.9255C68.9325 23.9713 68.8776 23.9988 68.8409 23.9988C68.8135 23.9988 68.7951 23.9988 68.7768 23.9805C68.7585 23.9713 68.7402 23.953 68.731 23.9164C68.7219 23.8797 68.7127 23.8431 68.7036 23.7881C68.6944 23.7332 68.7036 23.6599 68.7036 23.5683C68.7036 23.495 68.7036 23.4309 68.7036 23.3851C68.7036 23.3393 68.7036 23.2935 68.7219 23.2661C68.7402 23.2386 68.7402 23.202 68.7585 23.1836C68.7768 23.1562 68.7951 23.1378 68.8226 23.1012C68.8501 23.0646 68.9142 23.0279 69.0058 22.973C69.0974 22.918 69.2165 22.8631 69.3538 22.8081C69.4912 22.7532 69.6561 22.7074 69.8393 22.6707C70.0225 22.6341 70.224 22.6158 70.4346 22.6158C70.7185 22.6158 70.9658 22.6524 71.1765 22.7165C71.3963 22.7806 71.5795 22.8722 71.726 23.0005C71.8726 23.1287 71.9825 23.2752 72.0649 23.4584C72.1382 23.6416 72.1748 23.8431 72.1748 24.0721C72.1748 24.2461 72.1565 24.4109 72.1107 24.5666C72.0649 24.7224 72.0008 24.8506 71.9184 24.9696C71.8359 25.0887 71.726 25.1895 71.5978 25.2719C71.4696 25.3543 71.3139 25.4184 71.149 25.4642C71.3505 25.5009 71.5337 25.5558 71.6986 25.6291C71.8634 25.7024 72.0008 25.8031 72.1107 25.9222C72.2206 26.0412 72.3122 26.1786 72.3672 26.3252C72.4221 26.4717 72.4588 26.6366 72.4588 26.8106C72.4588 27.1037 72.4038 27.3601 72.2939 27.58C72.184 27.7998 72.0283 27.9921 71.8359 28.1478C71.6436 28.3035 71.4055 28.4134 71.1307 28.4959C70.8559 28.5783 70.5537 28.6149 70.2331 28.6149C70.0408 28.6149 69.8484 28.5966 69.6744 28.5691C69.5004 28.5417 69.3447 28.505 69.2165 28.4684C69.0882 28.4226 68.9783 28.386 68.8867 28.3402C68.7951 28.2944 68.7402 28.2577 68.7127 28.2394C68.6852 28.2211 68.6669 28.1845 68.6486 28.157C68.6303 28.1295 68.6211 28.0929 68.612 28.0562C68.6028 28.0196 68.5936 27.9646 68.5845 27.9005C68.5845 27.8364 68.5845 27.7631 68.5845 27.6807C68.5845 27.5342 68.5936 27.4426 68.6211 27.3876L68.5937 27.3785ZM63.9775 27.7631C63.9775 27.6899 64.005 27.6258 64.0233 27.5708C64.0416 27.5158 64.0783 27.4609 64.1149 27.4059C64.1515 27.351 64.1973 27.296 64.2614 27.2319L65.2598 26.1603C65.4613 25.9497 65.617 25.7573 65.7452 25.5925C65.8734 25.4276 65.965 25.2627 66.0291 25.1253C66.0932 24.988 66.1482 24.8506 66.1665 24.7315C66.194 24.6124 66.2031 24.5025 66.2031 24.3926C66.2031 24.2919 66.1848 24.2003 66.1574 24.1087C66.1299 24.0171 66.0841 23.9438 66.02 23.8797C65.9559 23.8156 65.8826 23.7607 65.791 23.724C65.6994 23.6874 65.5895 23.6691 65.4613 23.6691C65.2872 23.6691 65.1315 23.6874 64.9942 23.7332C64.8568 23.779 64.7377 23.8248 64.637 23.8797C64.5362 23.9347 64.4446 23.9896 64.3805 24.0354C64.3164 24.0812 64.2614 24.1087 64.2156 24.1087C64.1882 24.1087 64.1698 24.1087 64.1424 24.0812C64.1241 24.0629 64.1057 24.0354 64.0966 23.9896C64.0874 23.9438 64.0783 23.8889 64.0691 23.8248C64.0691 23.7515 64.0599 23.6691 64.0599 23.5683C64.0599 23.5042 64.0599 23.4401 64.0599 23.3943C64.0599 23.3485 64.0691 23.3119 64.0783 23.2752C64.0874 23.2386 64.0966 23.2111 64.1149 23.1836C64.1332 23.1562 64.1515 23.1287 64.1973 23.092C64.234 23.0554 64.3072 23.0096 64.3988 22.9547C64.4996 22.8997 64.6186 22.8448 64.7652 22.7898C64.9117 22.7348 65.0674 22.6982 65.2506 22.6616C65.4246 22.6249 65.6078 22.6066 65.8002 22.6066C66.1024 22.6066 66.368 22.6433 66.5878 22.7165C66.8168 22.7898 67 22.8997 67.1465 23.0371C67.2931 23.1745 67.403 23.3302 67.4762 23.5225C67.5495 23.7057 67.5862 23.9072 67.5862 24.127C67.5862 24.3194 67.5678 24.5025 67.5312 24.6857C67.4946 24.8689 67.4213 25.0612 67.3114 25.2719C67.2015 25.4825 67.0366 25.7115 66.8351 25.968C66.6336 26.2244 66.3588 26.5175 66.02 26.8564L65.3422 27.5525H67.6228C67.6228 27.5525 67.6777 27.5525 67.7052 27.58C67.7327 27.5983 67.751 27.6258 67.7693 27.6624C67.7877 27.699 67.7968 27.7448 67.806 27.8089C67.8151 27.8731 67.8151 27.9463 67.8151 28.0288C67.8151 28.1112 67.8151 28.1845 67.806 28.2486C67.806 28.3127 67.7877 28.3585 67.7693 28.3951C67.751 28.4318 67.7327 28.4592 67.7144 28.4775C67.6961 28.4959 67.6594 28.505 67.632 28.505H64.3072C64.2431 28.505 64.1882 28.505 64.1332 28.4867C64.0783 28.4684 64.0508 28.4501 64.0141 28.4134C63.9775 28.3768 63.9592 28.331 63.95 28.2669C63.9409 28.2028 63.9317 28.1203 63.9317 28.0104C63.9317 27.9097 63.9317 27.8273 63.9409 27.754L63.9775 27.7631ZM64.3256 33.0021C64.3805 33.0662 64.4263 33.1395 64.4996 33.2494C63.95 33.5516 63.4371 33.8356 62.9151 34.1195C62.8143 34.0279 62.7136 33.9546 62.622 33.863C61.7427 33.0387 60.0483 33.1303 59.2789 33.918C58.592 34.6141 58.4455 35.4476 58.7477 36.3268C59.05 37.2152 59.7552 37.6457 60.6711 37.719C61.4863 37.7831 62.2281 37.5816 62.8052 36.9588C62.8326 36.9313 62.8601 36.913 62.9151 36.8672C63.4096 37.2061 63.8951 37.5358 64.3988 37.893C64.3347 37.9846 64.2798 38.0579 64.2248 38.122C63.5287 38.9188 62.6403 39.3401 61.5962 39.4592C60.8451 39.5508 60.1124 39.4958 59.3888 39.2852C57.9417 38.8455 56.861 37.5083 56.6961 36.0063C56.458 33.8722 57.8684 31.9397 60.1399 31.5733C61.1565 31.4084 62.1457 31.5 63.0799 31.9854C63.5653 32.2327 63.9775 32.5716 64.3164 33.0021H64.3256ZM63.8676 60.6348C63.8676 60.6348 63.8035 60.6257 63.776 60.6074C63.7485 60.589 63.7302 60.5524 63.7119 60.5066C63.6936 60.4608 63.6844 60.4059 63.6753 60.3326C63.6753 60.2593 63.6661 60.1769 63.6661 60.0761C63.6661 59.9754 63.6661 59.8838 63.6753 59.8105C63.6844 59.7373 63.6936 59.6823 63.7119 59.6365C63.7302 59.5907 63.7485 59.5632 63.776 59.5449C63.8035 59.5266 63.831 59.5174 63.8676 59.5174H68.6303C68.6303 59.5174 68.6944 59.5266 68.7127 59.5449C68.7402 59.5632 68.7585 59.5907 68.7768 59.6365C68.7951 59.6823 68.8043 59.7373 68.8135 59.8105C68.8226 59.8838 68.8226 59.9754 68.8226 60.0761C68.8226 60.1769 68.8226 60.2593 68.8135 60.3326C68.8135 60.4059 68.7951 60.4608 68.7768 60.5066C68.7585 60.5524 68.7402 60.5799 68.7127 60.6074C68.6852 60.6257 68.6578 60.6348 68.6303 60.6348H66.9359V66.0753C66.9359 66.0753 66.9267 66.1394 66.8992 66.1669C66.8809 66.1944 66.8351 66.2127 66.7893 66.231C66.7344 66.2493 66.6703 66.2585 66.5787 66.2768C66.4871 66.2859 66.3772 66.2951 66.2489 66.2951C66.1207 66.2951 66.0108 66.2951 65.9192 66.2768C65.8276 66.2676 65.7635 66.2493 65.7086 66.231C65.6536 66.2127 65.617 66.1944 65.5987 66.1669C65.5803 66.1394 65.562 66.1119 65.562 66.0753V60.6348H63.8676ZM66.8076 57.704C66.8076 57.7681 66.7893 57.823 66.771 57.8688C66.7527 57.9146 66.7344 57.9421 66.7069 57.9604C66.6794 57.9787 66.6519 57.9879 66.6245 57.9879H63.2356C63.1166 57.9879 63.025 57.9512 62.9425 57.8871C62.8601 57.823 62.8235 57.7131 62.8235 57.5574V51.6682C62.8235 51.5125 62.8601 51.4025 62.9425 51.3384C63.025 51.2743 63.1166 51.2377 63.2356 51.2377H66.6061C66.6061 51.2377 66.6611 51.2377 66.6886 51.2652C66.716 51.2835 66.7344 51.311 66.7527 51.3568C66.771 51.4025 66.7802 51.4575 66.7893 51.5216C66.7893 51.5857 66.7985 51.6773 66.7985 51.7781C66.7985 51.8788 66.7985 51.9613 66.7893 52.0254C66.7893 52.0895 66.771 52.1444 66.7527 52.1902C66.7344 52.236 66.716 52.2635 66.6886 52.2818C66.6611 52.3001 66.6336 52.3093 66.6061 52.3093H64.1973V53.9579H66.2398C66.2398 53.9579 66.3039 53.9671 66.3222 53.9854C66.3497 54.0037 66.368 54.0312 66.3863 54.077C66.4046 54.1136 66.4138 54.1686 66.423 54.2418C66.423 54.306 66.4321 54.3884 66.4321 54.4891C66.4321 54.5899 66.4321 54.6723 66.423 54.7364C66.423 54.8005 66.4046 54.8555 66.3863 54.8921C66.368 54.9288 66.3497 54.9654 66.3222 54.9746C66.2947 54.9929 66.2673 55.002 66.2398 55.002H64.1973V56.9071H66.6245C66.6245 56.9071 66.6886 56.9163 66.7069 56.9346C66.7344 56.9529 66.7527 56.9804 66.771 57.0262C66.7893 57.072 66.7985 57.1269 66.8076 57.191C66.8076 57.2552 66.8168 57.3467 66.8168 57.4475C66.8168 57.5482 66.8168 57.6307 66.8076 57.704ZM30.1533 64.0237C30.0708 63.9138 29.9609 63.813 29.8236 63.7306C29.6862 63.6481 29.5396 63.5657 29.3656 63.4924C29.1916 63.4192 29.0176 63.3367 28.8344 63.2543C28.6512 63.1719 28.4772 63.0803 28.3123 62.9704C28.1383 62.8605 27.9918 62.7414 27.8544 62.5857C27.717 62.4392 27.6071 62.2651 27.5246 62.0636C27.4422 61.8621 27.3964 61.624 27.3964 61.3401C27.3964 61.0195 27.4605 60.7356 27.5796 60.4883C27.6987 60.241 27.8635 60.0395 28.065 59.8746C28.2665 59.7098 28.5047 59.5907 28.7886 59.5083C29.0634 59.4258 29.3564 59.3892 29.6679 59.3892C29.8236 59.3892 29.9884 59.3984 30.1441 59.4258C30.2998 59.4533 30.4555 59.4808 30.5929 59.5266C30.7303 59.5724 30.8585 59.6182 30.9593 59.664C31.0692 59.7189 31.1425 59.7556 31.1699 59.7922C31.2066 59.8288 31.2249 59.8563 31.2432 59.8838C31.2524 59.9113 31.2615 59.9387 31.2707 59.9845C31.2707 60.0212 31.289 60.0761 31.289 60.1311C31.289 60.1952 31.289 60.2685 31.289 60.3601C31.289 60.4608 31.289 60.5432 31.289 60.6165C31.289 60.6898 31.2798 60.7447 31.2615 60.7905C31.2524 60.8363 31.234 60.873 31.2066 60.8913C31.1882 60.9096 31.1516 60.9188 31.115 60.9188C31.0783 60.9188 31.0142 60.8913 30.9318 60.8455C30.8494 60.7997 30.7486 60.7447 30.6204 60.6898C30.5013 60.6348 30.3548 60.5799 30.1991 60.5341C30.0342 60.4883 29.8602 60.4608 29.6679 60.4608C29.5213 60.4608 29.3839 60.4791 29.274 60.5158C29.1641 60.5524 29.0725 60.5982 28.9992 60.6715C28.926 60.7356 28.871 60.8089 28.8344 60.9004C28.7977 60.992 28.7794 61.0836 28.7794 61.1844C28.7794 61.3309 28.8161 61.4591 28.8985 61.5691C28.9809 61.679 29.0908 61.7797 29.2282 61.8621C29.3656 61.9446 29.5213 62.027 29.6953 62.1003C29.8693 62.1735 30.0434 62.256 30.2266 62.3384C30.4097 62.4208 30.5838 62.5124 30.7578 62.6223C30.9318 62.7322 31.0875 62.8513 31.2249 63.007C31.3623 63.1536 31.4722 63.3276 31.5546 63.5291C31.637 63.7306 31.6828 63.9687 31.6828 64.2343C31.6828 64.5915 31.6187 64.9029 31.4813 65.1685C31.3531 65.4342 31.1699 65.6631 30.941 65.8372C30.712 66.0203 30.4464 66.1486 30.1441 66.2402C29.8419 66.3317 29.5213 66.3775 29.1733 66.3775C28.9443 66.3775 28.7245 66.3592 28.523 66.3226C28.3215 66.2859 28.1475 66.2401 27.9918 66.1852C27.836 66.1302 27.7078 66.0753 27.6071 66.0203C27.5063 65.9562 27.4331 65.9104 27.3873 65.8646C27.3415 65.8188 27.314 65.7547 27.2865 65.6723C27.2682 65.5899 27.259 65.4616 27.259 65.3059C27.259 65.196 27.259 65.1044 27.2682 65.0312C27.2682 64.9579 27.2865 64.9029 27.3048 64.8571C27.3231 64.8113 27.3415 64.7839 27.3689 64.7564C27.3964 64.7381 27.4239 64.7289 27.4605 64.7289C27.5063 64.7289 27.5796 64.7564 27.6712 64.8113C27.7628 64.8663 27.8727 64.9304 28.0101 65.0037C28.1475 65.077 28.3123 65.1411 28.5047 65.196C28.697 65.251 28.926 65.2785 29.1733 65.2785C29.3381 65.2785 29.4938 65.2601 29.6221 65.2143C29.7503 65.1777 29.8693 65.1136 29.9609 65.0495C30.0525 64.9854 30.1258 64.8846 30.1716 64.7747C30.2174 64.6648 30.2449 64.5457 30.2449 64.4175C30.2449 64.2618 30.2082 64.1336 30.1166 64.0237H30.1533ZM31.6554 58.1069C31.234 58.1069 30.8494 58.052 30.5105 57.9512C30.1716 57.8505 29.8877 57.6856 29.6587 57.4658C29.4297 57.2552 29.2465 56.9804 29.1275 56.6598C29.0084 56.3393 28.9443 55.9637 28.9443 55.5333V51.43C28.9443 51.43 28.9534 51.3659 28.9718 51.3384C28.9901 51.311 29.0267 51.2926 29.0817 51.2743C29.1366 51.256 29.2099 51.2468 29.2923 51.2285C29.3748 51.2194 29.4938 51.2102 29.6221 51.2102C29.7503 51.2102 29.8602 51.2102 29.9518 51.2285C30.0342 51.2377 30.1075 51.256 30.1624 51.2743C30.2174 51.2926 30.254 51.311 30.2723 51.3384C30.2907 51.3659 30.309 51.3934 30.309 51.43V55.4142C30.309 55.6798 30.3456 55.9179 30.4097 56.1103C30.4738 56.3026 30.5746 56.4675 30.6937 56.5957C30.8219 56.7239 30.9684 56.8247 31.1333 56.8888C31.3073 56.9529 31.4997 56.9895 31.7103 56.9895C31.921 56.9895 32.1225 56.9529 32.2873 56.8888C32.4613 56.8247 32.5987 56.7239 32.7178 56.5957C32.8369 56.4675 32.9285 56.3118 32.9926 56.1286C33.0567 55.9454 33.0933 55.7348 33.0933 55.4966V51.43C33.0933 51.43 33.1025 51.3659 33.1208 51.3384C33.1391 51.311 33.1758 51.2926 33.2307 51.2743C33.2857 51.256 33.3498 51.2468 33.4414 51.2285C33.533 51.2194 33.6429 51.2102 33.7711 51.2102C33.8993 51.2102 34.0092 51.2102 34.1008 51.2285C34.1832 51.2377 34.2565 51.256 34.3115 51.2743C34.3664 51.2926 34.4031 51.311 34.4214 51.3384C34.4397 51.3659 34.4489 51.3934 34.4489 51.43V55.4783C34.4489 55.8905 34.3847 56.266 34.2657 56.5866C34.1466 56.9163 33.9634 57.191 33.7253 57.42C33.4872 57.649 33.1941 57.8139 32.846 57.9329C32.498 58.052 32.095 58.1069 31.6462 58.1069H31.6554ZM32.7453 59.7006C32.7453 59.7006 32.7544 59.6365 32.7728 59.609C32.7911 59.5815 32.8277 59.5632 32.8827 59.5449C32.9376 59.5266 33.0109 59.5174 33.0933 59.4991C33.1758 59.49 33.2948 59.4808 33.423 59.4808C33.5513 59.4808 33.6612 59.4808 33.7528 59.4991C33.8352 59.5083 33.9085 59.5266 33.9634 59.5449C34.0184 59.5632 34.055 59.5815 34.0733 59.609C34.0917 59.6365 34.11 59.664 34.11 59.7006V63.6848C34.11 63.9504 34.1466 64.1885 34.2107 64.3809C34.2748 64.5732 34.3756 64.7381 34.4946 64.8663C34.6229 64.9945 34.7694 65.0953 34.9343 65.1594C35.1083 65.2235 35.3006 65.2601 35.5113 65.2601C35.722 65.2601 35.9235 65.2235 36.0883 65.1594C36.2623 65.0953 36.3997 64.9945 36.5188 64.8663C36.6379 64.7381 36.7294 64.5824 36.7936 64.3992C36.8577 64.216 36.8943 64.0054 36.8943 63.7672V59.7006C36.8943 59.7006 36.9035 59.6365 36.9218 59.609C36.9401 59.5815 36.9767 59.5632 37.0317 59.5449C37.0866 59.5266 37.1508 59.5174 37.2424 59.4991C37.3339 59.49 37.4439 59.4808 37.5721 59.4808C37.7003 59.4808 37.8102 59.4808 37.9018 59.4991C37.9842 59.5083 38.0575 59.5266 38.1125 59.5449C38.1674 59.5632 38.2041 59.5815 38.2224 59.609C38.2407 59.6365 38.2498 59.664 38.2498 59.7006V63.7489C38.2498 64.1611 38.1857 64.5366 38.0667 64.8571C37.9476 65.1869 37.7644 65.4616 37.5263 65.6906C37.2881 65.9196 36.9951 66.0844 36.647 66.2035C36.299 66.3226 35.896 66.3775 35.4472 66.3775C35.0259 66.3775 34.6412 66.3226 34.3023 66.2218C33.9634 66.1211 33.6795 65.9562 33.4505 65.7364C33.2215 65.5257 33.0384 65.251 32.9193 64.9304C32.8002 64.6098 32.7361 64.2343 32.7361 63.8039V59.7006H32.7453ZM37.4164 58.1069C37.1874 58.1069 36.9676 58.0886 36.7661 58.052C36.5646 58.0154 36.3906 57.9696 36.2349 57.9146C36.0792 57.8597 35.9509 57.8047 35.8502 57.7497C35.7494 57.6856 35.6762 57.6398 35.6304 57.594C35.5846 57.5482 35.5571 57.4841 35.5296 57.4017C35.5113 57.3193 35.5021 57.191 35.5021 57.0353C35.5021 56.9254 35.5021 56.8338 35.5113 56.7606C35.5113 56.6873 35.5296 56.6323 35.5479 56.5866C35.5663 56.5408 35.5846 56.5133 35.612 56.4858C35.6395 56.4675 35.667 56.4583 35.7036 56.4583C35.7494 56.4583 35.8227 56.4858 35.9143 56.5408C36.0059 56.5957 36.1158 56.6598 36.2532 56.7331C36.3906 56.8064 36.5554 56.8705 36.7478 56.9254C36.9401 56.9804 37.1691 57.0079 37.4164 57.0079C37.5812 57.0079 37.7369 56.9895 37.8652 56.9438C37.9934 56.9071 38.1125 56.843 38.2041 56.7789C38.2956 56.7056 38.3689 56.614 38.4147 56.5041C38.4605 56.3942 38.488 56.2751 38.488 56.1469C38.488 55.9912 38.4422 55.863 38.3598 55.7531C38.2773 55.6432 38.1674 55.5424 38.03 55.46C37.8926 55.3776 37.7461 55.2951 37.5721 55.2219C37.3981 55.1486 37.224 55.0662 37.0409 54.9837C36.8577 54.9013 36.6837 54.8097 36.5188 54.6998C36.3448 54.5899 36.1982 54.4708 36.0608 54.3151C35.9235 54.1686 35.8135 53.9946 35.7311 53.7931C35.6487 53.5916 35.6029 53.3534 35.6029 53.0695C35.6029 52.7489 35.667 52.465 35.7861 52.2177C35.9051 51.9704 36.07 51.7689 36.2715 51.604C36.473 51.4392 36.7111 51.3201 36.9951 51.2377C37.279 51.1553 37.5629 51.1186 37.8743 51.1186C38.03 51.1186 38.1949 51.1278 38.3506 51.1553C38.5063 51.1827 38.662 51.2102 38.7994 51.256C38.9368 51.2926 39.065 51.3476 39.1657 51.3934C39.2757 51.4483 39.3489 51.485 39.3764 51.5216C39.413 51.5583 39.4314 51.5857 39.4497 51.6132C39.468 51.6407 39.468 51.6682 39.4772 51.714C39.4772 51.7506 39.4955 51.8055 39.4955 51.8605C39.4955 51.9246 39.4955 51.9979 39.4955 52.0895C39.4955 52.1902 39.4955 52.2727 39.4955 52.3459C39.4955 52.4192 39.4863 52.4742 39.468 52.52C39.4588 52.5657 39.4405 52.6024 39.413 52.6207C39.3947 52.639 39.3581 52.6482 39.3214 52.6482C39.2848 52.6482 39.2207 52.6207 39.1383 52.5749C39.0558 52.5291 38.9551 52.4742 38.8269 52.4192C38.7078 52.3642 38.5613 52.3093 38.4055 52.2635C38.2407 52.2177 38.0667 52.1902 37.8743 52.1902C37.7278 52.1902 37.5904 52.2085 37.4805 52.2452C37.3706 52.2818 37.279 52.3276 37.2057 52.4009C37.1324 52.465 37.0775 52.5383 37.0409 52.6299C37.0042 52.7214 36.9859 52.813 36.9859 52.9138C36.9859 53.0603 37.0225 53.1886 37.105 53.2985C37.1874 53.4084 37.2973 53.5091 37.4347 53.5916C37.5721 53.674 37.7278 53.7564 37.9018 53.8297C38.0758 53.903 38.2498 53.9854 38.433 54.0678C38.6162 54.1503 38.7902 54.2418 38.9642 54.3518C39.1383 54.4617 39.294 54.5807 39.4314 54.7364C39.5687 54.883 39.6786 55.057 39.7611 55.2585C39.8435 55.46 39.8893 55.6981 39.8893 55.9637C39.8893 56.3209 39.8252 56.6323 39.6878 56.898C39.5596 57.1636 39.3764 57.3925 39.1474 57.5666C38.9185 57.7497 38.6528 57.878 38.3506 57.9696C38.0483 58.0611 37.7278 58.1069 37.3797 58.1069H37.4164ZM41.9684 46.2552C42.1333 46.3376 42.2707 46.4567 42.3897 46.5941C42.5088 46.7315 42.6004 46.8963 42.6736 47.0795C42.7469 47.2627 42.7744 47.4733 42.7744 47.7023C42.7744 47.9404 42.7378 48.1603 42.6736 48.3526C42.6095 48.5449 42.5179 48.719 42.3989 48.8655C42.2798 49.012 42.1424 49.1403 41.9776 49.2502C41.8127 49.3601 41.6387 49.4425 41.4463 49.5158C41.254 49.5891 41.0433 49.6349 40.8235 49.6715C40.6037 49.7081 40.3564 49.7173 40.0816 49.7173H38.2865C38.1674 49.7173 38.0758 49.6807 37.9934 49.6165C37.911 49.5524 37.8743 49.4425 37.8743 49.2868V43.3976C37.8743 43.2419 37.911 43.132 37.9934 43.0679C38.0758 43.0037 38.1674 42.9671 38.2865 42.9671H39.9809C40.3931 42.9671 40.7411 43.0037 41.0342 43.0679C41.3181 43.1411 41.5654 43.2419 41.7577 43.3793C41.9501 43.5166 42.1058 43.6998 42.2065 43.9105C42.3073 44.1211 42.3622 44.3776 42.3622 44.6707C42.3622 44.8355 42.3439 44.9912 42.2981 45.1286C42.2523 45.2752 42.1974 45.4034 42.1149 45.5225C42.0325 45.6415 41.9409 45.7423 41.8219 45.8339C41.7028 45.9255 41.5746 45.9987 41.4189 46.0537C41.6112 46.0903 41.7852 46.1453 41.9501 46.2369L41.9684 46.2552ZM39.7244 60.0029C39.7244 59.838 39.7702 59.7189 39.8527 59.6365C39.9351 59.5541 40.0542 59.5174 40.1916 59.5174H41.7852C41.9409 59.5174 42.0966 59.5174 42.2432 59.5358C42.3897 59.5449 42.5637 59.5724 42.7652 59.6182C42.9667 59.6548 43.1682 59.7281 43.3789 59.838C43.5895 59.9479 43.7636 60.0853 43.9101 60.2502C44.0567 60.415 44.1666 60.6074 44.249 60.8272C44.3223 61.047 44.3681 61.2943 44.3681 61.5691C44.3681 61.9446 44.3039 62.2835 44.194 62.5765C44.075 62.8696 43.901 63.1169 43.6811 63.3184C43.4522 63.5199 43.1774 63.6665 42.8477 63.7764C42.5179 63.8771 42.1333 63.9321 41.6845 63.9321H41.1166V66.0844C41.1166 66.0844 41.1075 66.1486 41.08 66.176C41.0617 66.2035 41.0159 66.2218 40.9701 66.2402C40.9151 66.2585 40.851 66.2676 40.7594 66.2859C40.6678 66.2951 40.5579 66.3043 40.4205 66.3043C40.2831 66.3043 40.1824 66.3043 40.0908 66.2859C39.9992 66.2768 39.9351 66.2585 39.8801 66.2402C39.8252 66.2218 39.7886 66.2035 39.7702 66.176C39.7519 66.1486 39.7428 66.1211 39.7428 66.0844V60.012L39.7244 60.0029ZM43.5621 52.3551V57.7955C43.5621 57.7955 43.5529 57.8597 43.5254 57.8871C43.5071 57.9146 43.4613 57.9329 43.4155 57.9512C43.3606 57.9696 43.2965 57.9787 43.2049 57.997C43.1133 58.0154 43.0034 58.0154 42.8751 58.0154C42.7469 58.0154 42.637 58.0154 42.5454 57.997C42.4538 57.9879 42.3897 57.9696 42.3348 57.9512C42.2798 57.9329 42.2432 57.9146 42.2249 57.8871C42.2065 57.8597 42.1882 57.8322 42.1882 57.7955V52.3551H40.4938C40.4938 52.3551 40.4297 52.3459 40.4022 52.3276C40.3747 52.3093 40.3564 52.2727 40.3381 52.2269C40.3198 52.1811 40.3106 52.1261 40.3015 52.0528C40.3015 51.9796 40.2923 51.8971 40.2923 51.7964C40.2923 51.6956 40.2923 51.604 40.3015 51.5308C40.3106 51.4575 40.3198 51.4025 40.3381 51.3568C40.3564 51.311 40.3747 51.2835 40.4022 51.2652C40.4297 51.2468 40.4572 51.2377 40.4938 51.2377H45.2565C45.2565 51.2377 45.3206 51.2468 45.3389 51.2652C45.3664 51.2835 45.3847 51.311 45.403 51.3568C45.4214 51.4025 45.4305 51.4575 45.4397 51.5308C45.4488 51.604 45.4488 51.6956 45.4488 51.7964C45.4488 51.8971 45.4488 51.9796 45.4397 52.0528C45.4397 52.1261 45.4214 52.1811 45.403 52.2269C45.3847 52.2727 45.3664 52.3001 45.3389 52.3276C45.3114 52.3459 45.284 52.3551 45.2565 52.3551H43.5621ZM47.2898 45.6873C47.2898 45.6873 47.3539 45.6965 47.3722 45.7148C47.3997 45.7331 47.418 45.7606 47.4363 45.8064C47.4546 45.843 47.4638 45.898 47.473 45.9713C47.473 46.0354 47.4821 46.1178 47.4821 46.2185C47.4821 46.3193 47.4821 46.4017 47.473 46.4658C47.473 46.53 47.4546 46.5849 47.4363 46.6215C47.418 46.6582 47.3997 46.6948 47.3722 46.704C47.3447 46.7223 47.3173 46.7315 47.2898 46.7315H45.2473V48.6365H47.6745C47.6745 48.6365 47.7386 48.6457 47.7569 48.664C47.7844 48.6823 47.8027 48.7098 47.821 48.7556C47.8393 48.8014 47.8485 48.8563 47.8576 48.9205C47.8576 48.9846 47.8668 49.0762 47.8668 49.1769C47.8668 49.2777 47.8668 49.3601 47.8576 49.4334C47.8576 49.4975 47.8393 49.5524 47.821 49.5982C47.8027 49.644 47.7844 49.6715 47.7569 49.6898C47.7294 49.7081 47.7019 49.7173 47.6745 49.7173H44.2856C44.1666 49.7173 44.075 49.6807 43.9925 49.6165C43.9101 49.5524 43.8735 49.4425 43.8735 49.2868V43.3976C43.8735 43.2419 43.9101 43.132 43.9925 43.0679C44.075 43.0037 44.1666 42.9671 44.2856 42.9671H47.6561C47.6561 42.9671 47.7111 42.9671 47.7386 42.9946C47.7661 43.0129 47.7844 43.0404 47.8027 43.0862C47.821 43.132 47.8302 43.1869 47.8393 43.251C47.8393 43.3151 47.8485 43.4067 47.8485 43.5075C47.8485 43.6082 47.8485 43.6907 47.8393 43.7548C47.8393 43.8189 47.821 43.8738 47.8027 43.9196C47.7844 43.9654 47.7661 43.9929 47.7386 44.0112C47.7111 44.0295 47.6836 44.0387 47.6561 44.0387H45.2473V45.6873H47.2898ZM45.4122 60.0029C45.4122 59.838 45.458 59.7189 45.5404 59.6365C45.6228 59.5541 45.7419 59.5174 45.8793 59.5174H47.473C47.6287 59.5174 47.7844 59.5174 47.9309 59.5358C48.0775 59.5449 48.2515 59.5724 48.453 59.6182C48.6545 59.6548 48.856 59.7281 49.0666 59.838C49.2773 59.9479 49.4513 60.0853 49.5979 60.2502C49.7444 60.415 49.8543 60.6074 49.9367 60.8272C50.01 61.047 50.0558 61.2943 50.0558 61.5691C50.0558 61.9446 49.9917 62.2835 49.8818 62.5765C49.7627 62.8696 49.5887 63.1169 49.3689 63.3184C49.1399 63.5199 48.8651 63.6665 48.5354 63.7764C48.2057 63.8771 47.821 63.9321 47.3722 63.9321H46.8044V66.0844C46.8044 66.0844 46.7952 66.1486 46.7677 66.176C46.7494 66.2035 46.7036 66.2218 46.6578 66.2402C46.6029 66.2585 46.5387 66.2676 46.4472 66.2859C46.3556 66.2951 46.2457 66.3043 46.1083 66.3043C45.9709 66.3043 45.8701 66.3043 45.7786 66.2859C45.687 66.2768 45.6228 66.2585 45.5679 66.2402C45.5129 66.2218 45.4763 66.2035 45.458 66.176C45.4397 66.1486 45.4305 66.1211 45.4305 66.0844V60.012L45.4122 60.0029ZM49.0758 58.1069C48.5537 58.1069 48.0958 58.0337 47.7019 57.8963C47.3081 57.7589 46.9875 57.5482 46.7219 57.2643C46.4655 56.9804 46.264 56.6232 46.1358 56.1927C46.0075 55.7531 45.9434 55.2402 45.9434 54.6448C45.9434 54.0953 46.0167 53.6099 46.1541 53.1702C46.2915 52.7306 46.5021 52.3642 46.7769 52.0528C47.0517 51.7414 47.3905 51.5125 47.7935 51.3476C48.1965 51.1827 48.6728 51.1003 49.204 51.1003C49.7352 51.1003 50.1657 51.1644 50.5596 51.3018C50.9534 51.4392 51.274 51.6498 51.5396 51.9246C51.8052 52.2085 51.9975 52.5657 52.1349 52.9962C52.2723 53.4267 52.3364 53.9304 52.3364 54.5166C52.3364 55.1028 52.2631 55.5791 52.1257 56.0187C51.9884 56.4583 51.7777 56.8338 51.5029 57.1453C51.2282 57.4567 50.8893 57.6856 50.4863 57.8505C50.0833 58.0154 49.6162 58.0978 49.085 58.0978L49.0758 58.1069ZM51.5487 47.4733C51.4663 47.3634 51.3564 47.2627 51.219 47.1802C51.0816 47.0978 50.9351 47.0154 50.7611 46.9421C50.587 46.8688 50.413 46.7864 50.2298 46.704C50.0467 46.6215 49.8726 46.53 49.7078 46.42C49.5337 46.3101 49.3872 46.1911 49.2498 46.0354C49.1124 45.8888 49.0025 45.7148 48.9201 45.5133C48.8377 45.3118 48.7919 45.0737 48.7919 44.7897C48.7919 44.4692 48.856 44.1852 48.975 43.938C49.0941 43.6907 49.259 43.4892 49.4605 43.3243C49.662 43.1594 49.9001 43.0404 50.184 42.9579C50.468 42.8755 50.7519 42.8389 51.0633 42.8389C51.219 42.8389 51.3839 42.848 51.5396 42.8755C51.6953 42.903 51.851 42.9305 51.9884 42.9763C52.1257 43.0129 52.254 43.0679 52.3547 43.1136C52.4646 43.1686 52.5379 43.2052 52.5654 43.2419C52.602 43.2785 52.6203 43.306 52.6386 43.3335C52.657 43.3609 52.657 43.3884 52.6661 43.4342C52.6661 43.4708 52.6844 43.5258 52.6844 43.5808C52.6844 43.6449 52.6844 43.7181 52.6844 43.8097C52.6844 43.9105 52.6844 43.9929 52.6844 44.0662C52.6844 44.1395 52.6753 44.1944 52.657 44.2402C52.6478 44.286 52.6295 44.3226 52.602 44.341C52.5837 44.3593 52.5471 44.3684 52.5104 44.3684C52.4738 44.3684 52.4097 44.341 52.3272 44.2952C52.2448 44.2494 52.1441 44.1944 52.0158 44.1395C51.8968 44.0845 51.7502 44.0295 51.5945 43.9838C51.4297 43.938 51.2556 43.9105 51.0633 43.9105C50.9168 43.9105 50.7794 43.9288 50.6695 43.9654C50.5596 44.0021 50.468 44.0479 50.3947 44.1211C50.3214 44.1852 50.2665 44.2585 50.2298 44.3501C50.1932 44.4417 50.1749 44.5333 50.1749 44.634C50.1749 44.7806 50.2115 44.9088 50.2939 45.0187C50.3764 45.1286 50.4863 45.2294 50.6237 45.3118C50.7611 45.3942 50.9168 45.4767 51.0908 45.5499C51.2648 45.6232 51.4388 45.7056 51.622 45.7881C51.8052 45.8705 51.9792 45.9621 52.1532 46.072C52.3272 46.1819 52.4829 46.301 52.6203 46.4567C52.7577 46.6032 52.8676 46.7772 52.9501 46.9787C53.0325 47.1802 53.0783 47.4184 53.0783 47.684C53.0783 48.0412 53.0142 48.3526 52.8768 48.6182C52.7486 48.8838 52.5654 49.1128 52.3364 49.2868C52.1074 49.47 51.8418 49.5982 51.5396 49.6898C51.2373 49.7814 50.9168 49.8272 50.5687 49.8272C50.3397 49.8272 50.1199 49.8089 49.9184 49.7722C49.7169 49.7356 49.5429 49.6898 49.3872 49.6349C49.2315 49.5799 49.1033 49.525 49.0025 49.47C48.9018 49.4059 48.8285 49.3601 48.7827 49.3143C48.7369 49.2685 48.7094 49.2044 48.682 49.122C48.6636 49.0395 48.6545 48.9113 48.6545 48.7556C48.6545 48.6457 48.6545 48.5541 48.6636 48.4808C48.6636 48.4076 48.682 48.3526 48.7003 48.3068C48.7186 48.261 48.7369 48.2335 48.7644 48.2061C48.7919 48.1877 48.8193 48.1786 48.856 48.1786C48.9018 48.1786 48.975 48.2061 49.0666 48.261C49.1582 48.316 49.2681 48.3801 49.4055 48.4533C49.5429 48.5266 49.7078 48.5907 49.9001 48.6457C50.0924 48.7006 50.3214 48.7281 50.5687 48.7281C50.7336 48.7281 50.8893 48.7098 51.0175 48.664C51.1457 48.6274 51.2648 48.5633 51.3564 48.4991C51.448 48.4259 51.5213 48.3343 51.567 48.2244C51.6128 48.1145 51.6403 47.9954 51.6403 47.8672C51.6403 47.7115 51.5945 47.5832 51.5121 47.4733H51.5487ZM50.99 61.45C51.1274 61.0104 51.3381 60.644 51.6128 60.3326C51.8876 60.0303 52.2265 59.7922 52.6295 59.6273C53.0325 59.4625 53.5088 59.38 54.04 59.38C54.5712 59.38 55.0017 59.4442 55.3955 59.5815C55.7894 59.7189 56.1099 59.9296 56.3755 60.2044C56.6411 60.4883 56.8335 60.8455 56.9709 61.276C57.1082 61.7064 57.1724 62.2102 57.1724 62.7964C57.1724 63.3825 57.0991 63.8588 56.9617 64.2984C56.8243 64.7381 56.6137 65.1136 56.3389 65.425C56.0641 65.7364 55.7252 65.9654 55.3222 66.1302C54.9192 66.2951 54.4521 66.3775 53.9118 66.3775C53.3714 66.3775 52.9317 66.3043 52.5379 66.1669C52.1441 66.0295 51.8235 65.8188 51.5579 65.5349C51.3014 65.251 51.0999 64.8938 50.9717 64.4633C50.8435 64.0237 50.7794 63.5108 50.7794 62.9154C50.7794 62.3659 50.8526 61.8805 50.99 61.4408V61.45ZM53.6736 44.0845C53.6736 44.0845 53.6095 44.0753 53.582 44.057C53.5546 44.0387 53.5362 44.0021 53.5179 43.9563C53.4996 43.9105 53.4904 43.8555 53.4813 43.7823C53.4813 43.709 53.4721 43.6266 53.4721 43.5258C53.4721 43.4251 53.4721 43.3335 53.4813 43.2602C53.4904 43.1869 53.4996 43.132 53.5179 43.0862C53.5362 43.0404 53.5546 43.0129 53.582 42.9946C53.6095 42.9763 53.637 42.9671 53.6736 42.9671H58.4363C58.4363 42.9671 58.5004 42.9763 58.5187 42.9946C58.5462 43.0129 58.5645 43.0404 58.5828 43.0862C58.6012 43.132 58.6103 43.1869 58.6195 43.2602C58.6286 43.3335 58.6286 43.4251 58.6286 43.5258C58.6286 43.6266 58.6286 43.709 58.6195 43.7823C58.6195 43.8555 58.6012 43.9105 58.5828 43.9563C58.5645 44.0021 58.5462 44.0295 58.5187 44.057C58.4913 44.0753 58.4638 44.0845 58.4363 44.0845H56.7419V49.525C56.7419 49.525 56.7327 49.5891 56.7053 49.6165C56.6869 49.644 56.6411 49.6623 56.5953 49.6807C56.5404 49.699 56.4763 49.7081 56.3847 49.7264C56.2931 49.7356 56.1832 49.7448 56.055 49.7448C55.9267 49.7448 55.8168 49.7448 55.7252 49.7264C55.6336 49.7173 55.5695 49.699 55.5146 49.6807C55.4596 49.6623 55.423 49.644 55.4047 49.6165C55.3864 49.5891 55.368 49.5616 55.368 49.525V44.0845H53.6736ZM57.0716 58.0062C56.9892 58.0062 56.9159 57.9879 56.861 57.9604C56.806 57.9421 56.7602 57.9146 56.7327 57.8871C56.7053 57.8597 56.6778 57.823 56.6686 57.7864L54.7819 52.3001H54.7727V57.7955C54.7727 57.7955 54.7635 57.8597 54.7452 57.8871C54.7269 57.9146 54.6903 57.9329 54.6353 57.9512C54.5804 57.9696 54.5163 57.9787 54.4338 57.997C54.3514 58.0154 54.2506 58.0154 54.1224 58.0154C53.9942 58.0154 53.8934 58.0154 53.811 57.997C53.7286 57.9879 53.6645 57.9696 53.6095 57.9512C53.5546 57.9329 53.5271 57.9146 53.5088 57.8871C53.4904 57.8597 53.4813 57.8322 53.4813 57.7955V51.7781C53.4813 51.604 53.5271 51.4667 53.6187 51.3751C53.7103 51.2835 53.8385 51.2377 53.9942 51.2377H54.8918C55.0566 51.2377 55.1849 51.2468 55.3039 51.2743C55.423 51.3018 55.5146 51.3476 55.597 51.4025C55.6794 51.4667 55.7527 51.5399 55.8077 51.6407C55.8626 51.7414 55.9084 51.8605 55.9542 52.007L57.4197 56.0279H57.438L58.9492 52.0162C58.995 51.8697 59.0408 51.7506 59.0958 51.6498C59.1507 51.5491 59.2148 51.4667 59.2881 51.4025C59.3614 51.3384 59.4438 51.2926 59.5445 51.2652C59.6453 51.2377 59.7552 51.2285 59.8834 51.2285H60.8085C60.9001 51.2285 60.9825 51.2377 61.0558 51.2652C61.1199 51.2926 61.1749 51.3293 61.2206 51.3751C61.2664 51.4209 61.2939 51.4758 61.3214 51.5491C61.3397 51.6132 61.358 51.6956 61.358 51.7781V57.7955C61.358 57.7955 61.3489 57.8597 61.3306 57.8871C61.3122 57.9146 61.2756 57.9329 61.2298 57.9512C61.184 57.9696 61.1107 57.9787 61.0283 57.997C60.9459 58.0062 60.836 58.0154 60.7077 58.0154C60.5795 58.0154 60.4788 58.0154 60.3963 57.997C60.3139 57.9879 60.2498 57.9696 60.1948 57.9512C60.149 57.9329 60.1124 57.9146 60.0941 57.8871C60.0758 57.8597 60.0666 57.8322 60.0666 57.7955V52.3001H60.0574L58.0974 57.7864C58.0974 57.7864 58.0608 57.8688 58.0333 57.8963C58.0058 57.9238 57.96 57.9512 57.9051 57.9696C57.8501 57.9879 57.786 57.997 57.6944 58.0062C57.612 58.0062 57.5112 58.0062 57.3922 58.0062C57.2731 58.0062 57.1724 58.0062 57.0899 57.997L57.0716 58.0062ZM58.3264 59.9387C58.3264 59.783 58.363 59.6731 58.4455 59.609C58.5279 59.5449 58.6195 59.5083 58.7386 59.5083H60.4879C60.6619 59.5083 60.8085 59.5083 60.9276 59.5174C61.0466 59.5174 61.1474 59.5358 61.239 59.5449C61.5137 59.5815 61.7519 59.6457 61.9717 59.7464C62.1915 59.838 62.3747 59.9662 62.5212 60.1128C62.6769 60.2593 62.7868 60.4425 62.8693 60.6532C62.9517 60.8638 62.9883 61.0928 62.9883 61.3676C62.9883 61.5965 62.9609 61.798 62.9059 61.9904C62.8509 62.1735 62.7685 62.3384 62.6494 62.485C62.5395 62.6315 62.4022 62.7597 62.2373 62.8696C62.0724 62.9795 61.8893 63.062 61.6786 63.1261C61.7793 63.1719 61.8709 63.236 61.9625 63.3001C62.0541 63.3734 62.1365 63.4558 62.2098 63.5566C62.2922 63.6573 62.3655 63.7672 62.4296 63.8954C62.5029 64.0237 62.567 64.1702 62.6311 64.3259L63.199 65.654C63.2539 65.7822 63.2814 65.8829 63.2997 65.9471C63.3181 66.0112 63.3272 66.057 63.3272 66.0936C63.3272 66.1302 63.3272 66.1669 63.3089 66.1944C63.2906 66.2218 63.2631 66.2402 63.2081 66.2585C63.1532 66.2768 63.0799 66.2859 62.9792 66.2951C62.8784 66.2951 62.741 66.3043 62.567 66.3043C62.4205 66.3043 62.3014 66.3043 62.219 66.2951C62.1365 66.2859 62.0633 66.2768 62.0175 66.2585C61.9625 66.2402 61.935 66.2127 61.9076 66.1852C61.8893 66.1577 61.8709 66.1211 61.8526 66.0753L61.2481 64.564C61.1749 64.39 61.1016 64.2435 61.0375 64.1061C60.9642 63.9779 60.8909 63.8588 60.8085 63.7764C60.7261 63.6848 60.6253 63.6207 60.5154 63.5749C60.4055 63.5291 60.2773 63.5108 60.1307 63.5108H59.7002V66.0844C59.7002 66.0844 59.6911 66.1486 59.6636 66.176C59.6453 66.2035 59.5995 66.2218 59.5537 66.2402C59.4988 66.2585 59.4346 66.2676 59.343 66.2859C59.2515 66.2951 59.1415 66.3043 59.0042 66.3043C58.8668 66.3043 58.766 66.3043 58.6744 66.2859C58.5828 66.2768 58.5187 66.2585 58.4638 66.2402C58.4088 66.2218 58.3722 66.2035 58.3539 66.176C58.3356 66.1486 58.3264 66.1211 58.3264 66.0844V59.9571V59.9387ZM59.8651 41.5383C57.6944 41.5841 55.5237 41.6574 53.3439 41.7123C52.1074 41.7398 50.8801 41.749 49.6437 41.7673C49.1674 41.7673 48.682 41.8039 48.2057 41.7947C45.9434 41.7581 43.6811 41.7032 41.428 41.6574C40.4846 41.639 39.5504 41.6116 38.607 41.5932C34.2016 41.5017 29.7961 41.4101 25.3906 41.3185C24.951 41.3093 24.5113 41.291 24.0717 41.236C24.6121 41.2177 25.1525 41.1903 25.6928 41.1811C28.0833 41.1261 30.4647 41.0803 32.8552 41.0345C35.6762 40.9796 38.4971 40.9155 41.309 40.8514C43.0766 40.8147 44.8535 40.7598 46.6212 40.7415C48.5171 40.7323 50.4222 40.7506 52.3181 40.7689C53.1516 40.7689 53.985 40.7873 54.8093 40.8147C56.7144 40.8697 58.6286 40.9338 60.5337 40.9796C63.9317 41.062 67.3297 41.1261 70.7185 41.2086C71.0208 41.2086 71.3139 41.2269 71.6161 41.2452C71.6161 41.2544 71.6161 41.2727 71.6161 41.2818C70.9933 41.3002 70.3613 41.3276 69.7385 41.3368C66.4413 41.4101 63.144 41.4742 59.8468 41.5475L59.8651 41.5383ZM59.3339 24.3926C59.4072 24.0171 59.5354 23.6965 59.7002 23.4401C59.8651 23.1745 60.0849 22.973 60.3597 22.8356C60.6253 22.6982 60.955 22.6249 61.3489 22.6249C61.7427 22.6249 62.0724 22.6891 62.338 22.8264C62.6037 22.9638 62.8052 23.1562 62.9609 23.4126C63.1166 23.6691 63.2173 23.9805 63.2814 24.3468C63.3455 24.7132 63.373 25.1345 63.373 25.5925C63.373 26.0504 63.3364 26.4717 63.2631 26.8472C63.1898 27.2228 63.0708 27.5342 62.8967 27.7998C62.7319 28.0654 62.5121 28.2669 62.2373 28.4043C61.9717 28.5417 61.642 28.6149 61.2481 28.6149C60.8543 28.6149 60.5246 28.5508 60.2681 28.4134C60.0117 28.276 59.801 28.0837 59.6545 27.8273C59.5079 27.5708 59.398 27.2594 59.3339 26.893C59.2698 26.5267 59.2423 26.1054 59.2423 25.6474C59.2423 25.1895 59.2789 24.7681 59.3522 24.4018L59.3339 24.3926ZM54.7635 27.7631C54.7635 27.6899 54.791 27.6258 54.8093 27.5708C54.8277 27.5158 54.8643 27.4609 54.9009 27.4059C54.9376 27.351 54.9834 27.296 55.0475 27.2319L56.0458 26.1603C56.2473 25.9497 56.403 25.7573 56.5312 25.5925C56.6595 25.4276 56.751 25.2627 56.8152 25.1253C56.8793 24.988 56.9342 24.8506 56.9525 24.7315C56.98 24.6124 56.9892 24.5025 56.9892 24.3926C56.9892 24.2919 56.9709 24.2003 56.9434 24.1087C56.9159 24.0171 56.8701 23.9438 56.806 23.8797C56.7419 23.8156 56.6686 23.7607 56.577 23.724C56.4854 23.6874 56.3755 23.6691 56.2473 23.6691C56.0733 23.6691 55.9176 23.6874 55.7802 23.7332C55.6428 23.779 55.5237 23.8248 55.423 23.8797C55.3222 23.9347 55.2307 23.9896 55.1665 24.0354C55.1024 24.0812 55.0475 24.1087 55.0017 24.1087C54.9742 24.1087 54.9559 24.1087 54.9284 24.0812C54.9101 24.0629 54.8918 24.0354 54.8826 23.9896C54.8734 23.9438 54.8643 23.8889 54.8551 23.8248C54.8551 23.7515 54.846 23.6691 54.846 23.5683C54.846 23.5042 54.846 23.4401 54.846 23.3943C54.846 23.3485 54.8551 23.3119 54.8643 23.2752C54.8734 23.2386 54.8826 23.2111 54.9009 23.1836C54.9192 23.1562 54.9376 23.1287 54.9834 23.092C55.02 23.0554 55.0933 23.0096 55.1849 22.9547C55.2856 22.8997 55.4047 22.8448 55.5512 22.7898C55.6978 22.7348 55.8535 22.6982 56.0366 22.6616C56.2198 22.6249 56.3938 22.6066 56.5862 22.6066C56.8884 22.6066 57.154 22.6433 57.3739 22.7165C57.6028 22.7898 57.786 22.8997 57.9326 23.0371C58.0791 23.1745 58.189 23.3302 58.2623 23.5225C58.3356 23.7057 58.3722 23.9072 58.3722 24.127C58.3722 24.3194 58.3539 24.5025 58.3172 24.6857C58.2806 24.8689 58.2073 25.0612 58.0974 25.2719C57.9875 25.4825 57.8227 25.7115 57.6212 25.968C57.4197 26.2244 57.1449 26.5175 56.806 26.8564L56.1282 27.5525H58.4088C58.4088 27.5525 58.4638 27.5525 58.4913 27.58C58.5187 27.5983 58.5371 27.6258 58.5554 27.6624C58.5737 27.699 58.5828 27.7448 58.592 27.8089C58.6012 27.8731 58.6012 27.9463 58.6012 28.0288C58.6012 28.1112 58.6012 28.1845 58.592 28.2486C58.592 28.3127 58.5737 28.3585 58.5554 28.3951C58.5371 28.4318 58.5187 28.4592 58.5004 28.4775C58.4821 28.4959 58.4455 28.505 58.418 28.505H55.0933C55.0292 28.505 54.9742 28.505 54.9192 28.4867C54.8643 28.4684 54.8368 28.4501 54.8002 28.4134C54.7635 28.3768 54.7452 28.331 54.7361 28.2669C54.7269 28.2028 54.7177 28.1203 54.7177 28.0104C54.7177 27.9097 54.7177 27.8273 54.7269 27.754L54.7635 27.7631ZM54.8368 37.2977C55.4596 37.316 55.9267 37.7923 55.9267 38.4059C55.9267 39.0104 55.423 39.5233 54.8277 39.505C54.0766 39.4867 53.7011 38.8639 53.7194 38.3693C53.7377 37.7648 54.2323 37.2702 54.8368 37.2885V37.2977ZM50.4496 35.9879C50.4496 36.1986 50.468 36.4184 50.5046 36.6291C50.5779 36.9954 50.8069 37.1969 51.1732 37.2152C51.5029 37.2427 51.8418 37.2244 52.1715 37.2336C52.2723 37.2336 52.3822 37.2336 52.5013 37.2336V39.3951H43.7361C43.7178 38.6898 43.7361 37.9938 43.7361 37.261C43.8368 37.2519 43.9193 37.2336 44.0017 37.2336C44.3406 37.2336 44.6886 37.2336 45.0275 37.2336C45.6045 37.2152 45.8335 37.0137 45.9159 36.4367C45.9343 36.3085 45.9434 36.1803 45.9434 36.0612C45.9434 34.1928 45.9434 32.3243 45.9434 30.4467C45.9434 30.2819 45.9251 30.117 45.8976 29.9521C45.8243 29.4942 45.5771 29.2652 45.1008 29.2469C44.7619 29.2286 44.4139 29.2469 44.075 29.2469C43.9742 29.2469 43.8643 29.2469 43.7453 29.2469V27.1129C43.9651 27.0487 49.7719 27.0213 50.413 27.0854C50.413 27.1953 50.4313 27.3052 50.4313 27.4151C50.4313 29.54 50.4313 31.6649 50.4313 33.7898C50.4313 34.5225 50.4313 35.2552 50.4313 35.9971L50.4496 35.9879ZM48.1141 21.3335C49.4513 21.3427 50.4588 22.3685 50.4496 23.7149C50.4496 25.0338 49.4238 26.0412 48.0866 26.0321C46.7494 26.0321 45.7419 25.0063 45.7419 23.6507C45.7419 22.3318 46.786 21.3152 48.1141 21.3244V21.3335ZM35.9601 34.6782C35.9784 31.9671 35.9601 29.2561 35.9601 26.545C35.9601 25.8306 35.9967 25.1162 36.1524 24.4109C36.1799 24.301 36.2074 24.182 36.2349 24.0721C36.6928 22.4143 37.7736 21.4343 39.4588 21.1137C40.677 20.8847 41.8951 20.903 43.095 21.2419C43.5804 21.3793 44.0383 21.5717 44.4505 21.8739C45.2199 22.4234 45.5771 23.1745 45.5221 24.127C45.4671 24.9696 44.8535 25.7756 44.075 25.9771C42.9118 26.2702 41.5929 25.4276 41.7944 23.9988C41.8677 23.5042 42.1333 23.1562 42.6279 23.0005C42.6736 22.9821 42.7194 22.973 42.7652 22.9547C42.7652 22.9547 42.7836 22.9455 42.811 22.918C42.3622 22.799 41.9226 22.7348 41.4738 22.8173C41.0708 22.8997 40.7869 23.1562 40.6587 23.5408C40.5671 23.8248 40.4938 24.127 40.4846 24.4293C40.4572 25.2719 40.4663 26.1145 40.4663 26.9571C40.4663 26.9846 40.4755 27.0121 40.4938 27.0854H42.637V29.2377C42.5729 29.2377 42.4905 29.2652 42.4172 29.2652C42.0783 29.2652 41.7303 29.2652 41.3914 29.2652C40.7686 29.2744 40.4663 29.5675 40.4663 30.1903C40.4663 31.1428 40.4663 32.0862 40.4663 33.0387C40.4663 34.0554 40.4663 35.072 40.4663 36.0978C40.4663 36.2902 40.4846 36.4917 40.5304 36.6749C40.6129 37.0229 40.8235 37.2152 41.1899 37.2427C41.5471 37.2702 41.9134 37.261 42.2798 37.261C42.3989 37.261 42.5088 37.261 42.6462 37.261V39.4134H34.1283C34.1283 39.4134 34.0917 39.3584 34.0733 39.3401C34.1191 39.3218 34.1741 39.3127 34.2107 39.2852C35.1266 38.5158 35.6212 37.5175 35.8227 36.3635C35.9235 35.8139 35.9692 35.2552 35.9784 34.7057L35.9601 34.6782ZM23.1924 31.0329C23.7145 29.0362 24.9601 27.6349 26.8927 26.8839C28.7336 26.1695 30.6021 26.1878 32.4522 26.8839C33.1116 27.1312 33.6978 27.4975 34.1832 28.0196C35.1266 29.0454 35.4472 30.2636 35.1083 31.6099C34.8061 32.8556 33.7619 33.5425 32.4797 33.3868C32.1683 33.3501 31.8569 33.2952 31.5729 33.1853C30.8768 32.9197 30.5013 32.3884 30.4555 31.6466C30.4464 31.4267 30.4464 31.1886 30.483 30.978C30.6387 30.1445 31.2798 29.5858 32.1499 29.485C32.2415 29.4759 32.3331 29.4667 32.4797 29.4484C32.3972 29.3568 32.3423 29.2835 32.2782 29.2286C31.5912 28.679 30.8127 28.4501 29.9426 28.6058C29.3931 28.7065 28.9809 29.0271 28.6512 29.4576C28.2757 29.9521 28.0467 30.5108 27.9276 31.1062C27.6162 32.6083 27.6437 34.1012 28.0101 35.5849C28.0925 35.9055 28.239 36.2169 28.4039 36.5008C28.7428 37.0779 29.2649 37.3893 29.9335 37.4809C30.254 37.5266 30.5746 37.5266 30.8952 37.4442C31.4905 37.2885 31.9026 36.8947 32.1774 36.3635C32.3789 35.9696 32.4888 35.5391 32.5529 35.1087C32.7636 35.0446 34.7053 35.0262 35.2091 35.0812C35.2091 35.1178 35.2365 35.1636 35.2365 35.2094C35.1816 36.2902 34.8976 37.2885 34.1924 38.1403C33.6154 38.8272 32.8735 39.276 32.0126 39.5142C30.1991 40.0271 28.3947 39.9813 26.6271 39.3218C24.9876 38.699 23.8977 37.5266 23.3573 35.8597C22.8444 34.2752 22.7894 32.6632 23.2107 31.0512L23.1924 31.0329ZM23.1833 53.1702C23.339 52.7214 23.5496 52.3551 23.8244 52.0437C24.0992 51.7414 24.4289 51.5125 24.8136 51.3568C25.1983 51.2011 25.6196 51.1186 26.0867 51.1186C26.279 51.1186 26.453 51.1369 26.6271 51.1644C26.8011 51.1919 26.9659 51.2377 27.1125 51.2835C27.259 51.3384 27.3964 51.3934 27.5155 51.4575C27.6346 51.5216 27.717 51.5766 27.7628 51.6315C27.8086 51.6773 27.8452 51.714 27.8635 51.7506C27.8818 51.7781 27.891 51.8239 27.9093 51.8697C27.9185 51.9155 27.9276 51.9796 27.9368 52.0437C27.9368 52.1078 27.9368 52.1902 27.9368 52.291C27.9368 52.3917 27.9368 52.4833 27.9276 52.5566C27.9276 52.6299 27.9093 52.6848 27.891 52.7306C27.8727 52.7764 27.8544 52.813 27.8269 52.8314C27.7994 52.8497 27.7719 52.8588 27.7445 52.8588C27.6895 52.8588 27.6254 52.8314 27.543 52.7672C27.4605 52.7031 27.3598 52.639 27.2316 52.5657C27.1033 52.4925 26.9568 52.4192 26.7736 52.3642C26.5996 52.3001 26.3889 52.2727 26.1416 52.2727C25.876 52.2727 25.6379 52.3276 25.4272 52.4375C25.2166 52.5474 25.0334 52.7031 24.8868 52.9046C24.7403 53.1061 24.6304 53.3534 24.548 53.6465C24.4655 53.9396 24.4289 54.2602 24.4289 54.6174C24.4289 55.0112 24.4747 55.3592 24.548 55.6432C24.6304 55.9363 24.7495 56.1744 24.896 56.3576C25.0517 56.5499 25.2349 56.6873 25.4455 56.7789C25.6562 56.8705 25.9035 56.9163 26.1691 56.9163C26.4164 56.9163 26.6271 56.8888 26.8011 56.8338C26.9751 56.7789 27.1308 56.7148 27.259 56.6415C27.3873 56.5682 27.488 56.5133 27.5704 56.4492C27.6529 56.3851 27.717 56.3667 27.7628 56.3667C27.7994 56.3667 27.8269 56.3667 27.8452 56.3851C27.8635 56.3942 27.8818 56.4308 27.9002 56.4675C27.9093 56.5041 27.9276 56.5682 27.9276 56.6415C27.9276 56.7148 27.9368 56.8155 27.9368 56.9438C27.9368 57.0262 27.9368 57.1086 27.9368 57.1636C27.9368 57.2277 27.9276 57.2735 27.9185 57.3193C27.9093 57.3651 27.891 57.4017 27.8727 57.4292C27.8544 57.4567 27.8269 57.4933 27.7903 57.5391C27.7536 57.5757 27.6803 57.6307 27.5704 57.6948C27.4605 57.7589 27.3231 57.8139 27.1674 57.878C27.0117 57.9329 26.8286 57.9787 26.6271 58.0245C26.4256 58.0611 26.2057 58.0795 25.9676 58.0795C25.5097 58.0795 25.0883 58.0062 24.7128 57.8688C24.3373 57.7223 24.0259 57.5116 23.7603 57.2277C23.5038 56.9438 23.3023 56.5866 23.1558 56.1652C23.0184 55.7439 22.9451 55.2493 22.9451 54.6815C22.9451 54.1136 23.0184 53.6007 23.1741 53.1519L23.1833 53.1702ZM28.9626 70.9754C28.6512 72.166 28.3398 73.3567 28.0284 74.5474C27.9368 74.8863 27.8727 74.9412 27.5246 74.9595C27.3781 74.9595 27.2316 74.9595 27.085 74.9595C26.6912 74.9412 26.6362 74.8954 26.5355 74.529C26.3706 73.8971 26.2149 73.256 26.0592 72.624C26.05 72.5782 26.0317 72.5324 25.9951 72.4316C25.9585 72.5599 25.931 72.6331 25.9127 72.7156C25.7661 73.3109 25.6287 73.9154 25.4822 74.5107C25.3906 74.8954 25.3265 74.9504 24.9235 74.9595C24.7861 74.9595 24.6487 74.9595 24.5113 74.9595C24.1358 74.9412 24.0809 74.9046 23.9801 74.5474C23.7694 73.7414 23.5588 72.9445 23.3481 72.1385C23.2382 71.7356 23.1375 71.3234 23.0367 70.9204C22.9543 70.5724 23.0367 70.4808 23.3848 70.4625C23.5038 70.4625 23.6229 70.4625 23.7328 70.4625C24.0259 70.4808 24.0625 70.5082 24.1266 70.7922C24.2824 71.4791 24.4381 72.166 24.5938 72.853C24.6396 73.0361 24.6853 73.2285 24.722 73.4117H24.7769C24.9784 72.5599 25.1799 71.7081 25.3814 70.8654C25.4639 70.5082 25.5005 70.4808 25.876 70.4625C25.9859 70.4625 26.0867 70.4625 26.1966 70.4625C26.508 70.4808 26.5629 70.5266 26.6362 70.8288C26.8286 71.6256 27.0301 72.4225 27.2224 73.2193C27.2407 73.3017 27.2682 73.3842 27.314 73.5307C27.4514 72.9445 27.5613 72.4316 27.6803 71.9187C27.7628 71.5432 27.8452 71.1769 27.9276 70.8013C27.9918 70.5174 28.0467 70.4716 28.349 70.4533C28.4863 70.4533 28.6237 70.4533 28.7611 70.4625C28.9351 70.4808 28.9992 70.5632 28.9901 70.7464C28.9901 70.8197 28.9626 70.9021 28.9443 70.9754H28.9626ZM30.6845 74.4283C30.6845 74.5199 30.6845 74.6023 30.6845 74.6939C30.6845 74.8405 30.5929 74.9321 30.4464 74.9504C30.2723 74.9687 30.0983 74.9687 29.9151 74.9504C29.6679 74.9321 29.6037 74.8588 29.6037 74.6206C29.6037 74.2818 29.6037 73.9337 29.6037 73.5948C29.6037 73.2926 29.6037 72.9903 29.6037 72.6881C29.6037 72.1019 29.6037 71.5157 29.6037 70.9296C29.6037 70.5357 29.6587 70.4899 30.0342 70.4716C30.6295 70.4441 30.6845 70.4991 30.6845 71.0944C30.6845 72.2118 30.6845 73.3292 30.6845 74.4466V74.4283ZM35.2915 74.3001C35.2915 74.3825 35.2915 74.4558 35.2915 74.5382C35.2732 74.7855 35.1449 74.9229 34.9068 74.9412C34.7328 74.9595 34.5496 74.9504 34.3756 74.9412C34.11 74.9229 33.9634 74.7397 33.8444 74.529C33.6612 74.1718 33.4688 73.8147 33.2857 73.4666C33.1025 73.1186 32.9193 72.7705 32.7361 72.4316C32.6995 72.3675 32.6628 72.3034 32.6262 72.2393H32.5804C32.5804 72.34 32.5713 72.4316 32.5713 72.5232C32.5713 73.201 32.5713 73.8696 32.5713 74.5474C32.5713 74.8954 32.5071 74.9504 32.1591 74.9687C31.6462 74.9962 31.5821 74.9321 31.5821 74.4283C31.5821 73.3201 31.5821 72.2118 31.5821 71.1127C31.5821 71.0486 31.5821 70.9754 31.5821 70.9112C31.6004 70.6548 31.7286 70.5082 31.9759 70.4899C32.1683 70.4808 32.3698 70.4899 32.5621 70.4899C32.8369 70.5082 33.0017 70.6823 33.1208 70.9112C33.4505 71.5341 33.7802 72.1569 34.11 72.7797C34.1558 72.8621 34.2016 72.9445 34.3023 73.0087V72.7339C34.3023 72.1202 34.3023 71.4974 34.3023 70.8838C34.3023 70.554 34.3664 70.4899 34.6961 70.4716C34.7145 70.4716 34.7328 70.4716 34.7511 70.4716C35.2274 70.4533 35.2915 70.5174 35.2915 70.9937C35.2915 72.1019 35.2915 73.2102 35.2915 74.3092V74.3001ZM39.8985 74.4924C39.8801 74.8038 39.7519 74.9137 39.4405 74.9504C38.9093 75.0145 38.5796 74.8221 38.3506 74.3276C38.03 73.6315 37.6453 72.972 37.2881 72.3034C37.2698 72.2668 37.2515 72.2393 37.1966 72.1569C37.1966 72.2851 37.1782 72.3492 37.1782 72.4225C37.1782 73.1369 37.1782 73.8513 37.1782 74.5657C37.1782 74.8954 37.1233 74.9504 36.7844 74.9687C36.7569 74.9687 36.7294 74.9687 36.6928 74.9687C36.244 74.9687 36.1799 74.9137 36.1799 74.4649C36.1799 73.3475 36.1799 72.2301 36.1799 71.1127C36.1799 71.0761 36.1799 71.0303 36.1799 70.9937C36.1891 70.5907 36.3173 70.4716 36.7203 70.4716C37.4713 70.4625 37.508 70.4716 37.856 71.1494C38.1674 71.7356 38.4788 72.3309 38.7902 72.9171C38.8085 72.9629 38.836 72.9995 38.8635 73.0361C38.8818 73.0361 38.9001 73.0361 38.9093 73.027C38.9093 72.3309 38.9093 71.6348 38.9093 70.9387C38.9093 70.8563 38.9093 70.783 38.9093 70.7006C38.9093 70.5724 38.9917 70.5082 39.1016 70.4716C39.1657 70.4533 39.239 70.4533 39.3031 70.4441C39.8252 70.4167 39.8801 70.4716 39.8801 70.9845C39.8801 72.0836 39.8801 73.1735 39.8801 74.2726C39.8801 74.3367 39.8801 74.41 39.8801 74.4741L39.8985 74.4924ZM43.1499 74.9504C42.5363 74.9504 41.9134 74.9504 41.2998 74.9504C40.9334 74.9504 40.8235 74.8405 40.8235 74.4741C40.8235 73.3017 40.8235 72.1202 40.8235 70.9479C40.8235 70.5815 40.9426 70.4808 41.309 70.4808C41.9226 70.4808 42.5454 70.4808 43.1591 70.4808C43.4522 70.4808 43.5163 70.5449 43.5254 70.8471C43.5254 70.8838 43.5254 70.9296 43.5254 70.9662C43.5254 71.3142 43.4613 71.3692 43.1041 71.3692C42.7103 71.3692 42.3256 71.3692 41.9043 71.3692V72.1935C42.005 72.2027 42.0875 72.221 42.1699 72.221C42.4447 72.221 42.7194 72.221 42.9942 72.221C43.214 72.221 43.2598 72.2759 43.2873 72.5049C43.2873 72.5415 43.2965 72.5873 43.2965 72.624C43.3056 72.9903 43.2323 73.0728 42.8568 73.0728C42.5454 73.0728 42.234 73.0728 41.9043 73.0728V74.0711C42.0142 74.0711 42.1058 74.0711 42.1974 74.0711C42.5271 74.0711 42.866 74.0711 43.1957 74.0711C43.4247 74.0711 43.4888 74.1261 43.5254 74.355C43.5346 74.4191 43.5438 74.4924 43.5346 74.5565C43.5254 74.8771 43.443 74.9504 43.1316 74.9504H43.1499ZM47.4089 74.9504C47.189 74.9687 46.9601 74.9595 46.7311 74.9504C46.5845 74.9504 46.5204 74.8313 46.4655 74.7031C46.3556 74.4283 46.2548 74.1535 46.1358 73.8879C46.0716 73.7414 46.0075 73.604 45.9343 73.4666C45.806 73.2468 45.6045 73.1827 45.3298 73.2285C45.3298 73.6864 45.3298 74.1077 45.3298 74.529C45.3298 74.8954 45.284 74.9504 44.9084 74.9595C44.7985 74.9595 44.6886 74.9595 44.5879 74.9595C44.3223 74.932 44.2673 74.8771 44.2582 74.6115C44.2582 74.3276 44.2582 74.0436 44.2582 73.7597C44.2582 72.8621 44.2582 71.9554 44.2582 71.0578C44.2582 70.9662 44.2582 70.8838 44.2582 70.7922C44.2856 70.6182 44.3864 70.4899 44.5604 70.4899C45.1741 70.4899 45.7969 70.4167 46.4014 70.5449C47.2165 70.7281 47.6012 71.4974 47.2898 72.2759C47.1799 72.5415 46.9875 72.7247 46.7219 72.8804C47.1066 73.3109 47.2532 73.8513 47.4821 74.355C47.5279 74.4558 47.5646 74.5565 47.592 74.6573C47.6287 74.8221 47.5646 74.9321 47.3905 74.9412L47.4089 74.9504ZM53.5637 71.4241C53.5362 71.6623 53.4172 71.7264 53.1973 71.6348C53.1332 71.6073 53.0783 71.5707 53.0142 71.5432C52.7302 71.4058 52.4372 71.3142 52.1166 71.3142C51.4846 71.3142 51.0541 71.6348 50.8984 72.2485C50.7977 72.6331 50.8068 73.027 50.9534 73.4025C51.1915 74.0253 51.8418 74.2909 52.4921 74.0253V73.1644C52.2998 73.1644 52.1349 73.1644 51.9609 73.1644C51.677 73.1644 51.6037 73.0911 51.5854 72.8072C51.5854 72.7247 51.5854 72.6331 51.6037 72.5415C51.622 72.395 51.7136 72.3126 51.8601 72.3126C52.3181 72.3126 52.776 72.3126 53.2431 72.3126C53.4355 72.3126 53.5637 72.4316 53.5637 72.624C53.5729 73.2376 53.5637 73.8604 53.5637 74.4741C53.5637 74.639 53.463 74.7489 53.3164 74.8038C52.5562 75.0786 51.7869 75.1519 51.0175 74.8679C50.413 74.6481 50.0375 74.1993 49.8543 73.5948C49.6894 73.0361 49.6894 72.4683 49.8543 71.9187C50.1199 71.0853 50.6969 70.5907 51.5579 70.4441C52.0342 70.3617 52.5104 70.3892 52.9775 70.5449C53.0874 70.5815 53.1973 70.6273 53.2981 70.6823C53.4721 70.7739 53.5637 70.9112 53.5637 71.1036C53.5637 71.2135 53.5637 71.3234 53.5637 71.4241ZM48.4621 68.6856C46.9051 68.7314 45.3481 68.649 43.791 68.6307C43.7269 68.6307 43.6537 68.6307 43.5895 68.6307C41.1075 68.5757 38.6162 68.5299 36.1341 68.4749C33.3498 68.42 30.5746 68.365 27.7903 68.3101C26.5446 68.2826 25.3082 68.246 24.0625 68.2093C23.916 68.2093 23.7694 68.191 23.6229 68.1635C23.8519 68.1544 24.0809 68.1361 24.319 68.1269C26.856 68.0719 29.3931 68.0078 31.921 67.9529C34.916 67.8888 37.911 67.8338 40.906 67.7697C42.7103 67.7331 44.5054 67.6964 46.3098 67.6506C48.8285 67.5865 51.3381 67.7239 53.8568 67.7605C54.8093 67.7789 55.7527 67.8063 56.7053 67.8247C61.0008 67.9162 65.2964 67.9987 69.6011 68.0903C70.1598 68.0994 70.7185 68.1269 71.2772 68.1452C71.2772 68.1544 71.2772 68.1727 71.2864 68.1819C70.5537 68.2002 69.821 68.2277 69.0882 68.246C65.8093 68.3192 62.5304 68.3834 59.2515 68.4475C57.4929 68.4841 55.7252 68.5207 53.9667 68.5574C52.1349 68.594 50.3031 68.6215 48.4805 68.6764L48.4621 68.6856ZM56.9709 74.6206C56.9434 74.8771 56.8793 74.9412 56.6137 74.9412C56.0366 74.9412 55.4596 74.9412 54.8826 74.9412C54.5529 74.9412 54.4338 74.8313 54.4338 74.5016C54.4338 73.2651 54.4338 72.0378 54.4338 70.8013C54.4338 70.554 54.4979 70.4808 54.7361 70.4625C54.9009 70.4441 55.0658 70.4533 55.2307 70.4625C55.4413 70.4808 55.4963 70.554 55.5054 70.7647C55.5054 70.8288 55.5054 70.9021 55.5054 70.9662C55.5054 71.8638 55.5054 72.7705 55.5054 73.6681V74.007C55.6336 74.007 55.7252 74.0253 55.8168 74.0253C56.0824 74.0253 56.348 74.0253 56.6045 74.0253C56.8793 74.0253 56.9434 74.0894 56.9617 74.3733C56.9617 74.4466 56.9617 74.5291 56.9617 74.6115L56.9709 74.6206ZM61.3672 73.604C61.1291 74.4558 60.4696 74.9778 59.5903 75.0236C59.3247 75.0328 59.0591 75.042 58.8027 74.9962C58.0425 74.8771 57.557 74.4283 57.3647 73.6773C57.2273 73.1186 57.209 72.5507 57.3372 71.992C57.5754 70.957 58.3081 70.3983 59.4346 70.3892C59.6361 70.4167 59.8468 70.4258 60.0483 70.4625C60.7535 70.5998 61.184 71.0395 61.3763 71.7172C61.5504 72.34 61.5504 72.972 61.3763 73.604H61.3672ZM64.8751 74.6664C64.5728 74.8496 64.2431 74.9321 63.8951 74.9412C63.4646 74.9595 63.0341 74.9504 62.6037 74.9412C62.3106 74.9412 62.1823 74.8221 62.1823 74.5382C62.1823 73.3201 62.1823 72.0928 62.1823 70.8746C62.1823 70.6273 62.2923 70.4899 62.5304 70.4899C63.0799 70.4899 63.6203 70.5174 64.1698 70.5357C64.234 70.5357 64.3072 70.5632 64.3713 70.5815C65.2323 70.838 65.4979 71.763 64.9117 72.4408C64.8934 72.4591 64.8751 72.4866 64.8385 72.5324C65.2048 72.7339 65.4246 73.027 65.4613 73.4208C65.5162 73.952 65.3422 74.3825 64.8751 74.6756V74.6664ZM69.5828 74.9687C68.8684 75.0328 68.8593 75.0236 68.6303 74.3367C68.5937 74.2268 68.5479 74.1169 68.5021 73.9887H67.0733C67 74.2085 66.9267 74.4283 66.8534 74.6481C66.7618 74.9229 66.7252 74.9504 66.4413 74.9687C66.3039 74.9687 66.1665 74.9687 66.0291 74.9687C65.8276 74.9504 65.7544 74.8496 65.791 74.6481C65.8093 74.5749 65.8368 74.5016 65.8551 74.4191C66.2673 73.2285 66.6794 72.0378 67.0916 70.838C67.2106 70.4991 67.2381 70.4808 67.5953 70.4625C67.7693 70.4625 67.9434 70.4625 68.1265 70.4625C68.3555 70.4625 68.4837 70.5632 68.557 70.783C68.7402 71.3509 68.9417 71.9096 69.1432 72.4774C69.3538 73.0911 69.5645 73.6956 69.7752 74.3092C69.8026 74.4008 69.8393 74.4924 69.8668 74.5932C69.94 74.8588 69.8668 74.9504 69.592 74.9778L69.5828 74.9687ZM72.935 74.7305C72.9075 74.8679 72.8251 74.9504 72.6694 74.9504C72.0466 74.9504 71.4146 74.9504 70.7918 74.9504C70.5537 74.9504 70.4438 74.8221 70.4163 74.584C70.4163 74.5382 70.4163 74.4833 70.4163 74.4375C70.4163 73.256 70.4163 72.0744 70.4163 70.8838C70.4163 70.5357 70.4712 70.4808 70.8193 70.4625C70.9658 70.4625 71.1124 70.4625 71.2589 70.4808C71.4055 70.4991 71.4879 70.5815 71.4879 70.7372C71.4879 70.8197 71.4879 70.8929 71.4879 70.9754C71.4879 71.8729 71.4879 72.7705 71.4879 73.6773V74.0436C71.8543 74.0436 72.1748 74.0436 72.4954 74.0436C72.8984 74.0436 72.9625 74.1169 72.9533 74.529C72.9533 74.5932 72.9533 74.6664 72.935 74.7305ZM73.0174 57.9054C73.0174 57.9054 72.9717 57.9512 72.9167 57.9696C72.8617 57.9879 72.7885 57.997 72.6877 58.0062C72.587 58.0062 72.4496 58.0154 72.2756 58.0154C72.129 58.0154 72.01 58.0154 71.9275 58.0062C71.8451 58.0062 71.7718 57.9879 71.726 57.9696C71.6711 57.9512 71.6436 57.9238 71.6161 57.8963C71.5978 57.8688 71.5795 57.8322 71.5612 57.7864L70.9567 56.2751C70.8834 56.1011 70.8101 55.9546 70.746 55.8172C70.6727 55.689 70.5995 55.5699 70.517 55.4875C70.4346 55.3959 70.3339 55.3318 70.224 55.286C70.114 55.2402 69.9858 55.2219 69.8393 55.2219H69.4088V57.7955C69.4088 57.7955 69.3996 57.8597 69.3722 57.8871C69.3538 57.9146 69.3081 57.9329 69.2623 57.9512C69.2073 57.9696 69.1432 57.9787 69.0516 57.997C68.96 58.0062 68.8501 58.0154 68.7127 58.0154C68.5753 58.0154 68.4746 58.0154 68.383 57.997C68.2914 57.9879 68.2273 57.9696 68.1723 57.9512C68.1174 57.9329 68.0807 57.9146 68.0624 57.8871C68.0441 57.8597 68.035 57.8322 68.035 57.7955V51.6682C68.035 51.5125 68.0716 51.4025 68.154 51.3384C68.2364 51.2743 68.328 51.2377 68.4471 51.2377H70.1965C70.3705 51.2377 70.517 51.2377 70.6361 51.2468C70.7552 51.2468 70.8559 51.2652 70.9475 51.2743C71.2223 51.311 71.4604 51.3751 71.6802 51.4758C71.9001 51.5674 72.0832 51.6956 72.2298 51.8422C72.3855 51.9887 72.4954 52.1719 72.5778 52.3826C72.6602 52.5932 72.6969 52.8222 72.6969 53.097C72.6969 53.3259 72.6694 53.5274 72.6145 53.7198C72.5595 53.903 72.4771 54.0678 72.358 54.2144C72.2481 54.3609 72.1107 54.4891 71.9458 54.599C71.781 54.709 71.5978 54.7914 71.3871 54.8555C71.4879 54.9013 71.5795 54.9654 71.6711 55.0295C71.7627 55.1028 71.8451 55.1852 71.9184 55.286C72.0008 55.3867 72.0741 55.4966 72.1382 55.6249C72.2115 55.7531 72.2756 55.8996 72.3397 56.0553L72.9075 57.3834C72.9625 57.5116 72.99 57.6124 73.0083 57.6765C73.0266 57.7406 73.0358 57.7864 73.0358 57.823C73.0358 57.8597 73.0358 57.8963 73.0174 57.9238V57.9054ZM69.0516 39.505C66.771 39.5142 65.1041 37.5816 65.1041 35.5025C65.1041 33.1303 67.1374 31.4817 69.0608 31.5C71.1765 31.5275 73.109 33.1944 73.0816 35.5025C73.1274 37.316 71.7444 39.4958 69.0516 39.505Z" fill="#98A2B3"/>
<path d="M60.6068 27.2503C60.68 27.406 60.7625 27.5251 60.8724 27.5892C60.9823 27.6533 61.1197 27.6808 61.2662 27.6808C61.3853 27.6808 61.486 27.6624 61.5776 27.6258C61.6692 27.5892 61.7425 27.5342 61.8158 27.4609C61.8799 27.3877 61.9348 27.2961 61.9806 27.177C62.0264 27.0579 62.0631 26.9297 62.0905 26.7832C62.118 26.6366 62.1363 26.4626 62.1455 26.2794C62.1546 26.0871 62.1638 25.8856 62.1638 25.6566C62.1638 25.3818 62.1638 25.1437 62.1455 24.9331C62.1272 24.7224 62.1089 24.5392 62.0722 24.3835C62.0447 24.2278 61.9989 24.0996 61.9531 23.9897C61.9074 23.8798 61.8524 23.7973 61.7883 23.7332C61.7242 23.6691 61.6509 23.6233 61.5685 23.5958C61.486 23.5684 61.3944 23.5592 61.2937 23.5592C61.1197 23.5592 60.9731 23.605 60.8541 23.6874C60.735 23.7699 60.6526 23.8981 60.5793 24.0721C60.5152 24.2461 60.4694 24.4568 60.4419 24.7041C60.4144 24.9514 60.4053 25.2536 60.4053 25.5925C60.4053 26.0047 60.4236 26.3435 60.4511 26.6183C60.4785 26.8931 60.5335 27.1037 60.6068 27.2594V27.2503Z" fill="#98A2B3"/>
</svg>
