<?xml version="1.0" encoding="UTF-8"?>
<svg id="Layer_1" xmlns="http://www.w3.org/2000/svg" version="1.1" viewBox="0 0 71 71">
  <!-- Generator: Adobe Illustrator 29.0.1, SVG Export Plug-In . SVG Version: 2.1.0 Build 192)  -->
  <defs>
    <style>
      .st0 {
        fill: gray;
      }
    </style>
  </defs>
  <path class="st0" d="M24.2,14.6l1.1,2.8,1.1-3,1.1,3,1.2-2.8h.7l-1.9,4.5-1.1-3-1.1,3-1.8-4.5h.7ZM30.6,14.6v4.2h-.6v-4.2h.6ZM31.8,18.8v-4.5l3.1,3.2v-2.9h.6v4.5l-3.1-3.2v2.9h-.6ZM36.6,18.8v-4.5l3.1,3.2v-2.9h.6v4.5l-3.1-3.2v2.9h-.6ZM43.7,15.2h-1.7v1h1.6v.6h-1.6v1.4h1.7v.6h-2.3v-4.2h2.3v.6ZM46.1,17l1.3,1.8h-.8l-1.2-1.7h-.1v1.7h-.6v-4.2h.7c.6,0,1,.1,1.2.3.3.2.4.5.4.9s0,.6-.3.8c-.2.2-.4.4-.7.4ZM45.3,16.5h.2c.6,0,.9-.2.9-.7s-.3-.6-.9-.6h-.2v1.3Z"/>
  <path class="st0" d="M29.1,24.5h1.3c0,.3,0,.6,0,.7,0,.2-.1.3-.3.5-.3.3-.7.5-1.1.5s-.8-.2-1.1-.5c-.3-.3-.5-.7-.5-1.2s.2-.8.5-1.2c.3-.3.7-.5,1.2-.5s.5,0,.7.2c.2.1.4.3.6.5l-.3.3c-.3-.3-.6-.5-.9-.5s-.6.1-.8.3c-.2.2-.3.5-.3.8s.1.6.4.9c.2.2.5.3.8.3s.4,0,.6-.2c.2-.2.3-.3.3-.6h-.8v-.4ZM31.6,23v2.7h.9v.4h-1.4v-3.2h.5ZM32.7,24.5c0-.4.2-.8.5-1.1.3-.3.7-.5,1.2-.5s.8.2,1.2.5c.3.3.5.7.5,1.2s-.2.8-.5,1.2c-.3.3-.7.5-1.2.5s-.8-.1-1.1-.4c-.4-.3-.5-.7-.5-1.2ZM33.2,24.5c0,.3.1.6.4.9.2.2.5.3.8.3s.6-.1.8-.3c.2-.2.3-.5.3-.8s-.1-.6-.3-.8c-.2-.2-.5-.3-.8-.3s-.6.1-.8.3c-.2.2-.3.5-.3.8ZM36.7,26.1v-3.2h.5c.2,0,.4,0,.5,0,.1,0,.2,0,.3.2,0,0,.2.2.2.3,0,.1,0,.2,0,.4,0,.2,0,.4-.3.6.2,0,.3.2.4.3,0,.1.1.3.1.5s0,.5-.3.6c-.1.1-.2.2-.4.2-.1,0-.3,0-.5,0h-.7ZM37.2,24.3h.1c.2,0,.3,0,.4-.1,0,0,.1-.2.1-.3s0-.3-.1-.3c0,0-.2-.1-.4-.1h-.2v.9ZM37.2,25.7h.3c.2,0,.4,0,.5-.1.1,0,.2-.2.2-.3s0-.3-.2-.3c0,0-.3-.1-.5-.1h-.2v1ZM41.1,25.4h-1.3l-.4.8h-.5l1.6-3.4,1.5,3.4h-.5l-.3-.8ZM40.9,24.9l-.5-1.1-.5,1.1h1ZM42.9,23v2.7h.9v.4h-1.4v-3.2h.5Z"/>
  <path class="st0" d="M7.7,35.4v-5h.8c.3,0,.6,0,.8,0,.2,0,.4.1.5.3.1.1.3.3.3.5,0,.2.1.4.1.6,0,.4-.1.7-.4.9.3,0,.5.2.6.5.2.2.2.5.2.8s-.1.7-.4,1c-.2.2-.4.3-.6.3-.2,0-.5,0-.9,0h-1.1ZM8.4,32.5h.2c.3,0,.5,0,.6-.2.1-.1.2-.3.2-.5s0-.4-.2-.5c-.1-.1-.3-.2-.6-.2h-.3v1.5ZM8.4,34.7h.5c.3,0,.6,0,.7-.2.2-.1.3-.3.3-.5s0-.4-.2-.5c-.2-.1-.4-.2-.8-.2h-.4v1.5ZM14.6,31.1h-2v1.2h1.9v.7h-1.9v1.7h2v.7h-2.8v-5h2.8v.7ZM18.7,31.1l-.6.4c-.1-.2-.2-.3-.3-.4-.1,0-.2-.1-.4-.1s-.4,0-.5.2c-.1.1-.2.3-.2.4s.2.4.5.6l.5.2c.4.2.7.4.9.6.2.2.3.5.3.9s-.2.8-.5,1.1c-.3.3-.7.5-1.1.5s-.8-.1-1.1-.4c-.3-.3-.5-.6-.5-1.1l.8-.2c0,.3,0,.5.2.6.2.2.4.3.7.3s.4,0,.6-.2c.2-.2.2-.4.2-.6s0-.2,0-.3c0,0,0-.2-.1-.2,0,0-.1-.1-.2-.2,0,0-.2-.1-.3-.2l-.5-.2c-.7-.3-1-.7-1-1.3s.1-.7.4-.9c.3-.3.6-.4,1.1-.4s1,.3,1.3.8ZM21.5,31.1v4.3h-.8v-4.3h-1.1v-.7h3v.7h-1.1ZM29.5,30.6v.9c-.4-.4-.9-.5-1.4-.5s-.9.2-1.3.6c-.4.4-.5.8-.5,1.3s.2,1,.5,1.3c.4.4.8.5,1.3.5s.5,0,.7-.1c.1,0,.2-.1.3-.2.1,0,.2-.2.4-.3v.9c-.4.2-.9.4-1.4.4-.7,0-1.3-.2-1.8-.7-.5-.5-.8-1.1-.8-1.8s.2-1.2.6-1.7c.5-.6,1.2-.9,2-.9s.9.1,1.3.4ZM31.5,30.4v3c0,.4,0,.7.2.9.2.3.5.4.9.4s.7-.1.9-.4c.1-.2.2-.5.2-.9v-3h.8v3.2c0,.5-.2,1-.5,1.3-.4.4-.8.6-1.4.6s-1-.2-1.4-.6c-.3-.3-.5-.8-.5-1.3v-3.2h.8ZM38.7,31.1l-.6.4c-.1-.2-.2-.3-.3-.4-.1,0-.2-.1-.4-.1s-.4,0-.5.2c-.1.1-.2.3-.2.4s.2.4.5.6l.5.2c.4.2.7.4.9.6.2.2.3.5.3.9s-.2.8-.5,1.1c-.3.3-.7.5-1.1.5s-.8-.1-1.1-.4c-.3-.3-.5-.6-.5-1.1l.8-.2c0,.3,0,.5.2.6.2.2.4.3.7.3s.4,0,.6-.2c.2-.2.2-.4.2-.6s0-.2,0-.3c0,0,0-.2-.1-.2,0,0-.1-.1-.2-.2,0,0-.2-.1-.3-.2l-.5-.2c-.7-.3-1-.7-1-1.3s.1-.7.4-.9c.3-.3.6-.4,1.1-.4s1,.3,1.3.8ZM41.5,31.1v4.3h-.8v-4.3h-1.1v-.7h3v.7h-1.1ZM43.2,32.8c0-.7.3-1.3.8-1.8.5-.5,1.1-.8,1.8-.8s1.3.3,1.8.8c.5.5.8,1.1.8,1.8s-.3,1.3-.8,1.8c-.5.5-1.1.8-1.9.8s-1.2-.2-1.7-.7c-.6-.5-.8-1.1-.8-1.9ZM44,32.9c0,.6.2,1,.6,1.4.4.4.8.5,1.3.5s1-.2,1.3-.5c.4-.4.5-.8.5-1.3s-.2-1-.5-1.3c-.4-.4-.8-.5-1.3-.5s-1,.2-1.3.5c-.4.4-.5.8-.5,1.3ZM49.5,35.4l1.1-5.4,1.7,3.9,1.8-3.9.9,5.4h-.8l-.5-3-1.5,3.2-1.4-3.2-.5,3h-.8ZM59,31.1h-2v1.2h1.9v.7h-1.9v1.7h2v.7h-2.8v-5h2.8v.7ZM62,33.2l1.5,2.1h-.9l-1.4-2h-.1v2h-.8v-5h.9c.7,0,1.1.1,1.4.4.3.3.5.6.5,1.1s-.1.7-.3.9c-.2.3-.5.4-.8.5ZM61,32.7h.2c.7,0,1.1-.3,1.1-.8s-.3-.8-1-.8h-.3v1.6ZM18.1,38.1h-2v1.2h1.9v.7h-1.9v1.7h2v.7h-2.8v-5h2.8v.7ZM20.4,39.7l-1.4-2.4h.9l1,1.7,1-1.7h.9l-1.4,2.4,1.5,2.6h-.8l-1.1-1.9-1.1,1.9h-.9l1.6-2.6ZM24.5,40.3v2h-.8v-5h.9c.4,0,.7,0,.9,0,.2,0,.4.2.6.3.3.3.4.6.4,1.1s-.2.8-.5,1.1c-.3.3-.7.4-1.2.4h-.3ZM24.5,39.6h.3c.7,0,1-.3,1-.8s-.4-.8-1.1-.8h-.2v1.6ZM30.3,38.1h-2v1.2h1.9v.7h-1.9v1.7h2v.7h-2.8v-5h2.8v.7ZM33.2,40.2l1.5,2.1h-.9l-1.4-2h-.1v2h-.8v-5h.9c.7,0,1.1.1,1.4.4.3.3.5.6.5,1.1s-.1.7-.3.9c-.2.3-.5.4-.8.5ZM32.3,39.6h.2c.7,0,1.1-.3,1.1-.8s-.3-.8-1-.8h-.3v1.6ZM36.6,37.3v5h-.8v-5h.8ZM40.8,38.1h-2v1.2h1.9v.7h-1.9v1.7h2v.7h-2.8v-5h2.8v.7ZM42,42.3v-5.3l3.6,3.8v-3.5h.8v5.3l-3.6-3.8v3.5h-.8ZM51.6,37.6v.9c-.4-.4-.9-.5-1.4-.5s-.9.2-1.3.6c-.4.4-.5.8-.5,1.3s.2,1,.5,1.3c.4.4.8.5,1.3.5s.5,0,.7-.1c.1,0,.2-.1.3-.2.1,0,.2-.2.4-.3v.9c-.4.2-.9.4-1.4.4-.7,0-1.3-.2-1.8-.7-.5-.5-.8-1.1-.8-1.8s.2-1.2.6-1.7c.5-.6,1.2-.9,2-.9s.9.1,1.3.4ZM55.6,38.1h-2v1.2h1.9v.7h-1.9v1.7h2v.7h-2.8v-5h2.8v.7ZM22.5,49.3v-5h.7c.3,0,.6,0,.8,0,.2,0,.4.1.5.3.1.1.3.3.3.5,0,.2.1.4.1.6,0,.4-.1.7-.4.9.3,0,.5.2.6.5.2.2.2.5.2.8s-.1.7-.4,1c-.2.2-.4.3-.6.3-.2,0-.5,0-.9,0h-1.1ZM23.3,46.5h.2c.3,0,.5,0,.6-.2.1-.1.2-.3.2-.5s0-.4-.2-.5c-.1-.1-.3-.2-.6-.2h-.3v1.5ZM23.3,48.6h.5c.3,0,.6,0,.7-.2.2-.1.3-.3.3-.5s0-.4-.2-.5c-.2-.1-.4-.2-.8-.2h-.4v1.5ZM28.4,47.2l1.5,2.1h-.9l-1.4-2h-.1v2h-.8v-5h.9c.7,0,1.1.1,1.4.4.3.3.5.6.5,1.1s-.1.7-.3.9c-.2.3-.5.4-.8.5ZM27.5,46.6h.2c.7,0,1.1-.3,1.1-.8s-.3-.8-1-.8h-.3v1.6ZM30.6,46.8c0-.7.3-1.3.8-1.8.5-.5,1.1-.8,1.8-.8s1.3.3,1.8.8c.5.5.8,1.1.8,1.8s-.3,1.3-.8,1.8c-.5.5-1.1.8-1.9.8s-1.2-.2-1.7-.7c-.6-.5-.8-1.1-.8-1.9ZM31.4,46.8c0,.6.2,1,.6,1.4.4.4.8.5,1.3.5s1-.2,1.3-.5c.4-.4.5-.8.5-1.3s-.2-1-.5-1.3c-.4-.4-.8-.5-1.3-.5s-1,.2-1.3.5c-.4.4-.5.8-.5,1.3ZM37.8,46.3l1.9-2h1l-2.3,2.3,2.3,2.7h-1l-1.8-2.2-.2.2v2.1h-.8v-5h.8v2ZM44.4,45h-2v1.2h1.9v.7h-1.9v1.7h2v.7h-2.8v-5h2.8v.7ZM47.4,47.2l1.5,2.1h-.9l-1.4-2h-.1v2h-.8v-5h.9c.7,0,1.1.1,1.4.4.3.3.5.6.5,1.1s-.1.7-.3.9c-.2.3-.5.4-.8.5ZM46.4,46.6h.2c.7,0,1.1-.3,1.1-.8s-.3-.8-1-.8h-.3v1.6Z"/>
  <path class="st0" d="M31.3,56.2h1.2v.4h-2.1l1.1-1.3c.1-.1.2-.2.3-.3,0,0,.1-.2.2-.2,0-.1.1-.2.1-.3,0-.1,0-.3-.2-.4-.1,0-.2-.1-.4-.1-.3,0-.5.2-.5.6h-.5c0-.7.4-1,1-1s.5,0,.7.3c.2.2.3.4.3.7s0,.3-.1.5c0,0-.1.2-.2.3,0,.1-.2.3-.3.4l-.5.6ZM33.1,55c0-.5.1-.9.4-1.2.2-.3.5-.4.8-.4s.6.1.8.4c.2.3.4.7.4,1.2s-.1.9-.4,1.2c-.2.3-.5.4-.8.4s-.6-.1-.8-.4c-.2-.3-.4-.7-.4-1.2ZM33.5,55c0,.3,0,.6.2.9.1.2.3.3.5.3s.3-.1.5-.3c.1-.2.2-.5.2-.9s0-.6-.2-.9c-.1-.2-.3-.3-.5-.3s-.3.1-.5.3c-.1.2-.2.5-.2.8ZM36.6,56.2h1.2v.4h-2.1l1.1-1.3c.1-.1.2-.2.3-.3,0,0,.1-.2.2-.2,0-.1.1-.2.1-.3,0-.1,0-.3-.2-.4-.1,0-.2-.1-.4-.1-.3,0-.5.2-.5.6h-.5c0-.7.4-1,1-1s.5,0,.7.3c.2.2.3.4.3.7s0,.3-.1.5c0,0-.1.2-.2.3,0,.1-.2.3-.3.4l-.5.6ZM40.3,55.7h.3v.4h-.3v.4h-.5v-.4h-1.5l2-2.9v2.5ZM39.8,55.7v-1.1l-.7,1.1h.7Z"/>
  <path class="st0" d="M11.4,55.5l.7.5.3-.5-.7-.5.2-.3.7.5.6-1,.3.2-1.3,2.1-1.1-.7.2-.3Z"/>
  <path class="st0" d="M9.7,54.8l1.5-2,.3.2-1.5,2-.3-.2Z"/>
  <path class="st0" d="M10.2,52l-1.9,1.9v-2.7s-1.2,1.3-1.2,1.3l-.3-.3,1.9-1.9v2.7s1.2-1.3,1.2-1.3l.3.3Z"/>
  <path class="st0" d="M6.3,48.6l.6.9h.7c0-.1.2.2.2.2l-2.9.6,1.5-2.6.2.3-.3.6ZM6.1,48.9l-.5.8.9-.2-.5-.6Z"/>
  <path class="st0" d="M5.8,46.8l-2.4,1.2.9-2.5-1.6.8-.2-.3,2.4-1.2-.9,2.5,1.6-.8.2.3Z"/>
  <path class="st0" d="M1.3,42.5h.4c-.1.1-.1.4,0,.6,0,.2.2.4.5.5.2.1.5.1.7,0,.3,0,.4-.2.6-.5.1-.2.1-.5,0-.7,0-.1,0-.2-.2-.3,0,0,0,0-.1-.1,0,0-.1,0-.2-.1h.4c.2,0,.3.2.4.5.1.3,0,.7,0,1-.2.3-.4.5-.8.6-.3.1-.6,0-.9,0-.4-.2-.6-.4-.8-.8,0-.2,0-.4,0-.7Z"/>
  <path class="st0" d="M.9,39.6l.2,1h.6c0-.1-.2-1.1-.2-1.1h.4c0,0,.2.9.2.9l.8-.2-.2-1h.4c0,0,.3,1.3.3,1.3l-2.5.5-.3-1.4h.4Z"/>
  <path class="st0" d="M2.7,36.3l-2.7-.7,2-.8-1.9-1,2.7-.3v.4s-1.6.2-1.6.2l1.6.8-1.7.6,1.5.4v.4Z"/>
  <path class="st0" d="M2.7,30.6l-.2,1.1.5.4v.4c0,0-2.4-1.8-2.4-1.8l2.9-.6v.4c0,0-.7.1-.7.1ZM2.3,30.7l-.9.2.8.6.2-.8Z"/>
  <path class="st0" d="M2.9,27.5l.4-1h0c.2.1.3.2.4.3.1,0,.2.2.3.3.2.3.2.6,0,1-.1.3-.4.6-.7.7-.3.1-.7.1-1,0-.3-.1-.6-.4-.7-.7-.1-.3-.2-.7,0-1,0-.2.2-.3.3-.5.1-.1.3-.2.5-.3v.3c-.2,0-.4.3-.5.6,0,.2,0,.5,0,.7.1.2.3.4.5.5.3.1.5,0,.8,0,.2-.1.4-.3.5-.5,0-.2,0-.4,0-.5,0-.2-.2-.3-.3-.4l-.2.6h-.3Z"/>
  <path class="st0" d="M5.1,25.9l-2.3-1.4,2.6-.6-1.5-.9.2-.3,2.3,1.4-2.6.6,1.5.9-.2.3Z"/>
  <path class="st0" d="M7.5,21.3l-.7.8.3.6-.3.3-1.3-2.7,2.8.8-.3.3-.6-.2ZM7.1,21.2l-.9-.3.4.9.5-.6Z"/>
  <path class="st0" d="M8,18.4l1.5,1.6-.3.3-1.5-1.6-.4.4-.2-.3,1.1-1,.2.3-.4.4Z"/>
  <path class="st0" d="M10.6,16.3l-.8.6.4.5.8-.6.2.3-.8.6.5.7.8-.6.2.3-1.1.8-1.5-2,1.1-.8.2.3Z"/>
  <path class="st0" d="M13.1,14.8l-.2.3c0,0-.2,0-.2,0,0,0-.1,0-.2,0,0,0-.2.1-.2.2,0,0,0,.2,0,.2,0,.1.2.1.4.1h.3c.2,0,.4,0,.5,0,.1,0,.3.2.3.3.1.2.1.4,0,.6,0,.2-.2.4-.4.5-.2.1-.4.1-.6,0-.2,0-.4-.2-.5-.4l.3-.3c0,.1.2.2.2.2.1,0,.2,0,.4,0,.1,0,.2-.1.2-.2,0-.1,0-.2,0-.3,0,0,0,0,0-.1,0,0,0,0-.1,0,0,0,0,0-.1,0,0,0-.1,0-.2,0h-.3c-.4,0-.6,0-.8-.3,0-.2-.1-.3,0-.5,0-.2.2-.3.4-.4.3-.1.5-.1.8,0Z"/>
  <path class="st0" d="M59.4,16.6l-.9-.6-.6.4-.3-.2,2.5-1.5-.5,2.9-.3-.2v-.7ZM59.5,16.2l.2-.9-.8.5.6.4Z"/>
  <path class="st0" d="M61,18.5l1.9-1.9v2.7s1.2-1.3,1.2-1.3l.3.3-1.9,1.9v-2.7s-1.2,1.3-1.2,1.3l-.3-.3Z"/>
  <path class="st0" d="M63.9,21.5l2.2-1.5-.6,2.6,1.5-1,.2.3-2.2,1.5.6-2.6-1.5,1-.2-.3Z"/>
  <path class="st0" d="M68.7,24.3l-1.4.6c-.2,0-.3.2-.4.3,0,.2,0,.3,0,.5,0,.2.2.3.4.3.1,0,.3,0,.5,0l1.4-.6.2.3-1.5.7c-.2.1-.5.1-.7,0-.3,0-.4-.3-.5-.5-.1-.2-.1-.5,0-.7,0-.2.3-.4.5-.5l1.5-.7.2.3Z"/>
  <path class="st0" d="M68.6,29.7l-.3-1.1h-.7c0-.1,0-.5,0-.5l2.9.6-2.3,1.8v-.4c0,0,.4-.4.4-.4ZM68.9,29.5l.7-.6-.9-.2.2.7Z"/>
  <path class="st0" d="M71,32.3l-2.2.2v.7c0,0-.3,0-.3,0v-1.1c0,0,2.4-.2,2.4-.2v.4Z"/>
  <path class="st0" d="M68.9,38.9l.2-1.1-.6-.4v-.4c0,0,2.5,1.7,2.5,1.7l-2.9.7v-.4c0,0,.7-.2.7-.2ZM69.2,38.8l.9-.2-.8-.5v.8Z"/>
  <path class="st0" d="M70.2,42h-1.8s1.4,1.3,1.4,1.3h-1.9s1.3,1.2,1.3,1.2l-.2.4-2.1-2h1.9s-1.4-1.2-1.4-1.2h2.9s-.2.4-.2.4Z"/>
  <path class="st0" d="M65.7,46.9l.6-.9-.4-.6.2-.3,1.6,2.5-2.9-.4.2-.4h.7ZM66.1,47l.9.2-.5-.8-.4.6Z"/>
  <path class="st0" d="M64.1,49.8h-1.3c0-.1.3-.5.3-.5l1.3.2h0c0,0-.8-.7-.8-.7l.3-.3,1.9,1.7-.3.3c-.2.2-.4.4-.6.4-.2,0-.4,0-.6-.2-.1-.1-.2-.3-.2-.4,0-.2,0-.3,0-.5ZM64.6,49.7h0c-.2.4-.3.6,0,.8.2.2.4.1.6-.1h0c0-.1-.6-.6-.6-.6Z"/>
  <path class="st0" d="M61.6,50.9l1.6,2-.4.3c-.2.2-.4.3-.5.3-.2,0-.3,0-.5,0-.4,0-.6-.2-.9-.5-.2-.3-.3-.6-.3-1,0-.2,0-.3.2-.5,0-.1.2-.3.4-.4l.4-.3ZM61.5,51.5h-.1c-.1.2-.2.3-.3.4,0,.1-.1.2-.1.3,0,.3,0,.5.2.7.2.2.4.3.6.4.2,0,.5,0,.7-.3h.1c0-.1-1.1-1.5-1.1-1.5Z"/>
  <path class="st0" d="M58.3,55.8l.2-.3c0,0,.2,0,.2,0,0,0,.1,0,.2,0,0,0,.2-.1.2-.2,0,0,0-.2,0-.2,0-.1-.2-.2-.4-.1h-.3c-.2,0-.4,0-.5,0-.1,0-.3-.2-.3-.3-.1-.2-.1-.4,0-.6,0-.2.2-.4.4-.5.2-.1.4-.1.6,0,.2,0,.4.2.5.4l-.3.3c0-.1-.2-.2-.2-.2-.1,0-.2,0-.4,0-.1,0-.2.1-.2.2,0,.1,0,.2,0,.3,0,0,0,0,0,.1,0,0,0,0,.1,0,0,0,0,0,.1,0,0,0,.1,0,.2,0h.3c.4,0,.6,0,.8.3,0,.2.1.3,0,.5,0,.2-.2.3-.4.4-.3.1-.5.1-.8,0Z"/>
</svg>