<?xml version="1.0" encoding="utf-8"?>
<!-- Generator: Adobe Illustrator 24.1.2, SVG Export Plug-In . SVG Version: 6.00 Build 0)  -->
<svg version="1.1" id="Layer_1" xmlns="http://www.w3.org/2000/svg" xmlns:xlink="http://www.w3.org/1999/xlink" x="0px" y="0px"
	 viewBox="0 0 492 688" style="enable-background:new 0 0 492 688;" xml:space="preserve">
<style type="text/css">
	.st0{fill:url(#SVGID_1_);}
	.st1{fill:url(#SVGID_2_);}
	.st2{fill:#D7E1F5;}
	.st3{fill:url(#SVGID_3_);}
	.st4{fill:url(#SVGID_4_);}
	.st5{opacity:0.3;fill:#0071AB;}
	.st6{fill:url(#SVGID_5_);}
	.st7{fill:url(#SVGID_6_);}
	.st8{fill:#78E8FF;}
	.st9{fill:#1B1B19;}
	.st10{fill:#144C5E;}
	.st11{fill:url(#SVGID_7_);}
	.st12{fill:url(#SVGID_8_);}
	.st13{fill:url(#SVGID_9_);}
	.st14{fill:#FCFDFE;}
	.st15{fill:#06BF7F;}
	.st16{fill:url(#SVGID_10_);}
	.st17{fill:#A48BF6;}
	.st18{fill:url(#SVGID_11_);}
	.st19{filter:url(#Adobe_OpacityMaskFilter);}
	.st20{filter:url(#Adobe_OpacityMaskFilter_1_);}
	.st21{mask:url(#SVGID_12_);fill:url(#SVGID_13_);}
	.st22{fill:url(#SVGID_14_);}
	.st23{opacity:0.5;}
	.st24{fill:#FFFFFF;}
	.st25{fill:#F0ECFD;}
	.st26{fill:#FF73B3;}
	.st27{fill:#C00058;}
	.st28{fill:#FFCE4B;}
	.st29{fill:#C08D05;}
	.st30{fill:#9BEF51;}
	.st31{fill:#5EB020;}
	.st32{fill:#63DCF9;}
	.st33{fill:#189BBA;}
	.st34{fill:none;}
	.st35{fill:#00D4FF;}
	.st36{fill:url(#SVGID_15_);}
	.st37{opacity:0.3;fill:#FFFFFF;}
	.st38{fill:#B0EFFF;}
	.st39{fill:url(#SVGID_16_);}
	.st40{fill:url(#SVGID_17_);}
</style>
<linearGradient id="SVGID_1_" gradientUnits="userSpaceOnUse" x1="41.1763" y1="-51.3277" x2="277.8046" y2="-51.3277" gradientTransform="matrix(0.866 -0.5 0 1 116.5447 435.4365)">
	<stop  offset="0" style="stop-color:#FFFFFF"/>
	<stop  offset="1" style="stop-color:#F6F7FC"/>
</linearGradient>
<path class="st0" d="M152.2,553l0-378.9c0-13.9,9.8-30.8,21.8-37.8l161.3-93.1c12-7,21.8-1.3,21.8,12.6l0,378.9
	c0,13.9-9.8,30.8-21.8,37.8L174,565.6C162,572.5,152.2,566.9,152.2,553z"/>
<linearGradient id="SVGID_2_" gradientUnits="userSpaceOnUse" x1="18.1966" y1="119.3405" x2="301.0793" y2="-222.3497" gradientTransform="matrix(0.866 -0.5 0 1 116.5447 435.4365)">
	<stop  offset="0" style="stop-color:#49C0FC"/>
	<stop  offset="1" style="stop-color:#CCBFFF"/>
</linearGradient>
<path class="st1" d="M352.8,58.3l0,378.9c0,11.1-7.8,24.7-17.4,30.2L174,560.5c-9.6,5.6-17.4,1-17.4-10.1l0-378.9
	c0-11.1,7.8-24.6,17.4-30.2l161.3-93.1C344.9,42.7,352.8,47.1,352.8,58.3z"/>
<path class="st2" d="M371,496.7L187.3,602.8c-5.9,3.4-15.3,3.4-21.2,0l-0.2-0.1c-5.9-3.4-5.9-8.9,0-12.2l183.7-106.1
	c5.9-3.4,15.3-3.4,21.2,0l0.2,0.1C376.8,487.9,376.8,493.4,371,496.7z"/>
<g>
	<linearGradient id="SVGID_3_" gradientUnits="userSpaceOnUse" x1="160.701" y1="567.9512" x2="160.6733" y2="568.0012">
		<stop  offset="0" style="stop-color:#F9FAFD"/>
		<stop  offset="0.3073" style="stop-color:#F6F7FC"/>
		<stop  offset="0.5164" style="stop-color:#EDEFF9"/>
		<stop  offset="0.6962" style="stop-color:#DEE1F4"/>
		<stop  offset="0.8586" style="stop-color:#C9CEED"/>
		<stop  offset="1" style="stop-color:#AFB6E5"/>
	</linearGradient>
	<path class="st3" d="M160.6,567.9c0.1,0,0.2,0.1,0.2,0.1c0,0,0,0,0,0C160.7,568,160.6,568,160.6,567.9z"/>
	<linearGradient id="SVGID_4_" gradientUnits="userSpaceOnUse" x1="313.8516" y1="64.0933" x2="57.0244" y2="527.0579">
		<stop  offset="0" style="stop-color:#F9FAFD"/>
		<stop  offset="0.3073" style="stop-color:#F6F7FC"/>
		<stop  offset="0.5164" style="stop-color:#EDEFF9"/>
		<stop  offset="0.6962" style="stop-color:#DEE1F4"/>
		<stop  offset="0.8586" style="stop-color:#C9CEED"/>
		<stop  offset="1" style="stop-color:#AFB6E5"/>
	</linearGradient>
	<path class="st4" d="M152.2,553l0-378.9c0-13.9,9.8-30.8,21.8-37.8l161.3-93.1c6.4-3.7,12.2-3.8,16.2-1c0,0,0,0,0-0.1
		c-0.8-0.9-11.6-7.9-12.6-8.4c-3.9-2-9.2-1.6-15,1.8l-161.3,93.1c-12,7-21.8,23.9-21.8,37.8l0,378.9c0,6.5,2.2,11.3,5.7,13.7
		c0.9,0.6,6.8,4.7,10.7,7.1C154.1,563.6,152.2,559.1,152.2,553z"/>
</g>
<path class="st5" d="M314.7,211.1c-14.6-8.4-33.8-6.8-54.3,4.6v11.5c-0.7,0.4-1.4,0.7-2.2,1.1c-38.3,22.1-69.4,76-69.4,120.2
	c0,22.9,8.4,38.7,21.9,45.6l-6.8,11.8c14.8,7.9,34.2,5.7,54.8-6.2c21.1-12.2,41-33.2,56-59.2c15-26,23.2-53.7,23.2-78.1
	C337.9,237.9,329.7,219.7,314.7,211.1z M258.2,242.3c31.6-18.2,57.2-3.4,57.2,33c0,36.4-25.7,80.9-57.2,99.1
	c-31.6,18.2-57.2,3.4-57.2-33C200.9,305,226.6,260.5,258.2,242.3z"/>
<g>
	
		<linearGradient id="SVGID_5_" gradientUnits="userSpaceOnUse" x1="251.5885" y1="522.4393" x2="352.0687" y2="401.0706" gradientTransform="matrix(0.866 -0.5 0 1 1.8736 2.5059)">
		<stop  offset="0" style="stop-color:#38A0FE"/>
		<stop  offset="1" style="stop-color:#A8ECFE"/>
	</linearGradient>
	<path class="st6" d="M263.2,393.6c-38.3,22.1-69.4,4.1-69.4-40.1c0-44.2,31.1-98.1,69.4-120.2c38.3-22.1,69.4-4.1,69.4,40.1
		C332.6,317.6,301.5,371.5,263.2,393.6z M263.2,247.4C231.7,265.6,206,310,206,346.5c0,36.4,25.7,51.3,57.2,33
		c31.6-18.2,57.2-62.7,57.2-99.1C320.4,244,294.8,229.1,263.2,247.4z"/>
	<linearGradient id="SVGID_6_" gradientUnits="userSpaceOnUse" x1="208.8944" y1="313.1415" x2="342.984" y2="313.1415">
		<stop  offset="0" style="stop-color:#7D40C9"/>
		<stop  offset="1" style="stop-color:#9F92F7"/>
	</linearGradient>
	<path class="st7" d="M263.7,404.7c-20.6,11.9-40,14.1-54.8,6.2l11.8-20.4c11.7,6.1,26.9,4.3,43.1-5c16.7-9.6,32.4-26.2,44.3-46.8
		c11.8-20.5,18.4-42.4,18.4-61.7c0-19.3-6.5-33.7-18.4-40.5c-11.4-6.6-26.5-5.4-42.6,3.4l0-19.2c20.5-11.4,39.8-13,54.3-4.6
		c15,8.7,23.2,26.9,23.2,51.3c0,24.4-8.3,52.2-23.2,78.1C304.8,371.4,284.9,392.5,263.7,404.7z"/>
</g>
<polygon class="st8" points="289.5,307.4 237.1,337.6 237.1,314.5 289.5,284.3 "/>
<g>
	<path class="st9" d="M356,641.2c1.8,2.3,3.1,7,3.8,7.9c0.6,0.9,4.1,8.4-0.8,10.2c-4.9,1.7-9.1-2.4-11.5-3c-2.4-0.6-11.9,0.3-14-1.1
		c-2.2-1.4-4.4-3.7-2.4-5.4c2-1.6,8-1,9.8-1.8c1.8-0.8,6.3-3.7,8.6-4.6C351.8,642.4,354.2,638.9,356,641.2z"/>
	<path class="st9" d="M318.3,666.5c0.7,1.7,4.1,7.3,1.7,11.7c-1.8,3.4-8.1,1.8-12.2,1.8c-4.1,0-7.4-0.4-13.1,0.4
		c-12.3,1.7-19.8-0.3-21-3.2c-1-2.3,0.8-3.2,5.8-3.4c3.5-0.1,12.2-3.5,14.7-5.5c11.9-10,12.3-8.5,14.5-8.9
		C311.3,658.7,315.2,659.3,318.3,666.5z"/>
	<path class="st10" d="M331.5,502.7l-18,83l0.1-3.6l6.6,81.3c0.5,5.6-3.7,10.4-9.2,10.9c-5.4,0.4-10.1-3.4-10.8-8.7l-10.9-80.8
		c-0.1-1-0.1-2,0-2.9l0.1-0.7l13.6-83.8c1.3-7.9,8.7-13.3,16.6-12c7.9,1.3,13.3,8.7,12,16.6C331.6,502.2,331.6,502.5,331.5,502.7z"
		/>
	<path class="st10" d="M353.8,495.9l-0.7,75.2l-0.1-1.6l9.6,73.2c0.7,5.5-3.2,10.6-8.7,11.3c-5.3,0.7-10.2-2.9-11.2-8.1l-13.7-72.5
		c-0.1-0.3-0.1-0.6-0.1-0.9l0-0.8l-4-75.1c-0.4-8,5.7-14.8,13.7-15.2c8-0.4,14.8,5.7,15.2,13.7C353.8,495.3,353.8,495.6,353.8,495.9
		z"/>
	
		<linearGradient id="SVGID_7_" gradientUnits="userSpaceOnUse" x1="627.6051" y1="118.7798" x2="587.9799" y2="116.2397" gradientTransform="matrix(-0.3799 0.925 0.925 0.3799 404.2123 -88.7532)">
		<stop  offset="0" style="stop-color:#E89492"/>
		<stop  offset="7.403362e-02" style="stop-color:#E99A98"/>
		<stop  offset="0.4304" style="stop-color:#ECB4B3"/>
		<stop  offset="0.7502" style="stop-color:#EDC4C2"/>
		<stop  offset="1" style="stop-color:#EEC9C8"/>
	</linearGradient>
	<path class="st11" d="M291.6,500.4c0,0-5.6,8-7.4,9.3c-1.7,1.3-10.7,5.8-11.6,6.9c-0.9,1.1-5.3,11.6-5.8,13c-0.6,1.4,1,1.6,1.9,0.4
		c0.9-1.2,4.1-7.7,4.1-7.7s-0.4,4.7-0.6,5.5c-0.2,0.8,0.3,7.4,0.4,7.9c0.1,0.5,1.6,0.5,1.7-0.7c0.1-1.2,0-6.9,0-6.9s0.9,6.4,1,7.2
		c0.1,0.7,1.8,0.7,1.8-0.4c0-1.1-0.2-6.7-0.2-6.7l2.1-4.8c0,0-0.5,8.2-0.5,9.2c0,1,1.6,1,1.9-0.6c0.2-1.6,2.1-9,2.1-9
		s5.2-2.8,6.7-4.9c1.5-2.1,2.4-6.5,2.4-6.5l5.4-5L291.6,500.4z"/>
	
		<linearGradient id="SVGID_8_" gradientUnits="userSpaceOnUse" x1="541.4218" y1="403.7566" x2="522.238" y2="402.8602" gradientTransform="matrix(0.9919 0.127 -0.127 0.9919 -183.43 -64.8862)">
		<stop  offset="0" style="stop-color:#E85F5A"/>
		<stop  offset="1" style="stop-color:#EEC9C8"/>
	</linearGradient>
	<path class="st12" d="M298,396.6c0,0-6.3,0-7,0.1c-0.6,0.1-7.9,3-9.2,3.5c-1.3,0.5-0.6,2,1.1,1.7c1.6-0.2,8.8-2.3,8.8-2.3l3.2,0.8
		c0,0-5.9,1.4-7.2,2.2c-0.6,0.4-2.7,2.8-3.3,3.6c-0.8,1.1,0.6,1.8,1.6,1.1c1-0.8,3.4-2.9,3.4-2.9l6.2-1.3l-5.9,1.5
		c0,0-1.8,1.6-2.7,2.6c-0.8,0.8,0.2,1.8,1.3,1.1c1.4-0.9,3.8-2.2,3.8-2.2l4.3,0.5c0,0,3.3,2.8,4.9,2.7
		C302.9,409.4,302.2,399.2,298,396.6z"/>
	
		<linearGradient id="SVGID_9_" gradientUnits="userSpaceOnUse" x1="529.0907" y1="392.4332" x2="548.4158" y2="416.1337" gradientTransform="matrix(0.9919 0.127 -0.127 0.9919 -183.43 -64.8862)">
		<stop  offset="0" style="stop-color:#EEC9C8"/>
		<stop  offset="0.3361" style="stop-color:#EDC5C4"/>
		<stop  offset="0.644" style="stop-color:#ECBBB9"/>
		<stop  offset="0.9401" style="stop-color:#E9A9A7"/>
		<stop  offset="1" style="stop-color:#E8A4A2"/>
	</linearGradient>
	<path class="st13" d="M314.7,411.9c-3-2.2-7.6-5.6-8-5.9c-0.4-0.3-2.4-5.3-3.4-6.7c-1.1-1.4-8.5-6.4-10-6.9c-1.4-0.5-6.7-1.1-8.2-1
		c-1.5,0-2.2,1.6,0.9,2.3c3.1,0.7,6.1,1.4,6.1,1.4s5.7,3.5,6.2,4.4s0.7,5.9,0.7,5.9l-3.1-1.1c0,0-4.8-2-6-2.6
		c-1.1-0.6-2.9,1.2-1.1,2.5c1.7,1.3,7.1,4.3,7.9,5.2c0.7,0.9,2.9,3.3,4.7,4c1.9,0.8,4.9,1.5,4.9,1.5s2.7,2.2,4.8,3.4
		C313.2,419.5,317.7,414.1,314.7,411.9z"/>
	<path class="st14" d="M313.6,409.4c-2.6-1.5-4.6-2.6-6.1-3.5c-2.2-1.2-7.6,7.7-5.6,9c2.5,1.6,4.6,3.1,6.4,4.1
		C311.4,420.7,316.3,410.9,313.6,409.4z"/>
	<path class="st15" d="M357.3,440.2c5-7.2-2.9-16.4-10.6-18.6c-5.7-1.6-31-12.9-35.1-14.5c-4.2-1.5-9.3,9-6.6,11.7
		C308.6,422.5,346.5,455.6,357.3,440.2z"/>
	
		<linearGradient id="SVGID_10_" gradientUnits="userSpaceOnUse" x1="532.8591" y1="370.6485" x2="562.9581" y2="387.2437" gradientTransform="matrix(0.9976 -6.940000e-02 6.940000e-02 0.9976 -242.5705 35.3091)">
		<stop  offset="0" style="stop-color:#EEC9C8"/>
		<stop  offset="0.2498" style="stop-color:#EDC4C2"/>
		<stop  offset="0.5696" style="stop-color:#ECB4B3"/>
		<stop  offset="0.926" style="stop-color:#E99A98"/>
		<stop  offset="1" style="stop-color:#E89492"/>
	</linearGradient>
	<path class="st16" d="M349.7,367.2c0.7-2.6,2.6-18.6-9-22.9c-4.8-1.8-17.1-2-22,2.6c-5.8,5.5-5.8,14.9-5.2,16.1
		c0.6,1.2,1.3,1.7,1.3,3.7c0,2-1.4,5-1.1,6.8c0.3,1.7,4.1,12.4,4.7,13.6c0.5,1.1,3,1.4,5.9,1.1c0.7-0.1,1.5-0.1,2.2-0.2
		c1.6,4.5,1.7,7.4,2.2,15.7l0,0c0,0.2,0,0.3,0,0.5c0.6,6.4,6.3,11.2,12.7,10.6c6.4-0.6,11.2-6.3,10.6-12.7c-0.1-1.3-0.4-2.4-0.9-3.5
		l0,0c-4.8-11.2-4.9-11.8-5.5-23.5C347.6,372,349.3,368.8,349.7,367.2z"/>
	<path class="st14" d="M319.5,387c-0.5-1.1-4.3-11.9-4.7-13.6c-0.3-1.7,1.1-4.8,1.1-6.8c0-2-0.7-2.5-1.3-3.7
		c-0.6-1.2-0.6-10.6,5.2-16.1c2.9-2.7,8.4-3.8,13.5-3.8c-5.3-0.1-11.4,0.8-14.5,3.8c-5.8,5.5-5.8,14.9-5.2,16.1
		c0.6,1.2,1.3,1.7,1.3,3.7c0,2-1.4,5-1.1,6.8c0.3,1.7,4.1,12.4,4.7,13.6c0.5,0.9,2.3,1.2,4.5,1.2C321.3,388.2,319.9,387.8,319.5,387
		z"/>
	<path class="st14" d="M329.8,405c0-0.2,0-0.3,0-0.5l0,0c-0.4-8.6-0.6-11.6-2.2-16.3c-0.4,0-0.7,0.1-1.1,0.1
		c1.6,4.6,1.8,7.6,2.2,16.1l0,0c0,0.2,0,0.3,0,0.5c0.6,6.7,6.5,11.6,13.1,11c0,0,0,0,0.1,0C335.7,416,330.4,411.3,329.8,405z"/>
	<path class="st10" d="M336,341.5c0,0-18-3.4-21.8,2c-2.9,4,1.5,7.9,1.6,7.9c0.3,0.3,0.4,0.7,0.4,1.3c-0.1,1.6-1,6.3-0.3,7.3
		c0.7,1,3.2,3.2,3,8.1l2.2,1.4c0,0-1.9-8.7,1.2-9.6c3.1-0.8,5.6,9.3,6.9,12.4c1.2,3.1,7.2,9.9,16,5.4c2.4-1.2,7.1-5.1,6.8-19.6
		C351.8,350.9,349.6,343,336,341.5z"/>
	<path class="st17" d="M325.4,396.1c1.3-4.1,20.3-16.4,23.2-11.3c2.6,4.6,6.2,11,6.2,11l-32.4,11.7
		C322.5,407.5,324.2,400.2,325.4,396.1z"/>
	<path class="st15" d="M358.4,498.5c0.3-19.9-2.9-40.7-2.6-46c0.3-5.3,13.1-45.9,5-61.1c-6.7-12.6-38.6,11.8-48.7,21.8
		c-11.8,11.7-4.5,49.8-4.5,49.8s-4.3,30.1-7.1,47.1C297.2,530.6,358.1,516.3,358.4,498.5z"/>
	<path class="st15" d="M331.3,424.5c0.7-3.3-0.1-6.9-2.4-9.7c-4.1-5-11.5-5.8-16.5-1.8c-2.5,2-3.9,4.8-4.3,7.8l0,0
		c-2.7,23.3-3.7,31.9-5.9,50.9l0,0c-0.3,2.5,0.4,5,2,7.1c3.3,4.1,9.3,4.7,13.4,1.4c1.8-1.4,2.9-3.4,3.4-5.5
		C324.8,456,326.6,447.5,331.3,424.5z"/>
	<path class="st14" d="M285.4,504.3c-1.6,2.6-2.8,4.5-3.6,6c-1.3,2.2,7.5,7.8,8.9,5.8c1.7-2.4,3.2-4.5,4.3-6.3
		C296.7,506.9,287,501.7,285.4,504.3z"/>
	<path class="st15" d="M317.4,461.5c-7.1-5.2-16.4,2.4-18.9,10.1c-1.8,5.6-13.8,30.6-15.4,34.7c-1.6,4.1,8.7,9.5,11.5,6.9
		C298.4,509.7,332.6,472.7,317.4,461.5z"/>
</g>
<g>
	
		<linearGradient id="SVGID_11_" gradientUnits="userSpaceOnUse" x1="-81.2049" y1="159.0601" x2="25.3595" y2="98.6274" gradientTransform="matrix(-1 0 0 1 56.3531 0)">
		<stop  offset="0" style="stop-color:#49C0FC"/>
		<stop  offset="1" style="stop-color:#CCBFFF"/>
	</linearGradient>
	<path class="st18" d="M42.5,176C42.5,176,42.5,176,42.5,176c-0.1-0.1-0.1-0.1-0.1-0.1c0,0,0,0-0.1-0.1c0,0,0,0-0.1,0
		c0,0-0.1,0-0.1-0.1c0,0,0,0-0.1,0c0,0-0.1,0-0.1-0.1c0,0,0,0-0.1-0.1c0,0,0,0-0.1,0c0,0-0.1,0-0.1-0.1c0,0-0.1,0-0.1-0.1
		c0,0,0,0-0.1,0c0,0-0.1,0-0.1-0.1c0,0,0,0-0.1,0c0,0-0.1,0-0.1-0.1c0,0-0.1,0-0.1-0.1c0,0,0,0-0.1,0c0,0-0.1,0-0.1-0.1
		c0,0-0.1,0-0.1-0.1c0,0,0,0-0.1,0c0,0-0.1,0-0.1-0.1c0,0,0,0-0.1,0c0,0-0.1,0-0.1-0.1c0,0-0.1,0-0.1-0.1c0,0,0,0-0.1-0.1
		c0,0-0.1,0-0.1-0.1c0,0,0,0-0.1,0c0,0,0,0-0.1-0.1c0,0-0.1,0-0.1-0.1c0,0,0,0-0.1,0c0,0-0.1,0-0.1-0.1c0,0-0.1,0-0.1-0.1
		c0,0,0,0-0.1,0c0,0-0.1,0-0.1-0.1c0,0,0,0-0.1,0c0,0,0,0-0.1,0c0,0-0.1,0-0.1-0.1c0,0,0,0-0.1,0c0,0-0.1,0-0.1-0.1c0,0,0,0-0.1,0
		c0,0,0,0-0.1-0.1c0,0-0.1,0-0.1-0.1c0,0,0,0-0.1,0c0,0-0.1,0-0.1-0.1c0,0-0.1,0-0.1-0.1c0,0,0,0-0.1,0c0,0-0.1,0-0.1-0.1
		c0,0,0,0-0.1,0c0,0-0.1,0-0.1-0.1c0,0-0.1,0-0.1-0.1c0,0,0,0-0.1,0c0,0-0.1,0-0.1-0.1c0,0,0,0-0.1,0c0,0-0.1,0-0.1-0.1
		c0,0,0,0-0.1-0.1c0,0,0,0-0.1,0c0,0-0.1,0-0.1-0.1c0,0-0.1,0-0.1-0.1c0,0,0,0-0.1,0c0,0-0.1,0-0.1-0.1c0,0,0,0-0.1,0
		c0,0-0.1,0-0.1-0.1c0,0-0.1,0-0.1-0.1c0,0,0,0-0.1,0c0,0,0,0-0.1,0c0,0-0.1,0-0.1-0.1c0,0,0,0-0.1,0c0,0-0.1,0-0.1-0.1
		c0,0,0,0-0.1,0c0,0-0.1,0-0.1-0.1c0,0-0.1,0-0.1-0.1c0,0,0,0-0.1-0.1c0,0-0.1,0-0.1-0.1c0,0,0,0-0.1,0c0,0,0,0-0.1-0.1
		c0,0-0.1,0-0.1-0.1c0,0,0,0-0.1,0c0,0-0.1,0-0.1-0.1c0,0,0,0-0.1-0.1c0,0,0,0-0.1,0c0,0-0.1,0-0.1-0.1c0,0,0,0-0.1,0
		c0,0-0.1,0-0.1-0.1c0,0,0,0-0.1,0c0,0,0,0-0.1,0c0,0-0.1,0-0.1-0.1c0,0,0,0-0.1,0c0,0,0,0-0.1-0.1c0,0-0.1,0-0.1-0.1c0,0,0,0-0.1,0
		c0,0-0.1,0-0.1-0.1c0,0-0.1,0-0.1-0.1c0,0,0,0-0.1,0c0,0-0.1,0-0.1-0.1c0,0,0,0-0.1,0c0,0-0.1,0-0.1-0.1c0,0-0.1,0-0.1-0.1
		c0,0,0,0-0.1,0c0,0-0.1,0-0.1-0.1c0,0,0,0-0.1,0c0,0-0.1,0-0.1-0.1c0,0,0,0-0.1,0c0,0,0,0-0.1,0c0,0-0.1,0-0.1-0.1
		c0,0-0.1,0-0.1-0.1c0,0,0,0-0.1,0c0,0-0.1,0-0.1-0.1c0,0,0,0-0.1,0c0,0,0,0-0.1-0.1c0,0-0.1,0-0.1-0.1c0,0,0,0-0.1,0c0,0,0,0-0.1,0
		c0,0-0.1,0-0.1-0.1c0,0,0,0-0.1,0c0,0-0.1,0-0.1-0.1c0,0,0,0-0.1,0c0,0,0,0-0.1-0.1c0,0-0.1,0-0.1-0.1c0,0,0,0-0.1,0
		c0,0-0.1,0-0.1-0.1c0,0,0,0-0.1,0c0,0,0,0-0.1-0.1c0,0-0.1,0-0.1-0.1c0,0,0,0-0.1,0c0,0-0.1,0-0.1-0.1c0,0-0.1,0-0.1-0.1
		c0,0,0,0-0.1,0c0,0-0.1,0-0.1-0.1c0,0,0,0-0.1,0c0,0-0.1,0-0.1-0.1c0,0,0,0-0.1,0c0,0,0,0-0.1,0c0,0-0.1,0-0.1-0.1c0,0,0,0-0.1,0
		c0,0,0,0-0.1-0.1c0,0-0.1,0-0.1-0.1c0,0,0,0-0.1,0c0,0-0.1,0-0.1-0.1c0,0-0.1,0-0.1-0.1c0,0,0,0-0.1,0c0,0-0.1,0-0.1-0.1
		c0,0,0,0-0.1,0c0,0-0.1,0-0.1-0.1c0,0-0.1,0-0.1-0.1c0,0,0,0-0.1,0c0,0,0,0-0.1-0.1c0,0-0.1,0-0.1-0.1c0,0,0,0-0.1-0.1
		c0,0-0.1,0-0.1-0.1c0,0,0,0-0.1,0c0,0-0.1,0-0.1-0.1c0,0-0.1,0-0.1-0.1c0,0,0,0-0.1,0c0,0-0.1,0-0.1-0.1c0,0,0,0-0.1,0
		c0,0,0,0-0.1-0.1c0,0-0.1,0-0.1-0.1c0,0,0,0-0.1,0c0,0,0,0-0.1,0c0,0-0.1,0-0.1-0.1c0,0,0,0-0.1,0c0,0-0.1,0-0.1-0.1c0,0,0,0-0.1,0
		c0,0-0.1,0-0.1-0.1c0,0,0,0-0.1-0.1c0,0,0,0-0.1,0c0,0-0.1,0-0.1-0.1c0,0,0,0-0.1,0c0,0,0,0-0.1,0c0,0-0.1,0-0.1-0.1c0,0,0,0-0.1,0
		c0,0-0.1,0-0.1-0.1c0,0-0.1,0-0.1-0.1c0,0,0,0-0.1,0c0,0-0.1,0-0.1-0.1c0,0,0,0-0.1,0c0,0-0.1,0-0.1-0.1c0,0,0,0-0.1,0
		c0,0,0,0-0.1,0c0,0-0.1,0-0.1-0.1c0,0,0,0-0.1,0c0,0,0,0-0.1-0.1c0,0-0.1-0.1-0.1-0.1c0,0-0.1,0-0.1-0.1c0,0-0.1,0-0.1-0.1
		c0,0,0,0-0.1-0.1c0,0,0,0-0.1-0.1c0,0,0,0-0.1,0c0,0,0,0-0.1-0.1c0,0-0.1,0-0.1-0.1c0,0,0,0-0.1,0c0,0-0.1,0-0.1-0.1
		c0,0-0.1,0-0.1-0.1c0,0,0,0-0.1-0.1c0,0-0.1,0-0.1-0.1c0,0,0,0-0.1,0c0,0-0.1,0-0.1-0.1c0,0-0.1,0-0.1-0.1c0,0,0,0-0.1,0
		c0,0-0.1,0-0.1-0.1c0,0,0,0-0.1,0c0,0,0,0-0.1-0.1c0,0-0.1,0-0.1-0.1c0,0,0,0-0.1,0c0,0-0.1,0-0.1-0.1c0,0,0,0-0.1,0c0,0,0,0-0.1,0
		c0,0-0.1,0-0.1-0.1c0,0,0,0-0.1,0c0,0-0.1,0-0.1-0.1c0,0-0.1,0-0.1-0.1c0,0,0,0-0.1,0c0,0-0.1,0-0.1-0.1c0,0,0,0-0.1-0.1
		c0,0,0,0-0.1,0c0,0-0.1,0-0.1-0.1c0,0,0,0-0.1,0c0,0-0.1,0-0.1-0.1c0,0-0.1,0-0.1-0.1c0,0,0,0-0.1,0c0,0-0.1,0-0.1-0.1
		c0,0,0,0-0.1,0c0,0-0.1,0-0.1-0.1c0,0-0.1,0-0.1-0.1c0,0,0,0-0.1,0c0,0-0.1,0-0.1-0.1c0,0-0.1,0-0.1-0.1c0,0,0,0-0.1,0
		c0,0-0.1,0-0.1-0.1c0,0,0,0-0.1,0c0,0-0.1,0-0.1-0.1c0,0-0.1,0-0.1-0.1c0,0,0,0-0.1-0.1c0,0,0,0-0.1-0.1c0,0,0,0-0.1,0
		c0,0,0,0-0.1-0.1c0,0-0.1,0-0.1-0.1c0,0,0,0-0.1,0c0,0-0.1,0-0.1-0.1c0,0-0.1,0-0.1-0.1c0,0,0,0-0.1,0c0,0-0.1,0-0.1-0.1
		c0,0,0,0-0.1,0c0,0,0,0-0.1,0c0,0,0,0-0.1-0.1c0,0,0,0-0.1,0c0,0-0.1,0-0.1-0.1c0,0,0,0-0.1,0c0,0,0,0-0.1-0.1c0,0-0.1,0-0.1-0.1
		c0,0,0,0-0.1,0c0,0-0.1,0-0.1-0.1c0,0,0,0-0.1,0c0,0,0,0-0.1,0c0,0-0.1,0-0.1-0.1c0,0,0,0-0.1,0c0,0-0.1,0-0.1-0.1c0,0,0,0-0.1-0.1
		c0,0,0,0-0.1,0c0,0-0.1,0-0.1-0.1c0,0,0,0-0.1,0c0,0-0.1,0-0.1-0.1c0,0,0,0-0.1-0.1c0,0,0,0-0.1,0c0,0-0.1,0-0.1-0.1
		c0,0-0.1,0-0.1-0.1c0,0,0,0-0.1,0c0,0-0.1,0-0.1-0.1c0,0,0,0-0.1,0c0,0-0.1,0-0.1-0.1c0,0-0.1,0-0.1-0.1c0,0,0,0-0.1,0
		c0,0-0.1,0-0.1-0.1c0,0-0.1,0-0.1-0.1c0,0,0,0-0.1,0c0,0-0.1,0-0.1-0.1c0,0,0,0-0.1,0c0,0-0.1,0-0.1-0.1c0,0-0.1,0-0.1-0.1
		c0,0,0,0-0.1-0.1c0,0-0.1,0-0.1-0.1c0,0,0,0-0.1,0c0,0,0,0-0.1-0.1c0,0-0.1,0-0.1-0.1c0,0,0,0-0.1,0c0,0-0.1,0-0.1-0.1
		c0,0,0,0-0.1-0.1c0,0,0,0-0.1,0c0,0-0.1,0-0.1-0.1c0,0,0,0-0.1,0c0,0,0,0-0.1,0c0,0-0.1,0-0.1-0.1c0,0,0,0-0.1,0c0,0-0.1,0-0.1-0.1
		c0,0,0,0-0.1,0c0,0,0,0-0.1-0.1c0,0-0.1,0-0.1-0.1c-3-2.1-4.8-5.9-4.8-11.2c0-11.8,12.2-31.1,22.7-32.1
		c-1.9-15.6,10.5-34.8,24.9-43.1c8.5-4.8,16-5.2,21-1.8c0,0,0.1,0,0.1,0.1c0,0,0,0,0.1,0.1c0,0,0,0,0.1,0.1c0,0,0.1,0,0.1,0.1
		c0,0,0,0,0.1,0c0,0,0.1,0,0.1,0.1c0,0,0.1,0,0.1,0.1c0,0,0,0,0.1,0c0,0,0.1,0,0.1,0.1c0,0,0,0,0.1,0c0,0,0,0,0.1,0
		c0,0,0.1,0,0.1,0.1c0,0,0,0,0.1,0c0,0,0.1,0,0.1,0.1c0,0,0,0,0.1,0.1c0,0,0,0,0.1,0.1c0,0,0.1,0,0.1,0.1c0,0,0,0,0.1,0
		c0,0,0,0,0.1,0c0,0,0.1,0,0.1,0.1c0,0,0,0,0.1,0c0,0,0.1,0,0.1,0.1c0,0,0,0,0.1,0.1c0,0,0,0,0.1,0c0,0,0.1,0,0.1,0.1c0,0,0,0,0.1,0
		c0,0,0,0,0.1,0c0,0,0.1,0,0.1,0.1c0,0,0,0,0.1,0c0,0,0.1,0,0.1,0.1c0,0,0,0,0.1,0.1c0,0,0,0,0.1,0c0,0,0.1,0,0.1,0.1c0,0,0,0,0.1,0
		c0,0,0.1,0,0.1,0.1c0,0,0.1,0,0.1,0.1c0,0,0,0,0.1,0c0,0,0.1,0,0.1,0.1c0,0,0,0,0.1,0c0,0,0.1,0,0.1,0.1c0,0,0,0,0.1,0.1
		c0,0,0,0,0.1,0c0,0,0.1,0,0.1,0.1c0,0,0,0,0.1,0.1c0,0,0,0,0.1,0.1c0,0,0.1,0,0.1,0.1c0,0,0,0,0.1,0.1c0,0,0,0,0.1,0
		c0,0,0,0,0.1,0.1c0,0,0,0,0.1,0c0,0,0.1,0,0.1,0.1c0,0,0,0,0.1,0c0,0,0,0,0.1,0c0,0,0.1,0,0.1,0.1c0,0,0,0,0.1,0c0,0,0.1,0,0.1,0.1
		c0,0,0,0,0.1,0c0,0,0,0,0,0c7.5-7.1,14.4-7.6,19.1-4.4c0,0,0.1,0,0.1,0.1c0,0,0.1,0,0.1,0.1c0,0,0,0,0.1,0c0,0,0,0,0.1,0.1
		c0,0,0,0,0.1,0c0,0,0.1,0,0.1,0.1c0,0,0.1,0,0.1,0.1c0,0,0,0,0.1,0c0,0,0.1,0.1,0.1,0.1c0,0,0.1,0,0.1,0.1c0,0,0.1,0,0.1,0.1
		c0,0,0,0,0.1,0c0,0,0.1,0,0.1,0.1c0,0,0,0,0.1,0.1c0,0,0,0,0.1,0.1c0,0,0.1,0,0.1,0.1c0,0,0,0,0.1,0c0,0,0.1,0,0.1,0.1
		c0,0,0,0,0.1,0c0,0,0,0,0.1,0.1c0,0,0.1,0,0.1,0.1c0,0,0,0,0.1,0c0,0,0.1,0,0.1,0.1c0,0,0,0,0.1,0c0,0,0.1,0,0.1,0.1
		c0,0,0.1,0,0.1,0.1c0,0,0,0,0.1,0c0,0,0,0,0.1,0.1c0,0,0,0,0.1,0c0,0,0,0,0.1,0.1c0,0,0,0,0.1,0.1c0,0,0,0,0.1,0c0,0,0,0,0.1,0
		c0,0,0.1,0,0.1,0.1c0,0,0.1,0,0.1,0.1c0,0,0,0,0.1,0c0,0,0,0,0.1,0c0,0,0,0,0.1,0c0.1,0,0.1,0.1,0.2,0.1c0,0,0,0,0.1,0.1
		c0,0,0,0,0.1,0.1c0,0,0,0,0.1,0c0.1,0,0.1,0.1,0.2,0.1c0,0,0,0,0.1,0c0,0,0.1,0,0.1,0.1c0,0,0,0,0.1,0c0,0,0.1,0,0.1,0.1
		c0,0,0,0,0.1,0c0,0,0,0,0.1,0c0,0,0.1,0,0.1,0.1c0,0,0,0,0.1,0c0,0,0.1,0,0.1,0.1c0,0,0.1,0,0.1,0.1c0,0,0,0,0.1,0
		c0,0,0.1,0,0.1,0.1c0,0,0.1,0,0.1,0.1c0,0,0,0,0.1,0c0,0,0.1,0,0.1,0.1c0,0,0,0,0.1,0.1c0,0,0,0,0.1,0.1c0,0,0.1,0,0.1,0.1
		c0,0,0,0,0.1,0c0,0,0.1,0,0.1,0.1c0,0,0,0,0.1,0c0,0,0,0,0.1,0c0.1,0,0.1,0.1,0.2,0.1c0,0,0.1,0,0.1,0.1c0,0,0,0,0.1,0.1
		c0,0,0,0,0.1,0c0.1,0,0.1,0.1,0.2,0.1c0,0,0,0,0.1,0.1c0,0,0,0,0.1,0c0,0,0.1,0,0.1,0.1c0,0,0,0,0.1,0.1c0,0,0,0,0.1,0
		c0,0,0,0,0.1,0.1c0,0,0.1,0,0.1,0.1c0,0,0.1,0,0.1,0.1c0,0,0,0,0.1,0c0,0,0,0,0.1,0.1c0,0,0,0,0.1,0c0,0,0.1,0,0.1,0.1
		c0,0,0,0,0.1,0.1c0,0,0,0,0.1,0c0,0,0.1,0,0.1,0.1c0,0,0,0,0.1,0c0,0,0.1,0,0.1,0.1c0,0,0.1,0,0.1,0.1c0,0,0,0,0.1,0
		c0,0,0.1,0,0.1,0.1c0,0,0,0,0.1,0c0,0,0.1,0,0.1,0.1c0,0,0,0,0.1,0c0,0,0,0,0.1,0c0,0,0.1,0,0.1,0.1c0,0,0,0,0.1,0c0,0,0,0,0.1,0.1
		c0,0,0.1,0,0.1,0.1c0,0,0,0,0.1,0c0,0,0.1,0,0.1,0.1c0,0,0,0,0.1,0c0,0,0,0,0.1,0.1c0,0,0.1,0,0.1,0.1c0,0,0,0,0.1,0
		c0,0,0.1,0,0.1,0.1c0,0,0,0,0.1,0.1c0,0,0,0,0.1,0c0,0,0.1,0,0.1,0.1c0,0,0.1,0.1,0.1,0.1c0.1,0,0.1,0.1,0.2,0.1c0,0,0,0,0.1,0.1
		c0,0,0,0,0.1,0.1c0,0,0,0,0.1,0c0.1,0,0.1,0.1,0.2,0.1c0,0,0,0,0.1,0.1c0,0,0,0,0.1,0c0,0,0,0,0.1,0c0,0,0.1,0,0.1,0.1
		c0,0,0,0,0.1,0c0,0,0,0,0.1,0.1c0,0,0.1,0,0.1,0.1c0,0,0.1,0,0.1,0.1c0,0,0,0,0.1,0c0,0,0,0,0.1,0.1c0,0,0,0,0.1,0
		c0,0,0.1,0,0.1,0.1c0,0,0.1,0,0.1,0.1c0,0,0,0,0.1,0c0,0,0.1,0,0.1,0.1c0,0,0,0,0.1,0c0,0,0,0,0.1,0.1c0,0,0.1,0,0.1,0.1
		c0,0,0,0,0.1,0c0,0,0.1,0,0.1,0.1c0,0,0,0,0.1,0c0,0,0.1,0,0.1,0.1c0,0,0.1,0,0.1,0.1c0,0,0,0,0.1,0c0,0,0.1,0,0.1,0.1
		c0,0,0,0,0.1,0c0,0,0.1,0,0.1,0.1c0,0,0,0,0.1,0.1c0,0,0,0,0.1,0c0,0,0.1,0,0.1,0.1c0,0,0,0,0.1,0c0,0,0,0,0.1,0.1
		c0,0,0.1,0,0.1,0.1c0,0,0,0,0.1,0c0,0,0.1,0,0.1,0.1c0,0,0,0,0.1,0c0,0,0.1,0,0.1,0.1c0,0,0,0,0.1,0.1c0,0,0,0,0.1,0c0,0,0,0,0.1,0
		c0,0,0.1,0,0.1,0.1c0,0,0,0,0.1,0.1c0,0,0,0,0.1,0.1c0,0,0,0,0.1,0.1c0,0,0,0,0.1,0c0.1,0,0.1,0.1,0.2,0.1c0,0,0,0,0.1,0
		c0,0,0.1,0,0.1,0.1c0,0,0,0,0.1,0c0,0,0.1,0,0.1,0.1c0,0,0,0,0.1,0c0,0,0,0,0.1,0c0,0,0.1,0,0.1,0.1c0,0,0,0,0.1,0
		c0.1,0,0.1,0.1,0.2,0.1c0,0,0,0,0.1,0c0,0,0.1,0,0.1,0.1c0,0,0,0,0.1,0.1c0,0,0,0,0.1,0.1c0,0,0.1,0,0.1,0.1c0,0,0,0,0.1,0.1
		c0,0,0,0,0.1,0.1c0,0,0.1,0,0.1,0.1c0,0,0,0,0.1,0c0,0,0.1,0,0.1,0.1c0,0,0,0,0.1,0c0,0,0.1,0,0.1,0.1c0,0,0.1,0,0.1,0.1
		c0,0,0,0,0.1,0c0,0,0.1,0,0.1,0.1c0,0,0,0,0.1,0.1c0,0,0,0,0.1,0c0.1,0,0.1,0.1,0.2,0.1c0,0,0,0,0.1,0c0,0,0,0,0.1,0c0,0,0,0,0.1,0
		c0.1,0,0.1,0.1,0.2,0.1c0,0,0.1,0,0.1,0.1c0,0,0,0,0.1,0c0,0,0.1,0,0.1,0.1c0,0,0,0,0.1,0.1c0,0,0,0,0.1,0.1c0,0,0,0,0.1,0
		c0,0,0.1,0,0.1,0.1c0,0,0.1,0,0.1,0.1c0,0,0,0,0.1,0c0,0,0,0,0.1,0c0,0,0,0,0.1,0.1c0,0,0.1,0,0.1,0.1c0,0,0.1,0,0.1,0.1
		c0,0,0,0,0.1,0c0,0,0.1,0,0.1,0.1c0,0,0,0,0.1,0c0,0,0.1,0,0.1,0.1c0,0,0.1,0,0.1,0.1c0,0,0,0,0.1,0c0,0,0.1,0,0.1,0.1
		c0,0,0,0,0.1,0c0.1,0,0.1,0.1,0.1,0.1c0,0,0,0,0.1,0c0,0,0.1,0,0.1,0.1c0,0,0,0,0.1,0c0,0,0.1,0,0.1,0.1c0,0,0,0,0.1,0.1
		c0,0,0,0,0.1,0c0,0,0.1,0,0.1,0.1c0,0,0,0,0.1,0c0,0,0.1,0,0.1,0.1c0,0,0,0,0.1,0.1c0,0,0,0,0.1,0c0,0,0.1,0,0.1,0.1
		c0,0,0.1,0,0.1,0.1c0,0,0,0,0.1,0c0,0,0.1,0,0.1,0.1c0,0,0,0,0.1,0.1c0,0,0,0,0.1,0c0.1,0,0.1,0.1,0.2,0.1c0,0,0.1,0,0.1,0.1
		c0,0,0,0,0.1,0c0,0,0,0,0.1,0c0.1,0,0.1,0.1,0.2,0.1c0,0,0.1,0,0.1,0.1c0,0,0,0,0.1,0.1c0,0,0,0,0.1,0c0.1,0,0.1,0.1,0.2,0.1
		c0,0,0,0,0.1,0c0,0,0.1,0,0.1,0.1c0,0,0.1,0,0.1,0.1c0,0,0,0,0.1,0c0,0,0,0,0.1,0c0,0,0,0,0.1,0c0,0,0.1,0,0.1,0.1
		c0,0,0.1,0.1,0.1,0.1c0,0,0.1,0,0.1,0.1c0,0,0,0,0.1,0c0,0,0.1,0,0.1,0.1c0,0,0.1,0,0.1,0.1c0,0,0,0,0.1,0c0,0,0.1,0,0.1,0.1
		c0,0,0,0,0.1,0.1c0,0,0,0,0.1,0.1c0,0,0.1,0,0.1,0.1c0,0,0,0,0.1,0c0,0,0.1,0,0.1,0.1c0,0,0,0,0.1,0c0,0,0,0,0.1,0.1
		c0,0,0.1,0,0.1,0.1c0,0,0,0,0.1,0c0,0,0.1,0,0.1,0.1c0,0,0,0,0.1,0c0,0,0.1,0,0.1,0.1c0,0,0,0,0.1,0.1c0,0,0,0,0.1,0
		c0,0,0,0,0.1,0.1c0,0,0,0,0.1,0.1c0,0,0,0,0.1,0.1c0,0,0,0,0.1,0.1c0,0,0,0,0.1,0c0,0,0,0,0.1,0.1c0,0,0.1,0,0.1,0.1
		c0,0,0.1,0,0.1,0.1c0,0,0,0,0.1,0c0,0,0,0,0.1,0c0,0,0,0,0.1,0c0.1,0,0.1,0.1,0.1,0.1c0,0,0,0,0.1,0c0.1,0,0.1,0.1,0.2,0.1
		c3.8,2.5,6.1,7.3,6.1,12.8c0,2.4-0.4,4.9-1.1,7.5c0,0,0.1,0,0.1,0.1c0,0,0,0,0.1,0c0,0,0,0,0.1,0.1c0,0,0.1,0,0.1,0.1
		c0,0,0,0,0.1,0c0,0,0,0,0.1,0.1c0,0,0.1,0,0.1,0.1c0,0,0,0,0.1,0c0,0,0.1,0,0.1,0.1c0,0,0,0,0.1,0c0,0,0.1,0,0.1,0.1
		c0,0,0.1,0,0.1,0.1c0,0,0,0,0.1,0c0,0,0.1,0,0.1,0.1c0,0,0.1,0,0.1,0.1c0,0,0,0,0.1,0c0,0,0.1,0,0.1,0.1c0,0,0,0,0.1,0
		c0,0,0.1,0,0.1,0.1c0,0,0.1,0,0.1,0.1c0,0,0,0,0.1,0c0,0,0.1,0,0.1,0.1c0,0,0,0,0.1,0c0,0,0.1,0,0.1,0.1c0,0,0.1,0,0.1,0.1
		c0,0,0,0,0.1,0c0,0,0,0,0.1,0.1c0,0,0,0,0.1,0.1c0,0,0,0,0.1,0c0,0,0.1,0,0.1,0.1c0,0,0,0,0.1,0c0,0,0.1,0,0.1,0.1
		c0,0,0.1,0,0.1,0.1c0,0,0,0,0.1,0.1c0,0,0.1,0,0.1,0.1c0,0,0,0,0.1,0.1c0,0,0,0,0.1,0c0,0,0.1,0,0.1,0.1c0,0,0,0,0.1,0
		c0,0,0.1,0,0.1,0.1c0,0,0.1,0,0.1,0.1c0,0,0,0,0.1,0c0,0,0.1,0,0.1,0.1c0,0,0,0,0.1,0c0,0,0.1,0,0.1,0.1c0,0,0.1,0,0.1,0.1
		c0,0,0,0,0.1,0c0,0,0.1,0,0.1,0.1c0,0,0.1,0,0.1,0.1c0,0,0,0,0.1,0c0,0,0.1,0,0.1,0.1c0,0,0,0,0.1,0c0,0,0.1,0,0.1,0.1
		c0,0,0,0,0.1,0.1c0,0,0,0,0.1,0.1c0,0,0.1,0,0.1,0.1c0,0,0,0,0.1,0c0,0,0.1,0,0.1,0.1c0,0,0.1,0,0.1,0.1c0,0,0,0,0.1,0
		c0,0,0.1,0,0.1,0.1c0,0,0.1,0,0.1,0.1c0,0,0,0,0.1,0c0,0,0.1,0,0.1,0.1c0,0,0,0,0.1,0c0,0,0.1,0,0.1,0.1c0,0,0.1,0,0.1,0.1
		c0,0,0,0,0.1,0c0,0,0.1,0,0.1,0.1c0,0,0,0,0.1,0c0,0,0,0,0.1,0.1c0,0,0.1,0,0.1,0.1c0,0,0,0,0.1,0c0,0,0.1,0,0.1,0.1
		c1.5,1,2.3,2.9,2.3,5.5c0,6-4.8,13.6-10.6,16.9c0,0,0,0,0,0l0,0.1l-73,41.8l0-0.1l-0.1,0l0-0.1c-6.6,3.7-12.4,4-16.3,1.3
		C42.6,176.1,42.6,176.1,42.5,176C42.6,176,42.5,176,42.5,176z"/>
	<defs>
		<filter id="Adobe_OpacityMaskFilter" filterUnits="userSpaceOnUse" x="38.2" y="97.2" width="27.3" height="35.7">
			<feFlood  style="flood-color:white;flood-opacity:1" result="back"/>
			<feBlend  in="SourceGraphic" in2="back" mode="normal"/>
		</filter>
	</defs>
	<mask maskUnits="userSpaceOnUse" x="38.2" y="97.2" width="27.3" height="35.7" id="SVGID_12_">
		<g class="st19">
			<defs>
				<filter id="Adobe_OpacityMaskFilter_1_" filterUnits="userSpaceOnUse" x="38.2" y="97.2" width="27.3" height="35.7">
					<feFlood  style="flood-color:white;flood-opacity:1" result="back"/>
					<feBlend  in="SourceGraphic" in2="back" mode="normal"/>
				</filter>
			</defs>
			<mask maskUnits="userSpaceOnUse" x="38.2" y="97.2" width="27.3" height="35.7" id="SVGID_12_">
				<g class="st20">
				</g>
			</mask>
			
				<linearGradient id="SVGID_13_" gradientUnits="userSpaceOnUse" x1="869.7775" y1="108.8362" x2="850.3734" y2="141.1122" gradientTransform="matrix(1 3.713121e-03 -3.713121e-03 1 -813.1017 -1.9343)">
				<stop  offset="0" style="stop-color:#000000"/>
				<stop  offset="1" style="stop-color:#FFFFFF"/>
			</linearGradient>
			<path class="st21" d="M64.8,112.5L42.6,97.2c-3.3,6.7-5,13.8-4.2,20.3l22.3,15.3l4.8-2.4L64.8,112.5z"/>
		</g>
	</mask>
	
		<linearGradient id="SVGID_14_" gradientUnits="userSpaceOnUse" x1="869.7775" y1="108.8362" x2="850.3734" y2="141.1122" gradientTransform="matrix(1 3.713121e-03 -3.713121e-03 1 -813.1017 -1.9343)">
		<stop  offset="0" style="stop-color:#4F339E"/>
		<stop  offset="1" style="stop-color:#2D1E4D"/>
	</linearGradient>
	<path class="st22" d="M64.8,112.5L42.6,97.2c-3.3,6.7-5,13.8-4.2,20.3l22.3,15.3l4.8-2.4L64.8,112.5z"/>
	<g class="st23">
		<path class="st24" d="M67.9,72.2c0.4,0.3,0.8,0.6,1.3,0.9c1.1,0.7,2.2,1.5,3.3,2.2c1.5,1,3.1,2.1,4.6,3.1c1.8,1.2,3.5,2.4,5.3,3.6
			c1.7,1.2,3.4,2.3,5.1,3.5c1.4,1,2.9,2,4.3,3c0.9,0.6,1.9,1.3,2.8,1.9c0.2,0.1,0.4,0.3,0.6,0.4c0.1,0.1,0.3,0,0.4-0.1
			c1.6-0.5,3.3-1.1,4.9-1.6c1.6-0.5,3.2-1,4.8-1.5c0.1,0,0.2-0.1,0.3-0.1c-1.1-0.8-2.2-1.6-3.3-2.3c-2.3-1.6-4.6-3.2-6.9-4.8
			c-1.9-1.4-3.9-2.7-5.8-4c-0.4-0.2-0.7-0.5-1.1-0.7c-0.8-0.5-1.6-1.1-2.4-1.7c-0.9-0.6-1.8-1.3-2.8-1.8c-4.1-2.3-9.1-2-13.5-0.6
			C69.2,71.7,68.5,71.9,67.9,72.2z"/>
		<path class="st24" d="M135.8,99.3c0-5.5-2.3-10.3-6.1-12.8c0,0,0,0-0.1-0.1c0,0,0,0-0.1-0.1c0,0,0,0-0.1-0.1c0,0,0,0-0.1-0.1
			c0,0,0,0-0.1-0.1c0,0,0,0-0.1-0.1c0,0,0,0-0.1-0.1c0,0,0,0-0.1-0.1c0,0,0,0-0.1-0.1c0,0,0,0-0.1-0.1c0,0,0,0-0.1-0.1
			c0,0,0,0-0.1-0.1c0,0,0,0-0.1-0.1c0,0,0,0-0.1-0.1s0,0-0.1-0.1c0,0,0,0-0.1-0.1c0,0,0,0-0.1-0.1c0,0,0,0-0.1-0.1s0,0-0.1-0.1
			c0,0,0,0-0.1-0.1c0,0,0,0-0.1-0.1c0,0,0,0-0.1-0.1c0,0,0,0-0.1-0.1c0,0,0,0-0.1-0.1c0,0,0,0-0.1-0.1c0,0,0,0-0.1-0.1
			c0,0,0,0-0.1-0.1c0,0,0,0-0.1-0.1c0,0,0,0-0.1-0.1c0,0,0,0-0.1-0.1c0,0,0,0-0.1-0.1c0,0,0,0-0.1-0.1c0,0,0,0-0.1-0.1
			c0,0,0,0-0.1-0.1c0,0,0,0-0.1-0.1c0,0,0,0-0.1-0.1c0,0,0,0-0.1-0.1c0,0,0,0-0.1-0.1s0,0-0.1-0.1c0,0,0,0-0.1-0.1c0,0,0,0-0.1-0.1
			c0,0,0,0-0.1-0.1c0,0,0,0-0.1-0.1s0,0-0.1-0.1c0,0,0,0-0.1-0.1c0,0,0,0-0.1-0.1c0,0,0,0-0.1-0.1c0,0,0,0-0.1-0.1c0,0,0,0-0.1-0.1
			c0,0,0,0-0.1-0.1c0,0,0,0-0.1-0.1c0,0,0,0-0.1-0.1c0,0,0,0-0.1-0.1s0,0-0.1-0.1s0,0-0.1-0.1c0,0,0,0-0.1-0.1c0,0,0,0-0.1-0.1
			c0,0,0,0-0.1-0.1c0,0,0,0-0.1-0.1c0,0,0,0-0.1-0.1c0,0,0,0-0.1-0.1c0,0,0,0-0.1-0.1s0,0-0.1-0.1c0,0,0,0-0.1-0.1s0,0-0.1-0.1
			c0,0,0,0-0.1-0.1c0,0,0,0-0.1-0.1c0,0,0,0-0.1-0.1c0,0,0,0-0.1-0.1c0,0,0,0-0.1-0.1c0,0,0,0-0.1-0.1c0,0,0,0-0.1-0.1
			c0,0,0,0-0.1-0.1s0,0-0.1-0.1s0,0-0.1-0.1c0,0,0,0-0.1-0.1c0,0,0,0-0.1-0.1c0,0,0,0-0.1-0.1c0,0,0,0-0.1-0.1c0,0,0,0-0.1-0.1
			c0,0,0,0-0.1-0.1c0,0,0,0-0.1-0.1c0,0,0,0-0.1-0.1s0,0-0.1-0.1c0,0,0,0-0.1-0.1s0,0-0.1-0.1c0,0,0,0-0.1-0.1c0,0,0,0-0.1-0.1
			c0,0,0,0-0.1-0.1c0,0,0,0-0.1-0.1c0,0,0,0-0.1-0.1c0,0,0,0-0.1-0.1c0,0,0,0-0.1-0.1c0,0,0,0-0.1-0.1c0,0,0,0-0.1-0.1s0,0-0.1-0.1
			c0,0,0,0-0.1-0.1c0,0,0,0-0.1-0.1c0,0,0,0-0.1-0.1c0,0,0,0-0.1-0.1s0,0-0.1-0.1c0,0,0,0-0.1-0.1c0,0,0,0-0.1-0.1c0,0,0,0-0.1-0.1
			c0,0,0,0-0.1-0.1c0,0,0,0-0.1-0.1c0,0,0,0-0.1-0.1s0,0-0.1-0.1c0,0,0,0-0.1-0.1c0,0,0,0-0.1-0.1c0,0,0,0-0.1-0.1c0,0,0,0-0.1-0.1
			c0,0,0,0-0.1-0.1c0,0,0,0-0.1-0.1c0,0,0,0-0.1-0.1c0,0,0,0-0.1-0.1c0,0,0,0-0.1-0.1c0,0,0,0-0.1-0.1c0,0,0,0-0.1-0.1s0,0-0.1-0.1
			c0,0,0,0-0.1-0.1c0,0,0,0-0.1-0.1c0,0,0,0-0.1-0.1c0,0,0,0-0.1-0.1c0,0,0,0-0.1-0.1c0,0,0,0-0.1-0.1c0,0,0,0-0.1-0.1
			c0,0,0,0-0.1-0.1c0,0,0,0-0.1-0.1s0,0-0.1-0.1c0,0,0,0-0.1-0.1c0,0,0,0-0.1-0.1c0,0,0,0-0.1-0.1c0,0,0,0-0.1-0.1c0,0,0,0-0.1-0.1
			c0,0,0,0-0.1-0.1c0,0,0,0-0.1-0.1c0,0,0,0-0.1-0.1s0,0-0.1-0.1c0,0,0,0-0.1-0.1s0,0-0.1-0.1c0,0,0,0-0.1-0.1c0,0,0,0-0.1-0.1
			c0,0,0,0-0.1-0.1c0,0,0,0-0.1-0.1c0,0,0,0-0.1-0.1c0,0,0,0-0.1-0.1c0,0,0,0-0.1-0.1c0,0,0,0-0.1-0.1c0,0,0,0-0.1-0.1s0,0-0.1-0.1
			c0,0,0,0-0.1-0.1c0,0,0,0-0.1-0.1c0,0,0,0-0.1-0.1s0,0-0.1,0c0,0,0,0-0.1-0.1c0,0,0,0-0.1-0.1c0,0,0,0-0.1-0.1c0,0,0,0-0.1-0.1
			s0,0-0.1-0.1c0,0,0,0-0.1-0.1s0,0-0.1-0.1c0,0,0,0-0.1-0.1c0,0,0,0-0.1-0.1s0,0-0.1-0.1s0,0-0.1-0.1c0,0,0,0-0.1-0.1
			c0,0,0,0-0.1-0.1c0,0,0,0-0.1-0.1c0,0,0,0-0.1-0.1c0,0,0,0-0.1-0.1s0,0-0.1-0.1c0,0,0,0-0.1-0.1c0,0,0,0-0.1-0.1c0,0,0,0-0.1-0.1
			c0,0,0,0-0.1-0.1s0,0-0.1-0.1c0,0,0,0-0.1-0.1c0,0,0,0-0.1-0.1c0,0,0,0-0.1-0.1s0,0-0.1-0.1c0,0,0,0-0.1-0.1c0,0,0,0-0.1-0.1
			c0,0,0,0-0.1-0.1s0,0-0.1-0.1c0,0,0,0-0.1-0.1c0,0,0,0-0.1-0.1c0,0,0,0-0.1-0.1c0,0,0,0-0.1-0.1c0,0,0,0-0.1-0.1c0,0,0,0-0.1-0.1
			c0,0,0,0-0.1-0.1c0,0,0,0-0.1,0c0,0,0,0-0.1-0.1c0,0,0,0-0.1-0.1c0,0,0,0-0.1-0.1c0,0,0,0-0.1-0.1s0,0-0.1-0.1c0,0,0,0-0.1-0.1
			c0,0,0,0-0.1-0.1c0,0,0,0-0.1-0.1c0,0,0,0-0.1-0.1c0,0,0,0-0.1-0.1c0,0,0,0-0.1-0.1c0,0,0,0-0.1-0.1s0,0-0.1-0.1c0,0,0,0-0.1-0.1
			c0,0,0,0-0.1-0.1c0,0,0,0-0.1-0.1c0,0,0,0-0.1-0.1c0,0,0,0-0.1-0.1c0,0,0,0-0.1,0c0,0,0,0-0.1-0.1c0,0,0,0-0.1-0.1s0,0-0.1-0.1
			c0,0,0,0-0.1-0.1c0,0,0,0-0.1-0.1c0,0,0,0-0.1-0.1c0,0,0,0-0.1-0.1c0,0,0,0-0.1-0.1c0,0,0,0-0.1-0.1c0,0,0,0-0.1-0.1
			c0,0,0,0-0.1-0.1c0,0,0,0-0.1-0.1c0,0,0,0-0.1-0.1c0,0,0,0-0.1-0.1s0,0-0.1-0.1c0,0,0,0-0.1-0.1c0,0,0,0-0.1-0.1c0,0,0,0-0.1-0.1
			c0,0,0,0-0.1-0.1s0,0-0.1-0.1c0,0,0,0-0.1-0.1c0,0,0,0-0.1-0.1c0,0,0,0-0.1-0.1c0,0,0,0-0.1-0.1s0,0-0.1-0.1s0,0-0.1-0.1
			c0,0,0,0-0.1-0.1c0,0,0,0-0.1-0.1c0,0,0,0-0.1-0.1s0,0-0.1-0.1c0,0,0,0-0.1-0.1c0,0,0,0-0.1-0.1c0,0,0,0-0.1-0.1s0,0-0.1-0.1
			c0,0,0,0-0.1-0.1s0,0-0.1-0.1c0,0,0,0-0.1-0.1c0,0,0,0-0.1,0c0,0,0,0-0.1-0.1c0,0,0,0-0.1-0.1c0,0,0,0-0.1-0.1c0,0,0,0-0.1-0.1
			c0,0,0,0-0.1-0.1c0,0,0,0-0.1-0.1c0,0,0,0-0.1-0.1s0,0-0.1-0.1c0,0,0,0-0.1-0.1c0,0,0,0-0.1-0.1c0,0,0,0-0.1-0.1s0,0-0.1-0.1
			c0,0,0,0-0.1-0.1c0,0,0,0-0.1-0.1c0,0,0,0-0.1-0.1c0,0,0,0-0.1-0.1c0,0,0,0-0.1-0.1c0,0,0,0-0.1-0.1c0,0,0,0-0.1-0.1
			c0,0,0,0-0.1-0.1c0,0,0,0-0.1-0.1c0,0,0,0-0.1-0.1c0,0,0,0-0.1-0.1c0,0,0,0-0.1-0.1c0,0,0,0-0.1-0.1c0,0,0,0-0.1-0.1
			c0,0,0,0-0.1-0.1c0,0,0,0-0.1-0.1c0,0,0,0-0.1-0.1c0,0,0,0-0.1-0.1c0,0,0,0-0.1-0.1s0,0-0.1-0.1c0,0,0,0-0.1-0.1c0,0,0,0-0.1-0.1
			c0,0,0,0-0.1-0.1c0,0,0,0-0.1-0.1c0,0,0,0-0.1-0.1c0,0,0,0-0.1-0.1c0,0,0,0-0.1-0.1c0,0,0,0-0.1-0.1c0,0,0,0-0.1-0.1
			c0,0,0,0-0.1-0.1c0,0,0,0-0.1-0.1c0,0,0,0-0.1-0.1c0,0,0,0-0.1-0.1c0,0,0,0-0.1-0.1c0,0,0,0-0.1-0.1c0,0,0,0-0.1-0.1
			c0,0,0,0-0.1-0.1c0,0,0,0-0.1-0.1c-2.4-1.6-5.5-2.3-9-1.5l27.5,19.3l9.6,12.7C135.8,100.8,135.8,100,135.8,99.3z"/>
	</g>
	<path class="st24" d="M95.4,80.4c-1.9-1.4-3.9-2.7-5.8-4c-0.4-0.2-0.7-0.5-1.1-0.7c-0.8-0.5-1.6-1.1-2.4-1.7
		c-0.9-0.6-1.8-1.3-2.8-1.9c0,0-0.1,0-0.1-0.1c-0.4-0.2-1.2-0.5-2.3-1c-1.4-0.4-2.8-0.6-4.3-0.6l25.6,18.2c1-0.3,2.1-0.7,3.1-1
		c0.1,0,0.2-0.1,0.3-0.1c-1.1-0.8-2.2-1.6-3.3-2.3C100,83.6,97.7,81.9,95.4,80.4z M129.8,86.5C129.7,86.5,129.7,86.4,129.8,86.5
		c-0.1-0.1-0.1-0.1-0.1-0.1c0,0,0,0-0.1-0.1c0,0,0,0-0.1-0.1c0,0,0,0-0.1-0.1c0,0,0,0-0.1-0.1c0,0,0,0-0.1-0.1c0,0,0,0-0.1-0.1
		c0,0,0,0-0.1-0.1c0,0,0,0-0.1-0.1c0,0,0,0-0.1-0.1c0,0,0,0-0.1-0.1c0,0,0,0-0.1-0.1c0,0,0,0-0.1-0.1s0,0-0.1-0.1c0,0,0,0-0.1-0.1
		c0,0,0,0-0.1-0.1c0,0,0,0-0.1-0.1s0,0-0.1-0.1c0,0,0,0-0.1-0.1c0,0,0,0-0.1-0.1c0,0,0,0-0.1-0.1c0,0,0,0-0.1-0.1c0,0,0,0-0.1-0.1
		c0,0,0,0-0.1-0.1c0,0,0,0-0.1-0.1c0,0,0,0-0.1-0.1c0,0,0,0-0.1-0.1c0,0,0,0-0.1-0.1c0,0,0,0-0.1-0.1c0,0,0,0-0.1-0.1
		c0,0,0,0-0.1-0.1c0,0,0,0-0.1-0.1c0,0,0,0-0.1-0.1c0,0,0,0-0.1-0.1c0,0,0,0-0.1-0.1c0,0,0,0-0.1-0.1c0,0,0,0-0.1-0.1s0,0-0.1-0.1
		c0,0,0,0-0.1-0.1c0,0,0,0-0.1-0.1c0,0,0,0-0.1-0.1c0,0,0,0-0.1-0.1s0,0-0.1-0.1c0,0,0,0-0.1-0.1c0,0,0,0-0.1-0.1c0,0,0,0-0.1-0.1
		c0,0,0,0-0.1-0.1c0,0,0,0-0.1-0.1c0,0,0,0-0.1-0.1c0,0,0,0-0.1-0.1c0,0,0,0-0.1-0.1c0,0,0,0-0.1-0.1s0,0-0.1-0.1s0,0-0.1-0.1
		c0,0,0,0-0.1-0.1c0,0,0,0-0.1-0.1c0,0,0,0-0.1-0.1c0,0,0,0-0.1-0.1c0,0,0,0-0.1-0.1c0,0,0,0-0.1-0.1c0,0,0,0-0.1-0.1s0,0-0.1-0.1
		c0,0,0,0-0.1-0.1s0,0-0.1-0.1c0,0,0,0-0.1-0.1c0,0,0,0-0.1-0.1c0,0,0,0-0.1-0.1c0,0,0,0-0.1-0.1c0,0,0,0-0.1-0.1c0,0,0,0-0.1-0.1
		c0,0,0,0-0.1-0.1c0,0,0,0-0.1-0.1s0,0-0.1-0.1s0,0-0.1-0.1c0,0,0,0-0.1-0.1c0,0,0,0-0.1-0.1c0,0,0,0-0.1-0.1c0,0,0,0-0.1-0.1
		c0,0,0,0-0.1-0.1c0,0,0,0-0.1-0.1c0,0,0,0-0.1-0.1c0,0,0,0-0.1-0.1s0,0-0.1-0.1c0,0,0,0-0.1-0.1s0,0-0.1-0.1c0,0,0,0-0.1-0.1
		c0,0,0,0-0.1-0.1c0,0,0,0-0.1-0.1c0,0,0,0-0.1-0.1c0,0,0,0-0.1-0.1c0,0,0,0-0.1-0.1c0,0,0,0-0.1-0.1c0,0,0,0-0.1-0.1
		c0,0,0,0-0.1-0.1s0,0-0.1-0.1c0,0,0,0-0.1-0.1c0,0,0,0-0.1-0.1c0,0,0,0-0.1-0.1c0,0,0,0-0.1-0.1s0,0-0.1-0.1c0,0,0,0-0.1-0.1
		c0,0,0,0-0.1-0.1c0,0,0,0-0.1-0.1c0,0,0,0-0.1-0.1c0,0,0,0-0.1-0.1c0,0,0,0-0.1-0.1s0,0-0.1-0.1c0,0,0,0-0.1-0.1c0,0,0,0-0.1-0.1
		c0,0,0,0-0.1-0.1c0,0,0,0-0.1-0.1c0,0,0,0-0.1-0.1c0,0,0,0-0.1-0.1c0,0,0,0-0.1-0.1c0,0,0,0-0.1-0.1c0,0,0,0-0.1-0.1
		c0,0,0,0-0.1-0.1c0,0,0,0-0.1-0.1s0,0-0.1-0.1c0,0,0,0-0.1-0.1c0,0,0,0-0.1-0.1c0,0,0,0-0.1-0.1c0,0,0,0-0.1-0.1c0,0,0,0-0.1-0.1
		c0,0,0,0-0.1-0.1c0,0,0,0-0.1-0.1c0,0,0,0-0.1-0.1c0,0,0,0-0.1-0.1s0,0-0.1-0.1c0,0,0,0-0.1-0.1c0,0,0,0-0.1-0.1c0,0,0,0-0.1-0.1
		c0,0,0,0-0.1-0.1c0,0,0,0-0.1-0.1c0,0,0,0-0.1-0.1c0,0,0,0-0.1-0.1c0,0,0,0-0.1-0.1s0,0-0.1-0.1c0,0,0,0-0.1-0.1s0,0-0.1-0.1
		c0,0,0,0-0.1-0.1c0,0,0,0-0.1-0.1c0,0,0,0-0.1-0.1c0,0,0,0-0.1-0.1c0,0,0,0-0.1-0.1c0,0,0,0-0.1-0.1c0,0,0,0-0.1-0.1
		c0,0,0,0-0.1-0.1c0,0,0,0-0.1-0.1s0,0-0.1-0.1c0,0,0,0-0.1-0.1c0,0,0,0-0.1-0.1c0,0,0,0-0.1-0.1s0,0-0.1,0c0,0,0,0-0.1-0.1
		c0,0,0,0-0.1-0.1c0,0,0,0-0.1-0.1c0,0,0,0-0.1-0.1s0,0-0.1-0.1c0,0,0,0-0.1-0.1s0,0-0.1-0.1c0,0,0,0-0.1-0.1c0,0,0,0-0.1-0.1
		s0,0-0.1-0.1s0,0-0.1-0.1c0,0,0,0-0.1-0.1c0,0,0,0-0.1-0.1c0,0,0,0-0.1-0.1c0,0,0,0-0.1-0.1c0,0,0,0-0.1-0.1s0,0-0.1-0.1
		c0,0,0,0-0.1-0.1c0,0,0,0-0.1-0.1c0,0,0,0-0.1-0.1c0,0,0,0-0.1-0.1s0,0-0.1-0.1c0,0,0,0-0.1-0.1c0,0,0,0-0.1-0.1c0,0,0,0-0.1-0.1
		s0,0-0.1-0.1c0,0,0,0-0.1-0.1c0,0,0,0-0.1-0.1c0,0,0,0-0.1-0.1s0,0-0.1-0.1c0,0,0,0-0.1-0.1c0,0,0,0-0.1-0.1c0,0,0,0-0.1-0.1
		c0,0,0,0-0.1-0.1c0,0,0,0-0.1-0.1c0,0,0,0-0.1-0.1c0,0,0,0-0.1-0.1c0,0,0,0-0.1,0c0,0,0,0-0.1-0.1c0,0,0,0-0.1-0.1c0,0,0,0-0.1-0.1
		c0,0,0,0-0.1-0.1s0,0-0.1-0.1c0,0,0,0-0.1-0.1c0,0,0,0-0.1-0.1c0,0,0,0-0.1-0.1c0,0,0,0-0.1-0.1c0,0,0,0-0.1-0.1c0,0,0,0-0.1-0.1
		c0,0,0,0-0.1-0.1s0,0-0.1-0.1c0,0,0,0-0.1-0.1c0,0,0,0-0.1-0.1c0,0,0,0-0.1-0.1c0,0,0,0-0.1-0.1c0,0,0,0-0.1-0.1c0,0,0,0-0.1,0
		c0,0,0,0-0.1-0.1c0,0,0,0-0.1-0.1s0,0-0.1-0.1c0,0,0,0-0.1-0.1c0,0,0,0-0.1-0.1c0,0,0,0-0.1-0.1c0,0,0,0-0.1-0.1c0,0,0,0-0.1-0.1
		c0,0,0,0-0.1-0.1c0,0,0,0-0.1-0.1c0,0,0,0-0.1-0.1c0,0,0,0-0.1-0.1c0,0,0,0-0.1-0.1c0,0,0,0-0.1-0.1s0,0-0.1-0.1c0,0,0,0-0.1-0.1
		c0,0,0,0-0.1-0.1c0,0,0,0-0.1-0.1c0,0,0,0-0.1-0.1s0,0-0.1-0.1c0,0,0,0-0.1-0.1c0,0,0,0-0.1-0.1c0,0,0,0-0.1-0.1c0,0,0,0-0.1-0.1
		s0,0-0.1-0.1s0,0-0.1-0.1c0,0,0,0-0.1-0.1c0,0,0,0-0.1-0.1c0,0,0,0-0.1-0.1s0,0-0.1-0.1c0,0,0,0-0.1-0.1c0,0,0,0-0.1-0.1
		c0,0,0,0-0.1-0.1s0,0-0.1-0.1c0,0,0,0-0.1-0.1s0,0-0.1-0.1c0,0,0,0-0.1-0.1c0,0,0,0-0.1,0c0,0,0,0-0.1-0.1c0,0,0,0-0.1-0.1
		c0,0,0,0-0.1-0.1c0,0,0,0-0.1-0.1c0,0,0,0-0.1-0.1c0,0,0,0-0.1-0.1c0,0,0,0-0.1-0.1s0,0-0.1-0.1c0,0,0,0-0.1-0.1c0,0,0,0-0.1-0.1
		c0,0,0,0-0.1-0.1s0,0-0.1-0.1c0,0,0,0-0.1-0.1c0,0,0,0-0.1-0.1c0,0,0,0-0.1-0.1c0,0,0,0-0.1-0.1c0,0,0,0-0.1-0.1c0,0,0,0-0.1-0.1
		c0,0,0,0-0.1-0.1c0,0,0,0-0.1-0.1c0,0,0,0-0.1-0.1c0,0,0,0-0.1-0.1c0,0,0,0-0.1-0.1c0,0,0,0-0.1-0.1c0,0,0,0-0.1-0.1
		c0,0,0,0-0.1-0.1c0,0,0,0-0.1-0.1c0,0,0,0-0.1-0.1c0,0,0,0-0.1-0.1c0,0,0,0-0.1-0.1c0,0,0,0-0.1-0.1s0,0-0.1-0.1c0,0,0,0-0.1-0.1
		c0,0,0,0-0.1-0.1c0,0,0,0-0.1-0.1c0,0,0,0-0.1-0.1c0,0,0,0-0.1-0.1c0,0,0,0-0.1-0.1c0,0,0,0-0.1-0.1c0,0,0,0-0.1-0.1
		c0,0,0,0-0.1-0.1c0,0,0,0-0.1-0.1c0,0,0,0-0.1-0.1c0,0,0,0-0.1-0.1c0,0,0,0-0.1-0.1c0,0,0,0-0.1-0.1c0,0,0,0-0.1-0.1
		c0,0,0,0-0.1-0.1c0,0,0,0-0.1-0.1c0,0,0,0-0.1-0.1c-1.6-1-3.4-1.7-5.3-1.8l25.4,17.9l6.2,11.8l1.9,2.5c0.1-0.8,0.1-1.5,0.1-2.3
		C135.8,93.8,133.5,89,129.8,86.5z"/>
	<g>
		<g>
			<path class="st25" d="M133.6,110.4c1.4-3.8,2.2-7.6,2.2-11.1c0-12.6-12.1-21.5-25.8-7.6c-4.4-6.9-13.7-8.1-24.4-1.9
				c-14.3,8.2-26.7,27.4-24.9,43.1c-10.6,1-22.7,20.3-22.7,32.1c0,12.1,9.4,16.5,21.1,9.8l0,0.1l73-41.8l0-0.1c0,0,0,0,0,0
				c5.8-3.3,10.5-10.9,10.6-16.9C142.6,110.6,138.7,108.3,133.6,110.4z"/>
		</g>
	</g>
	<g>
		<path class="st24" d="M85.5,90.9c10.8-6.2,20.1-5,24.4,1.9c13.5-13.7,25.5-5.2,25.8,7.1c0-0.2,0-0.4,0-0.6
			c0-12.6-12.1-21.5-25.8-7.6c-4.4-6.9-13.7-8.1-24.4-1.9c-13.5,7.7-25.3,25.3-25,40.3C60.8,115.3,72.4,98.5,85.5,90.9z"/>
	</g>
</g>
<g>
	<g>
		<path class="st26" d="M66.4,365.4l-5.6,3.2v-8.3l7.6-4.4v6.2C68.5,363.3,67.5,364.8,66.4,365.4z"/>
		<path class="st27" d="M68.5,362.1c-0.3,0.6-0.7,1-1.1,1.3c0.1,0.6-0.2,1.2-0.6,1.8C67.7,364.5,68.4,363.2,68.5,362.1z"/>
	</g>
	<g>
		<path class="st26" d="M101.3,345.3l-5.7,4l-0.7-7.9l7.6-5.3l0.5,5.7C103.1,343,102.4,344.5,101.3,345.3z"/>
		<path class="st27" d="M103,341.9c-0.3,0.6-0.6,1-1,1.4c0.1,0.6-0.1,1.2-0.4,1.8C102.5,344.3,103.1,343,103,341.9z"/>
	</g>
	<g>
		<path class="st26" d="M63.7,379.7l-5.6,3.2v-8.3l7.6-4.4v6.2C65.8,377.5,64.8,379,63.7,379.7z"/>
		<path class="st27" d="M65.8,376.3c-0.3,0.6-0.7,1-1.1,1.3c0.1,0.6-0.2,1.2-0.6,1.8C65,378.7,65.7,377.4,65.8,376.3z"/>
	</g>
	<g>
		<path class="st26" d="M179.7,330.4l-5.7,3.5l-0.2-8.2l7.6-4.7l0.1,6C181.6,328.2,180.8,329.7,179.7,330.4z"/>
		<path class="st27" d="M181.6,327.1c-0.3,0.6-0.6,1-1,1.3c0.1,0.6-0.1,1.2-0.5,1.8C180.9,329.5,181.6,328.2,181.6,327.1z"/>
	</g>
	<g>
		<path class="st26" d="M214.6,288.3l-5.7,3.5l-0.2-8.2l7.6-4.7l0.1,6C216.5,286.1,215.7,287.6,214.6,288.3z"/>
		<path class="st27" d="M216.5,285c-0.3,0.6-0.6,1-1,1.3c0.1,0.6-0.1,1.2-0.5,1.8C215.8,287.4,216.5,286.1,216.5,285z"/>
	</g>
	<g>
		<path class="st26" d="M168.8,320l-5.7,3.5l-0.2-8.2l7.6-4.7l0.1,6C170.7,317.8,169.9,319.4,168.8,320z"/>
		<path class="st27" d="M170.7,316.7c-0.3,0.6-0.6,1-1,1.3c0.1,0.6-0.1,1.2-0.5,1.8C170,319.1,170.7,317.8,170.7,316.7z"/>
	</g>
	<g>
		<path class="st26" d="M147.4,337l-5.7,3.5l-0.2-8.2l7.6-4.7l0.1,6C149.3,334.8,148.5,336.3,147.4,337z"/>
		<path class="st27" d="M149.3,333.7c-0.3,0.6-0.6,1-1,1.3c0.1,0.6-0.1,1.2-0.5,1.8C148.6,336.1,149.3,334.8,149.3,333.7z"/>
	</g>
	<g>
		<path class="st26" d="M148.7,323.8l-5.7,3.5l-0.2-8.2l7.6-4.7l0.1,6C150.6,321.6,149.8,323.1,148.7,323.8z"/>
		<path class="st27" d="M150.6,320.5c-0.3,0.6-0.6,1-1,1.3c0.1,0.6-0.1,1.2-0.5,1.8C149.9,322.9,150.6,321.6,150.6,320.5z"/>
	</g>
	<g>
		<path class="st28" d="M169.4,307.7l-5.7,2.7l0.6-8.6l7.6-3.6l-0.4,6.3C171.4,305.8,170.5,307.2,169.4,307.7z"/>
		<path class="st29" d="M171.5,304.6c-0.3,0.6-0.7,1-1.1,1.2c0,0.6-0.2,1.2-0.7,1.8C170.6,307,171.4,305.7,171.5,304.6z"/>
	</g>
	<g>
		<path class="st28" d="M169.4,341.7l-5.7,2.7l0.6-8.6l7.6-3.6l-0.4,6.3C171.4,339.7,170.5,341.2,169.4,341.7z"/>
		<path class="st29" d="M171.5,338.6c-0.3,0.6-0.7,1-1.1,1.2c0,0.6-0.2,1.2-0.7,1.8C170.6,340.9,171.4,339.7,171.5,338.6z"/>
	</g>
	<g>
		<path class="st28" d="M75.4,376.7l-5.7,3.5l-0.2-8.2l7.6-4.7l0.1,6C77.3,374.6,76.4,376.1,75.4,376.7z"/>
		<path class="st29" d="M77.2,373.4c-0.3,0.6-0.6,1-1,1.3c0.1,0.6-0.1,1.2-0.5,1.8C76.5,375.8,77.2,374.5,77.2,373.4z"/>
	</g>
	<g>
		<path class="st28" d="M101.1,360l-5.7,3.5l-0.2-8.2l7.6-4.7l0.1,6C103,357.8,102.1,359.4,101.1,360z"/>
		<path class="st29" d="M102.9,356.7c-0.3,0.6-0.6,1-1,1.3c0.1,0.6-0.1,1.2-0.5,1.8C102.2,359.1,102.9,357.8,102.9,356.7z"/>
	</g>
	<g>
		<path class="st28" d="M181.9,297.1l-5.7,3.5l-0.2-8.2l7.6-4.7l0.1,6C183.8,294.9,182.9,296.4,181.9,297.1z"/>
		<path class="st29" d="M183.7,293.8c-0.3,0.6-0.6,1-1,1.3c0.1,0.6-0.1,1.2-0.5,1.8C183,296.2,183.7,294.9,183.7,293.8z"/>
	</g>
	<g>
		<path class="st28" d="M136.5,332.7l-5.7,3.5l-0.2-8.2l7.6-4.7l0.1,6C138.4,330.6,137.5,332.1,136.5,332.7z"/>
		<path class="st29" d="M138.3,329.4c-0.3,0.6-0.6,1-1,1.3c0.1,0.6-0.1,1.2-0.5,1.8C137.7,331.8,138.3,330.5,138.3,329.4z"/>
	</g>
	<g>
		<path class="st30" d="M178.4,314.3l-5.6,2.1l1.2-8.9l7.5-2.8l-0.9,6.5C180.4,312.5,179.4,313.9,178.4,314.3z"/>
		<path class="st31" d="M180.6,311.3c-0.4,0.5-0.7,0.9-1.1,1.1c0,0.7-0.3,1.2-0.8,1.8C179.6,313.7,180.4,312.5,180.6,311.3z"/>
	</g>
	<g>
		<path class="st30" d="M204.1,295.4l-5.7,3.6l-0.3-8.1l7.6-4.8l0.2,5.9C206,293.2,205.1,294.8,204.1,295.4z"/>
		<path class="st31" d="M205.9,292.1c-0.3,0.6-0.6,1-1,1.3c0.1,0.6-0.1,1.2-0.5,1.8C205.3,294.5,205.9,293.2,205.9,292.1z"/>
	</g>
	<g>
		<path class="st30" d="M70.6,390.8l-5.7,3.6l-0.3-8.1l7.6-4.8l0.2,5.9C72.4,388.6,71.6,390.2,70.6,390.8z"/>
		<path class="st31" d="M72.4,387.5c-0.3,0.6-0.6,1-1,1.3c0.1,0.6-0.1,1.2-0.5,1.8C71.7,389.9,72.4,388.6,72.4,387.5z"/>
	</g>
	<g>
		<path class="st30" d="M135.9,346.3l-5.7,2.5l0.8-8.7l7.6-3.3l-0.6,6.4C137.9,344.4,137,345.8,135.9,346.3z"/>
		<path class="st31" d="M138,343.2c-0.3,0.6-0.7,0.9-1.1,1.2c0,0.6-0.3,1.2-0.7,1.8C137.1,345.5,137.9,344.3,138,343.2z"/>
	</g>
	<g>
		<path class="st30" d="M114,373.1l-5.7,2.9l0.5-8.6l7.6-3.8l-0.3,6.2C116,371.1,115.1,372.6,114,373.1z"/>
		<path class="st31" d="M116,369.9c-0.3,0.6-0.7,1-1.1,1.2c0,0.6-0.2,1.2-0.7,1.8C115.2,372.3,115.9,371.1,116,369.9z"/>
	</g>
	<g>
		<path class="st30" d="M111.3,351.1l-5.7,2.9l0.5-8.6l7.6-3.8l-0.3,6.3C113.3,349.1,112.3,350.6,111.3,351.1z"/>
		<path class="st31" d="M113.3,347.9c-0.3,0.6-0.7,1-1.1,1.2c0,0.6-0.2,1.2-0.7,1.8C112.5,350.3,113.2,349.1,113.3,347.9z"/>
	</g>
	<g>
		<path class="st32" d="M214.7,310.9l-5.7,3.6l-0.3-8.1l7.6-4.8l0.2,5.9C216.6,308.7,215.8,310.3,214.7,310.9z"/>
		<path class="st33" d="M216.6,307.6c-0.3,0.6-0.6,1-1,1.3c0.1,0.6-0.1,1.2-0.5,1.8C215.9,310,216.6,308.7,216.6,307.6z"/>
	</g>
	<g>
		<path class="st32" d="M204.4,322.6l-5.7,4l-0.8-7.8l7.6-5.4l0.6,5.7C206.2,320.3,205.4,321.9,204.4,322.6z"/>
		<path class="st33" d="M206.1,319.3c-0.3,0.6-0.6,1-1,1.4c0.1,0.6-0.1,1.2-0.4,1.8C205.5,321.6,206.1,320.3,206.1,319.3z"/>
	</g>
	<g>
		<path class="st32" d="M140.9,355.4l-5.7,3.5l-0.2-8.2l7.6-4.7l0.1,6C142.8,353.2,142,354.8,140.9,355.4z"/>
		<path class="st33" d="M142.8,352.1c-0.3,0.6-0.6,1-1,1.3c0.1,0.6-0.1,1.2-0.5,1.8C142.1,354.5,142.8,353.2,142.8,352.1z"/>
	</g>
	<g>
		<path class="st32" d="M78.3,361.5l-5.7,3.5l-0.2-8.2l7.6-4.7l0.1,6C80.2,359.4,79.4,360.9,78.3,361.5z"/>
		<path class="st33" d="M80.2,358.2c-0.3,0.6-0.6,1-1,1.3c0.1,0.6-0.1,1.2-0.5,1.8C79.5,360.6,80.2,359.3,80.2,358.2z"/>
	</g>
	<g>
		<path class="st32" d="M208.2,304.1l-5.7,3.5l-0.2-8.2l7.6-4.7l0.1,6C210.1,301.9,209.3,303.4,208.2,304.1z"/>
		<path class="st33" d="M210.1,300.8c-0.3,0.6-0.6,1-1,1.3c0.1,0.6-0.1,1.2-0.5,1.8C209.4,303.2,210.1,301.9,210.1,300.8z"/>
	</g>
	<g>
		<path class="st32" d="M146.9,313.5l-5.7,3.5l-0.2-8.2l7.6-4.7l0.1,6C148.8,311.3,147.9,312.9,146.9,313.5z"/>
		<path class="st33" d="M148.7,310.2c-0.3,0.6-0.6,1-1,1.3c0.1,0.6-0.1,1.2-0.5,1.8C148.1,312.6,148.7,311.3,148.7,310.2z"/>
	</g>
	<g>
		<path class="st32" d="M105,378.7l-5.7,3.5l-0.2-8.2l7.6-4.7l0.1,6C106.9,376.5,106.1,378,105,378.7z"/>
		<path class="st33" d="M106.9,375.4c-0.3,0.6-0.6,1-1,1.3c0.1,0.6-0.1,1.2-0.5,1.8C106.2,377.8,106.9,376.5,106.9,375.4z"/>
	</g>
	<line class="st34" x1="89" y1="338.7" x2="89" y2="390.4"/>
	<line class="st34" x1="52.9" y1="359.5" x2="52.9" y2="411.2"/>
	<line class="st34" x1="123.7" y1="318.6" x2="123.7" y2="370.3"/>
	<line class="st34" x1="158.5" y1="298.5" x2="158.5" y2="350.2"/>
	<line class="st34" x1="193.3" y1="278.4" x2="193.3" y2="330.1"/>
</g>
<g>
	<path class="st35" d="M264.9,114c0,2.5-1.7,5.5-3.9,6.7c-2.1,1.2-3.9,0.2-3.9-2.2s1.7-5.5,3.9-6.7
		C263.2,110.5,264.9,111.5,264.9,114z"/>
	<path class="st35" d="M283.7,103.1c0,2.5-1.7,5.5-3.9,6.7c-2.1,1.2-3.9,0.2-3.9-2.2c0-2.5,1.7-5.5,3.9-6.7
		C281.9,99.7,283.7,100.7,283.7,103.1z"/>
	<path class="st35" d="M302.4,92.3c0,2.5-1.7,5.5-3.9,6.7c-2.1,1.2-3.9,0.2-3.9-2.2c0-2.5,1.7-5.5,3.9-6.7
		C300.7,88.8,302.4,89.8,302.4,92.3z"/>
</g>
<linearGradient id="SVGID_15_" gradientUnits="userSpaceOnUse" x1="253.2209" y1="272.0733" x2="253.4751" y2="272.0733">
	<stop  offset="0" style="stop-color:#AFB6E5"/>
	<stop  offset="0.5161" style="stop-color:#FEFEFF"/>
	<stop  offset="1" style="stop-color:#F9FAFD"/>
</linearGradient>
<path class="st36" d="M253.2,272c0.1,0,0.2,0.1,0.2,0.1c0,0,0,0,0,0C253.4,272.1,253.3,272.1,253.2,272z"/>
<path class="st37" d="M418.3,93.1c-8.6-5-22.6-5-31.3,0l-136.3,78.7l0,89.5c0,2.3,0.5,7.5,5,7.5c1.5,0,3.3-0.6,5.2-1.7l229.4-132.4
	L418.3,93.1z"/>
<g>
	<path class="st38" d="M267.1,243.7c-0.3,0-0.5-0.2-0.5-0.5V139.7c0-0.3,0.2-0.5,0.5-0.5c0.3,0,0.5,0.2,0.5,0.5v103.4
		C267.7,243.4,267.4,243.7,267.1,243.7z"/>
</g>
<g>
	<path class="st38" d="M267.1,166.1c-0.2,0-0.4-0.1-0.5-0.3c-0.1-0.3-0.1-0.6,0.2-0.7L480.3,41.9c0.3-0.1,0.6-0.1,0.7,0.2
		c0.1,0.3,0.1,0.6-0.2,0.7L267.4,166C267.3,166.1,267.2,166.1,267.1,166.1z"/>
</g>
<g>
	<path class="st38" d="M267.1,192c-0.2,0-0.4-0.1-0.5-0.3c-0.1-0.3-0.1-0.6,0.2-0.7L480.3,67.8c0.3-0.1,0.6-0.1,0.7,0.2
		c0.1,0.3,0.1,0.6-0.2,0.7L267.4,191.9C267.3,191.9,267.2,192,267.1,192z"/>
</g>
<g>
	<path class="st38" d="M267.1,217.8c-0.2,0-0.4-0.1-0.5-0.3c-0.1-0.3-0.1-0.6,0.2-0.7L480.3,93.6c0.3-0.1,0.6-0.1,0.7,0.2
		c0.1,0.3,0.1,0.6-0.2,0.7L267.4,217.7C267.3,217.8,267.2,217.8,267.1,217.8z"/>
</g>
<g>
	<path class="st38" d="M267.1,140.3c-0.2,0-0.4-0.1-0.5-0.3c-0.1-0.3-0.1-0.6,0.2-0.7L480.3,16.1c0.3-0.1,0.6-0.1,0.7,0.2
		c0.1,0.3,0.1,0.6-0.2,0.7L267.4,140.2C267.3,140.2,267.2,140.3,267.1,140.3z"/>
</g>
<g>
	<path class="st38" d="M267.1,243.7c-0.2,0-0.4-0.1-0.5-0.3c-0.1-0.3-0.1-0.6,0.2-0.7l213.4-123.2c0.3-0.2,0.6-0.1,0.7,0.2
		c0.1,0.3,0.1,0.6-0.2,0.7L267.4,243.6C267.3,243.6,267.2,243.7,267.1,243.7z"/>
</g>
<g>
	
		<linearGradient id="SVGID_16_" gradientUnits="userSpaceOnUse" x1="1714.505" y1="587.1343" x2="1707.3879" y2="688.9128" gradientTransform="matrix(-0.866 0.5 0 -1 1861.892 -95.5481)">
		<stop  offset="0" style="stop-color:#FFD0A2"/>
		<stop  offset="0.1323" style="stop-color:#FFCAA0"/>
		<stop  offset="0.304" style="stop-color:#FFBA9A"/>
		<stop  offset="0.4974" style="stop-color:#FF9F91"/>
		<stop  offset="0.7068" style="stop-color:#FF7A83"/>
		<stop  offset="0.9266" style="stop-color:#FF4B72"/>
		<stop  offset="1" style="stop-color:#FF396C"/>
	</linearGradient>
	<path class="st39" d="M275,225c-0.7,0-1.4-0.4-1.8-1.1c-0.6-1-0.2-2.3,0.8-2.9c8-4.6,12-13.9,16.2-23.8c4.3-10.1,8.8-20.5,18-25.8
		c10.1-5.8,15.5,0.4,19.8,5.5c4.7,5.5,7.8,8.4,14.5,4.6c7.7-4.4,12.2-30.3,16.1-53c4.5-26,8.7-50.5,18.2-56c2.6-1.5,4.8-1.1,6.1-0.5
		c6.9,3,10.2,18.6,14.1,36.6c3,14,6.8,31.5,11.7,33.6c0.5,0.2,1.2,0.4,2.3-0.3c8-4.6,12-13.3,16.3-22.5c4.4-9.4,8.9-19.1,18-24.4
		c10-5.8,15.3-0.3,19.7,4c4.3,4.3,7.4,7.5,14.5,3.3c1-0.6,2.3-0.2,2.9,0.8c0.6,1,0.2,2.3-0.8,2.9c-10,5.8-15.3,0.3-19.7-4
		c-4.3-4.3-7.4-7.5-14.5-3.3c-8,4.6-12,13.3-16.3,22.5c-4.4,9.4-8.9,19.1-18,24.4c-2.6,1.5-4.8,1.1-6.1,0.5
		c-6.9-3-10.2-18.6-14.1-36.6c-3-14-6.8-31.5-11.7-33.6c-0.5-0.2-1.2-0.4-2.3,0.3c-7.7,4.4-12.2,30.3-16.1,53
		c-4.5,26-8.7,50.5-18.2,56c-10.1,5.8-15.5-0.4-19.8-5.5c-4.7-5.5-7.8-8.4-14.5-4.6c-8,4.6-12,13.9-16.2,23.8
		c-4.3,10.1-8.8,20.5-18,25.8C275.7,224.9,275.4,225,275,225z"/>
</g>
<g>
	
		<linearGradient id="SVGID_17_" gradientUnits="userSpaceOnUse" x1="1685.399" y1="600.0521" x2="1681.2637" y2="659.1905" gradientTransform="matrix(-0.866 0.5 0 -1 1835.9139 -68.7698)">
		<stop  offset="0" style="stop-color:#23DCFF"/>
		<stop  offset="0.1296" style="stop-color:#26D6FD"/>
		<stop  offset="0.2979" style="stop-color:#30C6F7"/>
		<stop  offset="0.4876" style="stop-color:#3FABEE"/>
		<stop  offset="0.6927" style="stop-color:#5586E1"/>
		<stop  offset="0.9082" style="stop-color:#7057D1"/>
		<stop  offset="1" style="stop-color:#7D40C9"/>
	</linearGradient>
	<path class="st40" d="M307.3,201.8c-6.2,0-10.3-4.7-13.8-8.7c-4.9-5.6-8.7-10.1-17.5-5c-1,0.6-2.3,0.2-2.9-0.8
		c-0.6-1-0.2-2.3,0.8-2.9c11.8-6.8,17.9,0.2,22.8,5.9c4.9,5.6,8.7,10,17.5,5c9.6-5.6,15.1-19.6,20.4-33.2
		c5.6-14.3,11.3-29,22.3-35.3c3.3-1.9,6.5-2.4,9.4-1.5c6.3,2,10.1,10.4,13.7,18.4c3.3,7.2,6.7,14.7,11.2,16.1c1.8,0.6,3.7,0.2,6-1.1
		c9.5-5.5,14.1-20.9,18.6-35.8c4.7-15.7,9.5-31.9,20.5-38.2c12.1-7,18.9,4.7,24.5,14c6.3,10.8,10.7,17.2,18.7,12.5
		c1-0.6,2.3-0.2,2.9,0.8c0.6,1,0.2,2.3-0.8,2.9c-12.1,7-18.9-4.7-24.5-14c-6.3-10.8-10.6-17.2-18.7-12.5
		c-9.5,5.5-14.1,20.9-18.6,35.8c-4.7,15.7-9.5,31.9-20.5,38.2c-3.3,1.9-6.5,2.4-9.4,1.5c-6.3-2-10.1-10.4-13.7-18.4
		c-3.3-7.2-6.7-14.7-11.2-16.1c-1.8-0.6-3.7-0.2-6,1.1c-9.6,5.6-15.1,19.6-20.4,33.2c-5.6,14.3-11.3,29-22.3,35.3
		C312.8,201,309.9,201.8,307.3,201.8z"/>
</g>
</svg>
